<svg width="383" height="367" viewBox="0 0 383 367" fill="none" xmlns="http://www.w3.org/2000/svg">
<g clip-path="url(#clip0_0_5680)">
<path d="M336.488 232.262C328.447 227.6 317.312 228.24 305.026 235.323C280.592 249.435 260.861 283.642 260.914 311.737C260.957 325.668 265.895 335.491 273.84 340.099L254.526 328.868C246.58 324.26 241.653 314.436 241.653 300.506C241.557 272.421 261.287 238.256 285.722 224.145C298.008 217.019 309.153 216.379 317.184 221.041L336.488 232.262Z" fill="#285599"/>
<path d="M336.404 304.329C353.707 274.553 353.755 242.29 336.511 232.267C319.267 222.244 291.261 238.256 273.958 268.032C256.655 297.807 256.606 330.07 273.85 340.093C291.094 350.116 319.1 334.104 336.404 304.329Z" fill="#061C4B"/>
<path d="M337.481 230.555C337.481 230.555 337.481 230.544 337.481 230.555L337.46 230.544C337.439 230.534 337.417 230.512 337.396 230.502C337.375 230.491 337.353 230.48 337.332 230.47L318.156 219.323C309.101 214.086 297.209 215.174 284.71 222.427C259.774 236.827 239.564 271.855 239.649 300.495C239.649 314.692 244.576 325.369 253.514 330.564L272.786 341.774C272.796 341.785 272.818 341.785 272.828 341.795C272.839 341.806 272.85 341.795 272.871 341.806C272.892 341.817 272.903 341.827 272.914 341.838C283.302 347.811 295.823 344.75 306.285 338.702C331.221 324.302 351.442 289.274 351.357 260.624C351.325 246.405 346.397 235.728 337.481 230.555ZM255.508 327.15C247.84 322.692 243.616 313.231 243.616 300.484C243.531 273.103 262.856 239.611 286.704 225.84C295.823 220.561 307.085 217.457 316.183 222.737L324.022 227.291C317.537 228.027 312.834 228.539 304.035 233.616C279.004 248.069 258.889 283.471 258.932 311.737C258.953 317.956 260.425 326.265 263.326 331.705L255.508 327.15ZM304.323 335.289C293.092 341.774 282.64 342.883 274.898 338.414C267.197 333.987 262.942 324.505 262.91 311.705C262.835 284.698 281.873 250.992 306.008 237.051C314.924 231.91 326.219 228.838 335.167 233.808C335.274 233.872 335.391 233.904 335.498 233.968C343.144 238.416 347.379 247.877 347.421 260.634C347.496 288.026 328.17 321.518 304.323 335.289Z" fill="#42BBFF"/>
<path d="M294.821 231.195C293.734 231.195 292.848 230.32 292.848 229.232L292.667 180.508C292.667 179.42 293.542 178.535 294.63 178.524C294.63 178.524 294.63 178.524 294.64 178.524C295.728 178.524 296.613 179.399 296.613 180.487L296.795 229.211C296.795 230.31 295.92 231.195 294.821 231.195Z" fill="#D9F1FF"/>
<path d="M336.627 156.221C336.083 155.271 334.867 154.951 333.929 155.495L227.66 216.859C228.47 217.905 229.068 219.11 229.441 220.39L335.902 158.919C336.851 158.375 337.181 157.17 336.627 156.221Z" fill="#D9F1FF"/>
<path d="M209.541 318.969C215.481 311.14 220.302 302.596 224.024 293.573C234.444 268.154 235.777 239.248 226.52 212.39C224.056 205.169 220.835 198.151 216.868 191.377C198.449 159.89 167.391 140.307 133.828 135.432C122.139 133.757 110.151 133.832 98.3019 135.816C84.8637 138.099 71.5535 142.76 59.1284 150.024C51.2255 154.653 44.0904 160.093 37.7126 166.173C31.1215 172.38 25.4049 179.239 20.5735 186.716C6.0368 209.105 -0.341021 236.08 2.69858 262.768C4.49034 278.202 9.43902 293.604 17.7686 307.855C49.9563 362.883 120.582 381.389 175.604 349.198L209.541 318.969Z" fill="#061C4B"/>
<path d="M88.1889 271.12C89.0207 268.784 88.4981 265.989 89.9166 263.952C92.2203 260.645 97.6489 261.797 100.838 259.323C102.534 258 103.749 255.6 105.893 255.621C107.749 255.643 108.943 257.499 110.351 258.715C112.292 260.389 115.129 260.955 117.561 260.133C118.713 259.749 119.801 259.067 121.006 259.077C123.502 259.088 125.101 261.872 127.501 262.597C129.111 263.088 130.85 262.565 132.45 262.053C134.871 261.275 137.292 260.496 139.713 259.728C141.675 259.099 143.723 258.469 145.749 258.832C148.245 259.291 150.282 261.285 151.253 263.632C152.223 265.979 152.244 268.624 151.807 271.13C151.583 272.432 151.242 273.754 151.476 275.056C151.818 276.89 153.247 278.298 154.399 279.77C155.561 281.242 156.542 283.194 155.828 284.922C155.263 286.287 153.823 287.055 152.895 288.207C151.69 288.666 150.805 290.223 150.41 291.45C150.026 292.687 150.037 293.999 150.101 295.29C150.186 296.837 150.346 298.373 150.581 299.898C151.306 304.634 152.778 309.412 151.946 314.138C151.594 316.143 150.826 318.063 149.717 319.759C149.461 320.143 149.183 320.527 149.077 320.975C148.981 321.327 148.991 321.689 149.013 322.052C149.151 325.049 149.781 328.196 151.828 330.383C151.978 330.543 152.191 330.703 152.383 330.607C154.815 333.7 158.398 335.737 162.014 337.284C162.504 337.486 163.016 337.721 163.294 338.158C163.774 338.926 163.251 340.014 162.462 340.441C161.662 340.868 160.702 340.825 159.795 340.75C156.361 340.452 152.938 339.758 149.781 338.382C144.032 335.865 139.499 331.204 135.724 326.201C130.722 319.577 125.571 312.89 121.315 305.754C120.729 304.783 120.174 303.748 119.278 303.055C118.105 302.127 116.526 301.914 115.033 301.978C113.54 302.052 112.068 302.372 110.575 302.415C110.234 302.426 109.893 302.415 109.573 302.298C108.911 302.063 108.474 301.412 107.813 301.199C106.576 299.407 104.016 299.087 102 298.266C98.3742 296.783 95.0146 294.639 92.1457 291.962C91.2605 291.13 90.3966 290.213 89.9913 289.071C89.746 288.357 89.682 287.599 89.6607 286.853C89.586 284.229 89.906 281.594 90.6205 279.066C90.7165 278.714 90.8232 278.362 90.7699 278C90.7272 277.69 90.5672 277.413 90.4072 277.136C89.298 275.045 87.3996 273.328 88.1889 271.12Z" fill="#285599"/>
<path d="M159.636 342.702C155.551 342.34 152.074 341.518 149.003 340.174C140.182 336.313 135.458 328.612 133.069 325.935C128.429 319.801 123.641 313.455 119.631 306.756C118.159 304.282 117.817 303.524 113.189 304.132C110.149 304.516 109.157 304.602 107.493 303.279C107.088 303.14 106.438 302.65 106.192 302.298C105.659 301.53 104.411 301.125 103.078 300.709C98.3854 299.205 89.6932 294.17 88.136 289.69C87.1655 286.895 87.8694 281.541 88.7333 278.49C87.9441 276.026 85.0644 274.021 86.3336 270.458C87.6454 266.8 85.1178 261.36 95.3351 259.248C99.1319 258.48 99.4945 258.032 100.902 256.507C102.086 255.227 103.558 253.648 105.862 253.648C105.883 253.648 105.904 253.648 105.915 253.648C110.917 253.702 111.173 260.677 117.817 257.915C118.724 257.541 119.759 257.104 120.985 257.104C120.996 257.104 121.006 257.104 121.017 257.104C124.377 257.115 126.179 260.133 128.067 260.709C130.968 261.573 140.737 255.952 146.102 256.891C151.093 257.808 155.199 263.141 153.749 271.461C153.567 272.464 153.258 273.818 153.418 274.682C154.005 277.882 162.281 282.32 155.423 288.453C154.346 289.423 154.165 289.818 153.599 290.031C150.816 291.066 152.618 300.154 153.141 302.938C154.357 309.274 155.21 314.97 151.37 320.815C151.178 321.103 151.018 321.348 150.986 321.444C151.136 324.975 151.797 327.236 153.013 328.719C154.325 329.167 154.89 332.078 162.782 335.449C163.369 335.694 164.339 336.1 164.969 337.092C166.078 338.873 165.193 341.198 163.401 342.158C162.516 342.649 160.958 342.82 159.636 342.702ZM120.505 301.476C123.801 304.079 119.023 300.794 136.215 323.545C137.207 324.665 142.412 332.974 150.581 336.548C153.706 337.913 158.143 338.756 160.638 338.798C156.458 336.953 153.471 334.884 151.317 332.366C151.008 332.228 150.698 332.004 150.4 331.684C148.363 329.508 147.264 326.361 147.062 322.105C146.987 320.601 147.264 319.876 148.021 318.745C151.925 312.794 149.728 307.108 148.651 300.165C147.904 295.322 147.339 288.89 151.69 286.565C153.471 284.602 155.487 284.282 152.863 280.965L152.256 280.218C148.096 275.216 149.653 273.541 149.867 270.768C150.933 264.635 148.224 261.275 145.398 260.752C143.83 260.464 141.964 261.061 140.332 261.584C129.72 264.987 129.421 265.211 126.936 264.464C124.409 263.696 122.478 261.04 121.006 261.029C120.217 261.211 120.761 260.933 119.353 261.531C110.8 265.04 107.579 257.584 105.883 257.573H105.872C105.275 257.573 104.561 258.352 103.803 259.173C101.841 261.296 100.774 262.149 96.1243 263.099C91.4316 264.059 91.1223 264.752 90.717 268.293C90.0345 274.426 88.9146 270.309 92.1462 276.133C93.7886 279.141 91.4103 279.834 91.6342 286.735C91.6662 288.357 91.8689 288.954 93.49 290.469C96.5189 293.306 100.252 295.621 104.273 296.933C105.926 297.466 107.771 298.053 109.072 299.567C109.424 299.759 109.712 299.983 109.936 300.175C109.946 300.175 110.522 300.399 110.533 300.399C111.909 300.367 113.381 300.047 114.948 299.973C115.151 299.973 118.959 300.261 120.505 301.476Z" fill="#D9F1FF"/>
<path d="M63.2087 217.276C64.8725 217.66 66.3443 216.102 67.0695 214.566C67.7948 213.02 68.2854 211.228 69.6932 210.257C71.3996 209.073 73.906 209.553 75.5271 208.241C77.3295 206.769 76.9669 204.113 77.2335 201.703C77.4361 199.889 76.6363 198.119 75.1218 197.105C71.1756 194.46 67.2295 191.815 63.2834 189.17C61.5876 188.039 60.809 185.959 61.2783 183.975C61.3423 183.708 61.4063 183.442 61.4809 183.175C62.4088 179.762 60.2331 176.21 56.8095 175.314H56.7989C54.0472 174.589 50.8157 172.658 51.9888 169.543C52.1915 169.021 52.5114 168.551 52.9061 168.146C55.9137 165.053 60.2118 163.293 64.5205 163.367C65.6617 163.389 66.8456 163.549 67.8161 164.157C69.5652 165.277 70.1198 167.517 70.7384 169.501C71.3569 171.474 72.1782 173.383 73.1807 175.197C73.9593 176.605 75.7404 177.117 77.1269 176.306L82.5448 173.138C84.1126 172.221 85.3178 170.823 86.0857 169.17C88.3787 164.221 91.7276 159.762 95.9084 156.253C97.0389 155.304 98.3294 154.226 98.3934 152.744C98.436 151.72 97.8494 150.77 97.7855 149.757C97.7001 148.402 98.5107 147.176 99.0546 145.939C100.462 142.717 100.078 138.835 98.2761 135.805C84.8272 138.056 71.5703 142.739 59.1026 150.034C18.3933 173.863 -2.31864 218.769 2.72603 262.811L18.5319 269.605C21.1343 271.205 23.3846 273.392 25.0377 275.962C25.8056 277.168 26.4669 278.48 27.5014 279.472C31.2129 283.002 37.3668 280.752 41.4729 277.69C42.1448 277.189 42.8167 276.666 43.5953 276.368C44.8645 275.888 46.2829 276.048 47.6374 276.218C52.0102 276.784 56.3829 277.349 60.7557 277.914C62.7181 278.17 64.9045 278.362 66.5043 277.2C66.5896 277.136 66.6749 277.061 66.7602 276.986C64.9045 272.869 61.5129 270.405 56.5642 269.594C53.066 270.48 49.1306 267.429 48.9492 263.856L35.319 261.627C36.1189 256.144 41.4196 252.87 46.6562 250.555C47.6374 250.118 48.7999 250.171 49.6425 250.822C49.7385 250.896 49.8451 250.96 49.9411 251.024C52.5434 252.624 55.5404 249.36 53.8126 246.854C52.6821 245.211 52.0315 243.376 52.8741 241.648C53.8553 239.632 56.6709 238.566 56.7775 236.315C56.8309 235.206 56.159 234.193 55.9243 233.105C55.0818 229.158 59.9878 226.011 59.9665 221.969C59.9665 220.956 59.6358 219.942 59.6998 218.929" fill="#285599"/>
<path d="M26.1347 280.901C25.1428 279.962 24.4709 278.842 23.863 277.84L23.3617 277.029C21.8899 274.725 19.8529 272.741 17.4852 271.29L1.93525 264.624C1.28467 264.347 0.836726 263.739 0.751404 263.035C-4.53856 216.838 17.9758 171.815 58.0985 148.338C70.4915 141.085 83.8977 136.221 97.9332 133.864C98.7438 133.725 99.5437 134.099 99.9596 134.803C102.135 138.461 102.466 143.037 100.845 146.738L100.418 147.645C98.8718 150.824 100.461 149.81 100.354 152.829C100.152 157.554 93.3365 158.194 87.8652 170.013C86.9053 172.093 85.4016 173.757 83.5245 174.855C79.1837 177.063 77.4986 179.346 74.4057 178.514C71.0568 177.596 69.9476 173.095 68.6891 169.597C67.6972 166.343 67.2493 165.405 64.4656 165.351C63.6658 165.511 58.7277 164.989 54.3017 169.533C53.8217 170.023 53.5231 170.727 53.8324 171.325C55.1122 173.842 59.7409 172.615 62.5139 177.394C63.6444 179.335 63.9431 181.575 63.3671 183.687L63.1858 184.412C62.8979 185.607 63.3778 186.844 64.3697 187.516L76.2188 195.452C79.653 197.756 79.205 200.977 79.0771 203.441C78.8318 208.284 77.6799 210.353 72.8699 211.249C69.8303 211.804 70.3315 212.262 68.8384 215.388C66.78 219.697 62.7912 220.006 61.6074 218.438C61.65 218.63 61.6714 218.833 61.6607 219.036C61.6394 219.42 61.9273 221.265 61.9273 221.926C61.9487 226.587 57.2346 229.851 57.8319 232.667C58.0132 233.542 58.8024 234.779 58.7277 236.379C58.6211 238.491 57.2026 239.814 56.0508 240.88C54.4083 242.406 53.6617 243.174 55.4108 245.712C58.3331 249.947 53.3311 255.419 48.8837 252.688C48.841 252.656 48.4891 252.422 48.4464 252.39C48.1691 252.187 47.7745 252.176 47.4226 252.336C42.1326 254.672 39.0077 257.147 37.7705 260.016L49.2357 261.893C51.7633 262.309 49.8542 264.72 52.7339 266.853C54.7389 268.336 56.1787 267.493 56.8507 267.632C62.4712 268.549 66.3961 271.429 68.5291 276.165C68.8917 276.976 68.7637 277.925 67.6439 278.778C64.7856 280.858 62.5352 280.133 47.3479 278.17C44.5536 277.808 44.2123 278.064 42.7725 279.141C37.7705 282.906 30.6994 285.231 26.1347 280.901ZM4.5589 261.445L19.309 267.792C24.8336 271.13 26.6253 275.002 27.2546 275.802C27.7665 276.656 28.2571 277.466 28.865 278.042C31.9153 280.954 37.4932 278.192 40.2982 276.112C41.1407 275.482 41.9193 274.896 42.9112 274.522C46.74 273.061 60.4235 276.549 64.0177 276.08C62.4073 273.701 59.9649 272.229 56.6054 271.61C52.5632 272.325 48.3824 269.509 47.2519 265.584L34.9975 263.579C33.9417 263.408 33.2058 262.405 33.3658 261.349C34.3576 254.565 40.9701 250.918 45.8548 248.752C47.5505 248.006 49.449 248.198 50.8354 249.254C51.838 249.883 52.6912 248.71 52.1793 247.974C49.9609 244.752 50.3662 242.288 51.0914 240.784C51.6673 239.611 52.5846 238.758 53.3844 238.011C55.7095 235.857 54.611 236.443 53.9924 233.521C52.8299 228.07 58.5678 225.499 57.8745 220.892C57.7785 220.273 57.6719 219.569 57.7252 218.79C57.8639 216.86 60.2209 216.348 61.2767 217.734C60.9461 216.348 62.162 215.036 63.6444 215.345C63.9324 215.43 64.7963 214.737 65.2869 213.702L65.7028 212.774C67.3133 208.956 68.6571 208.028 72.1766 207.377C75.6962 206.727 74.779 205.969 75.2802 201.479C75.4082 200.38 74.9283 199.335 74.0431 198.737L62.194 190.802C59.8369 189.223 58.7064 186.3 59.3677 183.516C59.453 182.716 60.2742 181.372 59.1224 179.378C58.5038 178.322 57.4906 177.532 56.3281 177.234C54.9629 176.871 51.6887 175.751 50.3448 173.138C49.2463 170.983 49.8329 168.509 51.4967 166.781C57.1813 160.925 65.5002 160.381 68.8704 162.493C70.2569 163.378 71.2594 164.445 72.6352 168.925C72.9232 169.853 74.5443 174.439 75.4722 174.706C75.6322 174.749 75.8881 174.77 76.1334 174.621C80.4742 171.783 82.8312 171.538 84.303 168.359C86.7347 163.09 90.3182 158.386 94.6483 154.76C97.6346 152.253 96.0348 152.84 95.8215 149.917C95.7042 148.061 96.6534 146.408 97.24 145.171C98.1999 142.984 98.1572 140.349 97.176 138.013C84.1324 140.371 71.6647 144.989 60.1036 151.752C21.6553 174.237 -0.0591552 217.201 4.5589 261.445Z" fill="#D9F1FF"/>
<path d="M128.459 151.837C128.31 150.802 128.171 149.768 128.022 148.733C127.969 148.37 127.916 147.997 127.937 147.624C127.958 147.133 128.108 146.642 128.246 146.184C128.758 144.499 129.27 142.824 129.793 141.149C130.102 140.115 130.433 139.059 131.094 138.216C131.894 137.192 133.152 136.499 133.845 135.453C167.388 140.317 198.477 159.858 216.917 191.388C220.885 198.172 224.084 205.201 226.537 212.38C226.079 214.737 226.494 217.361 227.049 219.761C227.87 223.27 228.948 226.971 227.796 230.385C227.433 231.451 226.868 232.433 226.612 233.531C226.399 234.47 226.431 235.451 226.324 236.411C226.036 238.918 224.799 241.286 224.863 243.814C224.927 246.31 226.239 248.571 227.316 250.832C228.254 252.784 229.043 254.811 229.651 256.891C230.089 258.331 230.43 259.909 229.865 261.307C229.214 262.949 227.497 263.888 225.865 264.592C223.231 265.733 220.373 266.64 217.514 266.299C215.552 266.075 213.696 265.264 211.883 264.464C210.187 263.717 208.481 262.971 206.966 261.904C205.121 260.624 203.607 258.939 202.103 257.275C200.653 255.653 199.191 254.032 197.741 252.411C196.877 251.451 196.013 250.48 195.416 249.328C194.605 247.771 194.371 245.979 193.688 244.358C192.046 240.422 188.121 237.99 184.388 235.931C183.194 235.281 181.999 234.63 180.922 233.777C177.328 230.907 175.664 226.118 174.352 221.702C172.827 221.318 171.227 220.934 169.734 221.393C168.763 221.691 167.932 222.31 167.121 222.939C164.263 225.126 161.383 227.302 158.525 229.489C155.795 231.569 152.755 233.755 149.331 233.617C147.977 233.563 146.665 233.147 145.385 232.71C143.497 232.081 141.62 231.398 139.946 230.331C138.239 229.243 136.81 227.793 135.392 226.353C133.728 224.657 132.054 222.939 130.784 220.924C128.235 216.838 127.606 211.612 129.121 207.036C129.974 204.455 131.499 201.895 131.094 199.207C130.998 198.588 130.806 197.991 130.731 197.383C130.475 195.281 131.606 193.351 132.651 191.516C132.107 190.652 133.824 189.5 133.184 188.711C133.003 188.487 132.694 188.412 132.416 188.391C130.433 188.242 128.31 189.863 126.582 188.86C125.644 188.327 125.228 187.207 124.897 186.172C124.545 185.127 124.193 184.028 124.279 182.93C124.428 180.892 126.006 179.271 127.681 178.098C128.619 177.447 129.622 176.86 130.55 176.21C131.862 175.282 131.84 173.298 130.507 172.402C129.59 171.783 128.555 171.367 127.468 171.197" fill="#285599"/>
<path d="M217.29 268.24C214.144 267.866 208.128 265.104 205.846 263.493C203.798 262.075 202.124 260.208 200.652 258.565C194.776 252.016 194.52 251.835 193.677 250.214C191.416 245.872 193.549 243.184 183.449 237.638C178.628 234.971 175.706 232.742 172.816 223.334C169.776 222.683 170.597 222.865 159.751 231.035C152.36 236.667 149 235.995 144.777 234.555C139.466 232.774 137.802 231.569 134.016 227.707C132.288 225.947 130.517 224.134 129.142 221.937C126.006 216.924 125.398 211.025 128.054 204.305C128.96 202.023 129.494 200.679 129.014 198.759C128.363 195.825 128.982 194.012 130.592 191.143C130.592 190.961 130.613 190.791 130.635 190.62C130.592 190.631 130.549 190.641 130.507 190.652C126.753 191.697 124.428 191.004 123.03 186.748C121.719 182.823 121.953 179.676 126.561 176.444C127.446 175.826 128.704 175.068 129.43 174.556L130.517 172.359L129.419 173.991C128.736 173.533 127.958 173.223 127.168 173.095C124.054 172.594 125.195 166.365 131.627 170.717C134.101 172.381 134.144 176.06 131.701 177.778C130.731 178.46 129.781 179.004 128.832 179.676C125.75 181.831 126.006 183.207 126.785 185.511C127.403 187.42 127.467 187.41 129.44 186.844C131.339 186.311 133.536 185.895 134.751 187.431C135.829 188.743 135.189 190.097 134.613 191.089C134.965 192.892 132.128 194.545 132.864 197.852C133.802 201.916 132.117 204.316 131.019 207.612C129.685 211.644 130.229 216.209 132.48 219.825C134.048 222.331 138.836 227.217 141.023 228.614C143.284 230.054 147.87 231.537 149.416 231.59C155.175 231.739 164.732 220.817 169.158 219.462C171.216 218.822 173.306 219.356 174.853 219.739C175.525 219.91 176.069 220.422 176.261 221.094C179.087 230.683 181.455 232.006 185.219 234.075C197.069 240.582 195.287 244.72 197.175 248.368C197.826 249.627 198.711 250.469 203.585 255.899C207.254 259.984 208.256 260.635 212.608 262.565C214.346 263.333 216.042 264.08 217.749 264.293C219.786 264.549 222.036 264.059 225.076 262.725C226.238 262.224 227.625 261.531 228.019 260.528C228.35 259.696 228.072 258.491 227.742 257.413C227.155 255.44 226.409 253.499 225.513 251.643L225.044 250.683C224.052 248.667 222.932 246.395 222.868 243.814C222.825 242.064 223.273 240.486 223.7 238.971C223.966 238.043 224.233 237.104 224.34 236.144C224.382 235.824 224.393 235.504 224.414 235.185C224.457 234.459 224.51 233.745 224.67 233.041C224.852 232.273 225.15 231.537 225.46 230.822C225.619 230.459 225.779 230.086 225.907 229.713C226.782 227.131 226.046 224.049 225.332 221.073L225.118 220.177C224.606 218.012 224.094 215.228 224.489 212.518C222.079 205.574 218.954 198.791 215.2 192.359C197.868 162.727 168.539 142.792 134.634 137.544C134.314 137.864 133.984 138.141 133.674 138.408C133.312 138.728 132.928 139.037 132.629 139.411C132.213 139.955 131.957 140.733 131.669 141.693L130.123 146.738C130.005 147.112 129.909 147.453 129.888 147.698C129.877 147.944 129.931 148.189 129.963 148.424L130.389 151.538C130.539 152.616 129.792 153.618 128.715 153.768C125.846 154.034 126.497 150.397 126.049 148.978C125.974 148.498 125.921 147.986 125.942 147.506C125.974 146.792 126.155 146.162 126.347 145.576L127.883 140.552C128.182 139.549 128.598 138.152 129.515 136.989C129.963 136.413 130.528 135.912 131.093 135.432C131.541 135.048 131.957 134.685 132.181 134.355C132.597 133.715 133.333 133.405 134.112 133.491C169.67 138.653 200.471 159.389 218.602 190.385C222.58 197.191 225.865 204.369 228.382 211.729C228.488 212.049 228.52 212.401 228.456 212.742C228.03 214.908 228.542 217.521 228.958 219.292L229.171 220.166C229.982 223.526 230.888 227.334 229.651 231.003C229.491 231.473 229.299 231.931 229.096 232.401C228.883 232.913 228.648 233.414 228.52 233.958C228.414 234.438 228.392 234.939 228.36 235.44C228.339 235.835 228.307 236.23 228.264 236.614C228.126 237.776 227.817 238.918 227.497 240.059C227.134 241.36 226.782 242.587 226.814 243.739C226.857 245.446 227.689 247.152 228.584 248.955L229.075 249.958C230.056 251.995 230.877 254.139 231.517 256.304C232.029 258.021 232.467 260.048 231.677 262.011C230.749 264.357 228.488 265.573 226.633 266.373C223.7 267.653 220.521 268.634 217.29 268.24ZM134.336 190.428C134.336 190.428 134.346 190.428 134.336 190.428C134.346 190.428 134.336 190.428 134.336 190.428Z" fill="#D9F1FF"/>
<path d="M87.6346 363.128C39.2037 350.446 6.15202 309.572 0.744733 262.981C-3.39339 226.609 9.74621 189.777 36.3667 164.733C61.9313 140.36 97.5319 128.243 134.114 133.469C169.661 138.632 200.441 159.367 218.583 190.375C222.603 197.244 225.899 204.444 228.395 211.75C245.118 260.272 229.962 315.993 176.689 350.83C148.661 367.246 116.932 370.808 87.6346 363.128ZM39.0863 167.602C13.5004 191.676 0.648745 227.217 4.68021 262.533C9.89552 307.546 41.838 347.054 88.6478 359.31C117.935 366.99 148.48 362.776 174.631 347.481C225.803 313.999 240.98 260.336 224.672 213.03C222.262 205.958 219.073 199.015 215.191 192.369C197.668 162.407 167.923 142.365 133.57 137.384C98.5451 132.371 64.0217 143.826 39.0863 167.602Z" fill="#42BBFF"/>
<path d="M332.981 122.248C332.959 122.248 332.949 122.248 332.927 122.248L333.055 157.223C333.055 158.311 333.941 159.186 335.029 159.186C336.255 159.325 337.002 158.301 337.002 157.202L336.874 121.523C335.722 121.96 334.442 122.248 332.981 122.248Z" fill="#D9F1FF"/>
<path d="M368.121 16.2131C360.08 11.5518 348.945 12.1918 336.659 19.2743C312.225 33.386 292.494 67.5933 292.547 95.6887C292.59 109.619 297.528 119.443 305.474 124.051L286.159 112.819C278.213 108.211 273.286 98.3873 273.286 84.4569C273.19 56.3722 292.921 22.2076 317.355 8.09592C329.641 0.970747 340.786 0.330761 348.817 4.99199L368.121 16.2131Z" fill="#285599"/>
<path d="M368.039 88.2699C385.342 58.4946 385.391 26.2315 368.147 16.2083C350.903 6.18517 322.897 22.1974 305.593 51.9727C288.29 81.7481 288.242 114.011 305.486 124.034C322.73 134.057 350.736 118.045 368.039 88.2699Z" fill="#061C4B"/>
<path d="M369.115 14.5064C369.115 14.5064 369.115 14.4957 369.115 14.5064C369.104 14.5064 369.104 14.4957 369.104 14.4957C369.083 14.4851 369.061 14.4637 369.029 14.4424C369.008 14.4317 368.976 14.4211 368.955 14.4104L349.789 3.26397C340.724 -1.97325 328.864 -0.88527 316.343 6.36791C291.407 20.7676 271.197 55.7962 271.282 84.4355C271.282 98.6326 276.209 109.31 285.147 114.504L304.408 125.704C304.419 125.715 304.44 125.725 304.462 125.736C304.472 125.747 304.483 125.736 304.504 125.747C304.526 125.757 304.536 125.768 304.547 125.779C314.967 131.784 327.541 128.637 337.908 122.643C362.843 108.254 383.065 73.2251 382.979 44.5644C382.958 30.3567 378.031 19.6796 369.115 14.5064ZM287.141 111.102C279.473 106.643 275.25 97.1819 275.25 84.4355C275.164 57.0548 294.49 23.5622 318.337 9.79183C327.456 4.51195 338.719 1.40801 347.816 6.6879L355.655 11.2425C350.472 11.3811 342.803 13.4504 335.668 17.5677C327.883 22.0689 320.545 28.5861 314.156 36.2873C300.761 52.4149 290.533 75.1984 290.565 95.678C290.597 103.934 292.655 111.315 294.959 115.646L287.141 111.102ZM335.956 119.24C324.736 125.715 314.284 126.835 306.531 122.376C297.497 117.181 294.575 106.024 294.543 95.6566C294.479 74.4518 306.136 50.3029 320.844 34.6126C326.006 29.1087 331.679 24.4368 337.641 21.0023C346.536 15.861 357.916 12.7678 366.854 17.7917C366.939 17.845 367.035 17.8663 367.12 17.9197C374.778 22.3676 379.012 31.8287 379.055 44.5857C379.129 71.9771 359.793 105.47 335.956 119.24Z" fill="#42BBFF"/>
<path d="M319.173 80.2972C318.842 80.2972 318.49 80.2119 318.181 80.0306C317.232 79.4866 316.912 78.2813 317.456 77.332C322.319 68.9161 328.835 62.0576 335.811 58.047C343.106 53.8231 350.081 53.1832 355.435 56.2338C356.384 56.7777 356.714 57.9831 356.171 58.9324C355.627 59.8817 354.421 60.191 353.472 59.6683C349.398 57.3431 343.82 57.983 337.784 61.4603C331.406 65.1402 325.401 71.4761 320.879 79.3052C320.517 79.9452 319.855 80.2972 319.173 80.2972Z" fill="#D9F1FF"/>
<path d="M336.851 76.7452C340.979 74.3666 344.338 76.2759 344.349 80.9904C344.36 85.737 341.032 91.5075 336.905 93.8968C332.777 96.2861 329.439 94.3555 329.428 89.6089C329.407 84.8944 332.724 79.1345 336.851 76.7452Z" fill="#285599"/>
<path d="M333.544 96.9047C332.499 96.9047 331.507 96.6487 330.622 96.1367C328.574 94.9634 327.444 92.6488 327.433 89.6195C327.422 84.169 331.112 77.7691 335.848 75.0385C338.45 73.5239 341.106 73.3426 343.132 74.5052C345.18 75.6785 346.3 77.9825 346.31 80.9904C346.321 86.4516 342.62 92.8728 337.874 95.6034C336.392 96.4781 334.92 96.9047 333.544 96.9047ZM340.199 77.6945C339.527 77.6945 338.706 77.9505 337.832 78.4518C334.333 80.4784 331.379 85.577 331.39 89.6089C331.39 91.1448 331.838 92.2755 332.595 92.7128C333.363 93.1608 334.568 92.9581 335.912 92.1901C339.421 90.1635 342.386 85.033 342.375 81.0011C342.375 79.4864 341.938 78.3664 341.18 77.9291C340.903 77.7691 340.572 77.6945 340.199 77.6945ZM336.85 76.7451H336.904H336.85Z" fill="#D9F1FF"/>
<path d="M309.593 74.8358C309.262 74.8358 308.921 74.7505 308.601 74.5692C307.652 74.0252 307.332 72.8199 307.876 71.8706C315.288 59.0388 325.186 48.6177 335.755 42.5165C346.719 36.1913 357.085 35.1994 364.978 39.7326C365.927 40.2766 366.247 41.4819 365.703 42.4312C365.148 43.3805 363.943 43.6898 363.005 43.1565C356.382 39.3593 347.401 40.3406 337.717 45.9298C327.735 51.6897 318.349 61.6095 311.278 73.8439C310.937 74.4838 310.265 74.8358 309.593 74.8358Z" fill="#D9F1FF"/>
<path d="M287.534 299.546C287.193 299.546 286.851 299.46 286.542 299.279C285.593 298.735 285.273 297.53 285.817 296.58C290.691 288.154 297.207 281.306 304.172 277.295C311.488 273.071 318.452 272.431 323.796 275.482C324.745 276.026 325.076 277.231 324.532 278.181C323.988 279.13 322.782 279.45 321.833 278.917C317.759 276.581 312.192 277.231 306.145 280.709C299.778 284.389 293.773 290.724 289.24 298.554C288.878 299.194 288.216 299.546 287.534 299.546Z" fill="#D9F1FF"/>
<path d="M305.217 296.004C309.345 293.626 312.704 295.535 312.715 300.249C312.726 304.996 309.398 310.767 305.271 313.156C301.143 315.534 297.805 313.615 297.794 308.868C297.773 304.153 301.09 298.383 305.217 296.004Z" fill="#285599"/>
<path d="M295.811 308.879C295.79 303.439 299.491 297.039 304.226 294.298C309.729 291.108 314.667 294.074 314.678 300.249C314.699 305.7 310.988 312.121 306.242 314.863C300.792 318.02 295.833 315.14 295.811 308.879ZM306.199 297.711C302.69 299.737 299.747 304.847 299.757 308.868C299.768 312.175 301.56 313.017 304.269 311.449C307.778 309.412 310.743 304.292 310.732 300.26C310.732 297.018 308.951 296.111 306.199 297.711Z" fill="#D9F1FF"/>
<path d="M277.961 294.084C277.63 294.084 277.289 293.999 276.969 293.817C276.019 293.273 275.7 292.068 276.243 291.119C283.645 278.298 293.542 267.866 304.122 261.765C315.076 255.429 325.464 254.448 333.345 258.981C334.294 259.525 334.614 260.73 334.07 261.68C333.527 262.629 332.3 262.938 331.372 262.405C324.76 258.608 315.78 259.589 306.085 265.178C296.102 270.949 286.717 280.858 279.656 293.092C279.304 293.732 278.643 294.084 277.961 294.084Z" fill="#D9F1FF"/>
</g>
<defs>
<clipPath id="clip0_0_5680">
<rect width="383" height="367" fill="white"/>
</clipPath>
</defs>
</svg>
