<svg width="173" height="367" viewBox="0 0 173 367" fill="none" xmlns="http://www.w3.org/2000/svg">
<g clip-path="url(#clip0_0_5608)">
<path d="M2.01284 342.343C10.1765 392.976 176.055 350.487 170.987 298.188C171.294 274.491 170.783 250.6 168.627 229.397C167.697 220.241 166.461 211.586 164.857 203.666C160.77 183.566 154.282 168.177 144.289 161.31C106.025 157.233 53.5287 186.949 17.3184 220.241C1.81871 233.321 1.19545 281.583 2.01284 342.343Z" fill="#285599"/>
<path d="M46.5808 367C19.607 367 2.67691 358.386 0.143013 342.649L0.112361 341.883L-2.96038e-05 331.991C-0.0102469 330.949 0.827575 330.09 1.86974 330.08C1.87996 330.08 1.87996 330.08 1.89018 330.08C2.93235 330.08 3.77017 330.918 3.78039 331.95L3.90299 342.312C7.12146 362.156 38.223 365.457 66.2696 361.85C117.08 355.289 171.856 326.749 169.107 298.362C169.148 294.172 169.179 290.177 169.179 286.192L168.555 255.291C168.208 247.289 167.697 239.636 167.033 232.575C166.941 231.532 167.697 230.613 168.739 230.511C169.833 230.429 170.701 231.175 170.803 232.217C171.467 239.35 171.978 247.065 172.336 255.178L172.959 286.161C172.959 290.197 172.928 294.203 172.877 298.209C175.912 329.385 119.39 358.815 66.7499 365.61C59.5364 366.54 52.793 367 46.5808 367Z" fill="#42BBFF"/>
<path d="M53.5389 189.902C39.96 198.721 27.1271 208.643 16.0923 218.79C6.49824 226.893 1.63479 247.474 0.316753 285.507C0.286101 286.549 1.10349 287.428 2.14566 287.469H2.21718C3.22869 287.469 4.06652 286.662 4.10739 285.64C4.89412 262.75 7.25433 231.206 18.6058 221.621C28.9764 212.087 40.9205 202.737 53.5491 194.337V189.902H53.5389Z" fill="#42BBFF"/>
<path d="M145.362 159.747C145.107 159.573 144.8 159.461 144.494 159.43C136.136 158.541 127.124 159.308 117.806 161.259V165.061C126.818 163.129 135.533 162.332 143.615 163.15C152.616 169.628 159.339 184.364 163.58 206.947C163.774 207.979 164.816 208.643 165.787 208.459C166.818 208.265 167.493 207.274 167.299 206.252C162.732 181.962 155.559 166.757 145.362 159.747Z" fill="#42BBFF"/>
<path d="M123.18 238.44C122.577 236.56 122.823 234.557 123.803 232.83C125.07 230.603 125.438 227.946 126.266 224.748L108.048 215.009L99.5475 233.219C103.287 236.1 107.302 237.848 111.584 238.553C118.235 240.821 123.262 272.775 119.655 321.752L127.308 331.879L134.961 317.941C134.603 289.595 131.129 263.077 123.18 238.44Z" fill="#061C4B"/>
<path d="M58.9642 181.574L62.4586 165.265L115.844 163.078C122.792 180.992 115.599 200.56 108.048 215.019L72.6555 215.52L59.3729 191.568L58.9642 181.574Z" fill="#061C4B"/>
<path d="M58.9642 181.574C58.9642 181.574 50.5349 189.524 53.2322 202.829C54.6933 210.043 59.3116 216.235 65.4828 220.261C75.2302 226.617 86.8064 230.654 99.5474 233.219L108.048 215.009C82.7604 210.503 64.4815 200.785 58.9642 181.574Z" fill="#061C4B"/>
<path d="M117.377 151.828L117.407 167.411C117.397 171.774 114.526 176.138 108.794 179.469C97.2486 186.183 78.459 186.193 66.8214 179.469C60.9771 176.097 58.0651 171.672 58.0754 167.248L58.0447 151.664C58.0345 156.089 60.9464 160.514 66.7907 163.886C78.4385 170.61 97.218 170.599 108.764 163.886C114.496 160.554 117.367 156.191 117.377 151.828Z" fill="#285599"/>
<path d="M108.6 139.586C120.248 146.31 120.309 157.182 108.763 163.886C97.2179 170.599 78.4282 170.61 66.7906 163.886C55.1735 157.172 55.1327 146.289 66.6783 139.586C78.2136 132.872 96.9829 132.872 108.6 139.586Z" fill="#061C4B"/>
<path d="M153.751 59.6562C149.888 29.6545 125.387 5.6613 95.3176 2.31983C55.1123 -2.13547 21.0784 29.1845 21.0784 68.4851C21.0784 90.5265 31.7861 110.054 48.2871 122.153C56.6551 128.294 62.3258 137.164 65.0232 147.015C65.0232 165.899 110.439 165.899 110.439 147.015C113.269 137.031 119.226 128.09 127.717 121.714C139.283 113.028 147.927 100.653 151.901 86.3369" fill="#061C4B"/>
<path d="M50.6474 32.6384C45.4162 37.8295 41.1658 44.0117 38.1925 50.8684L50.6474 32.6384Z" fill="#061C4B"/>
<path d="M38.1925 52.7689C37.937 52.7689 37.6816 52.7178 37.4466 52.6156C36.4862 52.1967 36.0468 51.0828 36.4555 50.1325C39.5105 43.0715 43.8426 36.736 49.3191 31.3099C50.0548 30.5742 51.2502 30.5844 51.9961 31.3201C52.7317 32.0559 52.7215 33.2514 51.9859 33.9974C46.8465 39.0862 42.7903 45.0232 39.9294 51.6346C39.6229 52.3397 38.9281 52.7689 38.1925 52.7689Z" fill="#42BBFF"/>
<path d="M91.4758 15.7981C79.92 15.7981 69.151 19.1907 60.0984 25.0255L91.4758 15.7981Z" fill="#061C4B"/>
<path d="M60.1086 26.9262C59.4854 26.9262 58.8826 26.6196 58.525 26.0576C57.9528 25.1788 58.2082 24.0037 59.0869 23.4416C68.7525 17.1981 79.9609 13.9077 91.4861 13.9077C92.5283 13.9077 93.3763 14.7559 93.3763 15.7982C93.3763 16.8404 92.5283 17.6886 91.4861 17.6886C80.6761 17.6886 70.1829 20.7746 61.1406 26.6196C60.8136 26.8342 60.456 26.9262 60.1086 26.9262Z" fill="#42BBFF"/>
<path d="M80.2776 151.398C79.2354 151.398 78.3874 150.561 78.3874 149.518C78.3874 148.997 78.0502 97.5875 67.0257 84.7223C66.4433 84.0478 66.4127 83.0566 66.9542 82.3413C67.4957 81.626 68.4664 81.391 69.2633 81.7793C74.8113 84.4157 80.0733 84.8755 84.9061 83.1384C92.1297 80.5531 98.7097 73.0629 104.462 60.8721C104.901 59.9525 105.954 59.5539 106.904 59.932C107.834 60.3203 108.304 61.3728 107.956 62.3232C107.824 62.7012 94.1528 100.97 98.8834 141.231C99.006 142.273 98.2601 143.203 97.2282 143.336C96.1349 143.448 95.246 142.713 95.1234 141.681C92.0786 115.715 96.5027 90.5877 100.222 75.4642C95.9101 81.1355 91.2204 84.9062 86.1832 86.7047C81.9941 88.217 77.57 88.3703 72.9927 87.1747C81.8817 105.476 82.1576 147.546 82.1678 149.508C82.1678 150.55 81.33 151.398 80.2776 151.398Z" fill="#D9F1FF"/>
<path d="M129.668 192.498C130.986 203.319 129.985 214.079 126.266 224.758L108.028 215.05C108.007 214.467 117.571 190.576 118.613 176.26L129.668 192.498Z" fill="#061C4B"/>
<path d="M124.978 237.858C124.549 236.509 124.713 235.058 125.448 233.76C126.532 231.849 127.032 229.714 127.553 227.455C127.717 226.74 127.89 226.004 128.095 225.228C128.095 225.218 128.095 225.218 128.095 225.207C131.753 214.631 132.917 203.554 131.538 192.263C131.497 191.966 131.395 191.68 131.221 191.425L120.33 175.422C120.084 171.386 119.492 167.227 117.612 162.404C117.305 161.648 116.549 161.116 115.793 161.198H115.487V167.401C115.487 167.626 115.487 167.779 115.415 168.004C116.304 171.447 116.498 173.849 116.61 176.935C115.558 188.257 109.489 205.22 107.159 211.709C106.996 212.168 106.884 212.465 106.771 212.802C80.7987 207.856 65.7588 197.597 60.926 181.441L61.631 177.998L62.5403 173.757C61.0997 172.02 60.1188 170.048 59.9655 167.851L57.1966 180.675C55.3677 182.637 48.8491 190.689 51.3728 203.197C52.8645 210.605 57.636 217.4 64.451 221.845C73.6874 227.864 84.9367 232.156 98.771 234.976C102.582 237.838 106.771 239.677 110.96 240.341C115.18 241.782 121.719 267.849 117.755 321.609C117.724 322.069 117.857 322.529 118.133 322.887L125.786 333.013C126.143 333.483 126.705 333.759 127.298 333.759C127.339 333.759 127.39 333.759 127.431 333.759C128.074 333.708 128.646 333.351 128.953 332.788L136.606 318.85C136.759 318.564 136.841 318.237 136.841 317.92C136.473 287.643 132.59 261.463 124.978 237.858ZM119.87 181.462L127.85 193.182C128.994 203.043 128.095 212.741 125.183 222.029L110.337 214.09C110.449 213.773 110.582 213.405 110.736 212.996C112.84 207.131 117.959 192.855 119.87 181.462ZM58.2592 185.437C64.3181 201.265 79.7565 211.433 105.3 216.43L99.4351 228.988L98.4645 231.073C85.5804 228.344 75.1179 224.288 66.5149 218.688C54.1621 210.625 51.383 195.665 58.2592 185.437ZM127.053 328.405L121.586 321.17C124.907 275.207 120.973 239.748 111.88 236.683C108.345 236.1 105.004 234.731 101.918 232.606L108.907 217.646L124.079 225.729C124.008 226.025 123.936 226.311 123.875 226.597C123.395 228.671 122.976 230.46 122.169 231.901C120.902 234.128 120.626 236.662 121.392 239.023C128.841 262.127 132.662 287.796 133.071 317.471L127.053 328.405Z" fill="#D9F1FF"/>
<path d="M99.2308 165.664C93.1821 167.258 86.5204 167.401 80.3185 166.42C80.3185 166.42 80.2469 166.42 80.1652 166.42L68.5174 166.951C72.0731 168.545 76.3848 169.823 81.6774 170.436C82.4334 170.507 83.1895 170.507 83.8741 170.589C91.7414 171.192 102.94 169.833 110.429 165.214L99.2308 165.664ZM95.5219 0.419103C75.782 -1.69614 56.7164 4.2715 41.9626 17.4432C27.5152 30.4515 19.1881 49.0697 19.1881 68.5157C19.1881 90.2301 29.6302 110.81 47.1836 123.676C53.314 128.213 57.922 134.272 61.0281 141.456C57.8505 144.409 56.1851 147.883 56.1851 151.593C56.1851 151.593 56.1851 151.664 56.1851 151.746V167.258C56.1851 169.986 57.0944 172.398 58.5351 174.523C59.3627 175.811 60.4253 177.016 61.6412 178.008C64.3692 180.501 67.6898 182.32 71.1739 183.536C83.6595 188.155 99.4658 187.02 109.755 181.114C112.707 179.448 114.976 177.405 116.559 175.208C118.296 172.939 119.206 170.446 119.287 167.789V151.828C119.287 148.118 117.622 144.562 114.444 141.609C117.622 134.344 122.465 128.069 128.82 123.226C140.846 114.223 149.704 101.287 153.71 86.8376C154.016 85.8566 153.403 84.7939 152.422 84.569C151.36 84.2625 150.379 84.8756 150.072 85.8566C146.292 99.4779 137.965 111.658 126.542 120.211C117.837 126.792 111.635 135.876 108.61 146.545C108.539 146.698 108.539 146.851 108.539 147.076C108.539 163.119 66.9337 163.119 66.9337 147.076C66.9337 146.851 66.8622 146.698 66.8622 146.545C63.9094 135.805 57.8607 126.874 49.3906 120.671C32.818 108.491 22.989 89.0448 22.989 68.5361C22.989 50.1529 30.8563 32.5974 44.5475 20.3351C58.4533 7.83779 76.3848 2.08473 95.1438 4.19998C124.273 7.44948 148.1 30.8296 151.881 59.8912C152.034 60.9539 152.943 61.6283 153.996 61.5568C154.977 61.4035 155.733 60.4226 155.579 59.4416C151.656 28.6428 126.388 3.89342 95.5219 0.419103ZM107.854 177.844C99.1592 182.841 86.2139 183.894 75.7002 181.022C71.0105 179.735 65.7179 177.313 62.5403 173.757C61.0996 172.02 60.1188 170.047 59.9655 167.85V160.892C60.7931 161.719 61.7025 162.557 62.7651 163.385C64.4305 164.672 66.3207 165.878 68.5174 166.941C72.0731 168.535 76.3848 169.812 81.6774 170.425C82.4334 170.497 83.1895 170.497 83.8741 170.579C91.7414 171.182 102.94 169.823 110.429 165.204C112.319 164.07 113.985 162.782 115.19 161.198C115.343 161.127 115.415 160.973 115.497 160.892V167.401C115.497 167.626 115.497 167.779 115.425 168.004C115.2 171.641 112.544 175.126 107.854 177.844ZM63.1431 147.28C63.2964 156.211 71.9913 161.198 81.6774 162.639C83.6391 162.945 85.6826 163.089 87.726 163.089C90.9036 163.089 94.1527 162.71 97.1873 161.954C105.433 159.982 112.166 155.149 112.319 147.28C112.472 146.678 112.769 146.146 113.004 145.615C114.669 147.587 115.497 149.62 115.497 151.817C115.497 155.374 113.229 158.776 108.988 161.505C108.61 161.811 108.232 162.036 107.772 162.261C105.198 163.773 102.327 164.907 99.2205 165.664C93.1719 167.258 86.5102 167.401 80.3082 166.42C80.3082 166.42 80.2367 166.42 80.155 166.42C76.2213 165.735 72.5124 164.601 69.3348 163.089C63.7357 160.36 59.9553 156.426 59.9553 151.664C59.9553 151.593 59.9553 151.593 59.9553 151.511C59.9553 149.467 60.8646 147.352 62.4483 145.462C62.6935 146.064 62.9183 146.667 63.1431 147.28ZM99.2308 165.664C93.1821 167.258 86.5204 167.401 80.3185 166.42C80.3185 166.42 80.2469 166.42 80.1652 166.42L68.5174 166.951C72.0731 168.545 76.3848 169.823 81.6774 170.436C82.4334 170.507 83.1895 170.507 83.8741 170.589C91.7414 171.192 102.94 169.833 110.429 165.214L99.2308 165.664Z" fill="#42BBFF"/>
</g>
<defs>
<clipPath id="clip0_0_5608">
<rect width="173" height="367" fill="white"/>
</clipPath>
</defs>
</svg>
