<svg width="416" height="442" viewBox="0 0 416 442" fill="none" xmlns="http://www.w3.org/2000/svg">
<g clip-path="url(#clip0_377_34964)">
<path d="M19.3176 166.786L19.7226 309.785C19.7471 315.848 21.8825 320.106 25.3311 322.094L8.28463 312.191C4.83606 310.19 2.70065 305.932 2.67611 299.881L2.27111 156.882C2.2343 144.696 10.8128 129.846 21.4039 123.722L226.182 5.48922C231.521 2.40882 236.356 2.12656 239.854 4.15152L256.9 14.0554C253.415 12.0304 248.567 12.3127 243.229 15.3931L38.4626 133.614" fill="#1A2F66"/>
<path d="M262.791 129.368L262.901 169.364C262.938 181.55 254.36 196.4 243.756 202.524L38.9899 320.757C28.3865 326.881 19.7589 321.96 19.7221 309.773L19.3171 166.774C19.3171 151.2 28.8406 138.584 38.4622 133.614L243.228 15.3932C253.832 9.26922 262.459 14.1905 262.496 26.3771L262.631 72.6811" fill="#285599"/>
<path d="M35.0869 166.737C35.0623 160.208 40.6463 150.574 46.3407 147.285L233.03 39.4959C239.129 35.9737 246.762 40.3672 246.775 47.4116L247.118 169.425C247.143 175.954 241.559 185.587 235.865 188.876L49.1879 296.653C43.0885 300.176 35.455 295.782 35.4428 288.738L35.0869 166.737Z" fill="#285599"/>
<path d="M60.3813 374.976L39.064 362.581C33.8237 359.538 31.2096 355.561 31.1973 351.573L31.136 331.851C31.1483 335.84 33.7746 339.816 39.0149 342.859L162.648 414.715C173.19 420.851 190.322 420.851 200.938 414.715L405.716 296.494C411.043 293.426 413.706 289.388 413.706 285.351L413.755 305.048C413.779 309.086 411.104 313.135 405.766 316.216L200.999 434.437C190.384 440.573 173.251 440.561 162.709 434.437L89.0621 391.642" fill="#1A2F66"/>
<path d="M364.235 250.166L282.181 202.475C271.639 196.351 254.494 196.351 243.891 202.475L39.1123 320.696C28.5089 326.82 28.4598 336.748 38.9896 342.872L162.622 414.715C173.165 420.839 190.297 420.839 200.9 414.715L405.666 296.494C416.27 290.37 416.331 280.442 405.789 274.318L393.173 266.979" fill="#285599"/>
<path d="M243.327 37.5205C239.755 35.4587 235.497 35.4587 231.901 37.5205L45.2122 145.31C38.8182 148.991 32.7924 159.411 32.817 166.737L33.1606 288.75C33.1729 292.874 35.3083 296.568 38.8918 298.63C40.6714 299.66 42.6349 300.176 44.5985 300.176C46.5744 300.176 48.5257 299.66 50.3175 298.617L237.006 190.828C243.4 187.146 249.426 176.727 249.402 169.4L249.058 47.3875C249.046 43.2762 246.898 39.5822 243.327 37.5205ZM234.736 186.901L48.0594 294.69C45.8994 295.93 43.3222 295.942 41.1623 294.69C39.0023 293.451 37.7137 291.229 37.7137 288.738L37.3701 166.725C37.3578 160.957 42.4631 152.145 47.4948 149.237L234.184 41.4476C236.331 40.2081 238.909 40.2081 241.069 41.4476C243.228 42.6872 244.517 44.9208 244.517 47.3998L244.861 169.413C244.873 175.181 239.768 184.005 234.736 186.901Z" fill="#42BBFF"/>
<path d="M415.951 285.351C415.951 285.338 415.939 285.338 415.939 285.338C415.927 280.344 412.748 275.729 406.955 272.366L394.339 265.028C393.235 264.402 391.86 264.758 391.234 265.85C390.608 266.93 390.964 268.329 392.057 268.955L404.673 276.294C409.017 278.822 411.41 282.037 411.41 285.363C411.41 286.75 410.907 288.1 410.109 289.401C408.968 291.266 407.152 293.033 404.55 294.543L199.784 412.764C189.831 418.507 173.668 418.519 163.776 412.764C132.015 394.306 71.1314 358.924 40.1435 340.908C31.1232 335.68 31.1477 327.936 40.2539 322.671L245.02 204.451C254.998 198.707 271.148 198.695 281.028 204.451L363.094 252.141C364.174 252.767 365.573 252.399 366.199 251.319C366.824 250.239 366.468 248.84 365.376 248.214L283.31 200.523C275.419 195.946 264.042 194.669 254.065 196.559C260.643 188.877 265.184 178.445 265.172 169.376L265.061 129.38C265.061 128.128 264.042 127.109 262.791 127.109C262.791 127.109 262.791 127.109 262.778 127.109C261.527 127.109 260.52 128.14 260.52 129.38L260.631 169.376C260.655 180.826 252.568 194.817 242.615 200.56L37.8608 318.793C28.6564 324.07 22.0293 320.106 21.9925 309.773L21.5875 166.786C21.5875 151.74 30.8655 140.094 39.5912 135.59L244.357 17.369C248.788 14.8041 252.838 14.3377 255.734 16.0191C258.606 17.6758 260.201 21.3576 260.213 26.377L260.348 72.6811C260.348 73.9329 261.367 74.9515 262.619 74.9515C262.619 74.9515 262.619 74.9515 262.631 74.9515C263.883 74.9515 264.889 73.9206 264.889 72.6811L264.754 26.377C264.742 19.7008 262.349 14.6568 258.053 12.1287C258.041 12.1164 258.041 12.1041 258.029 12.0919L240.982 2.18798C236.577 -0.364695 230.919 0.113932 225.028 3.52568L20.2743 121.746C9.05728 128.239 -0.0488923 143.996 0.000197548 156.882L0.405189 299.881C0.429734 306.582 2.82287 311.651 7.14278 314.154L24.1892 324.058C24.2015 324.07 24.2138 324.083 24.2261 324.083C26.0792 325.15 28.1532 325.678 30.3746 325.678C30.4973 325.678 30.62 325.629 30.7427 325.617C29.5891 327.568 28.8773 329.642 28.8651 331.814C28.8651 331.827 28.8651 331.839 28.8651 331.851V331.863L28.9264 351.573C28.9387 356.58 32.1295 361.182 37.9099 364.545L59.2394 376.928C60.3194 377.554 61.7185 377.198 62.3444 376.106C62.9703 375.026 62.6144 373.627 61.5221 373.001L40.1925 360.618C35.8481 358.102 33.4672 354.887 33.455 351.561L33.4181 341.559C33.504 341.632 33.6268 341.694 33.7127 341.78C34.9031 342.872 36.2531 343.915 37.8485 344.835C68.8856 362.876 129.733 398.233 161.469 416.678C161.469 416.678 161.469 416.678 161.481 416.678C161.715 416.813 161.972 416.899 162.205 417.022C174.245 423.576 191.402 422.827 202.042 416.678L338.549 337.865L406.808 298.458C406.857 298.433 406.894 298.384 406.943 298.36C408.526 297.439 409.876 296.408 411.054 295.316C411.165 295.218 411.324 295.144 411.423 295.046L411.447 305.048C411.459 308.411 409.029 311.675 404.587 314.24L199.833 432.461C189.855 438.217 173.705 438.204 163.825 432.461L90.1661 389.667C89.0615 389.041 87.687 389.397 87.0611 390.489C86.4352 391.569 86.7911 392.968 87.8834 393.594L161.543 436.388C172.895 442.966 190.69 442.991 202.103 436.388L406.857 318.167C412.773 314.756 416.012 310.092 415.988 305.024L415.951 285.351ZM9.41318 310.215C6.5537 308.558 4.95828 304.876 4.946 299.869L4.54101 156.87C4.49192 145.432 12.5795 131.442 22.5447 125.674L227.323 7.45287C231.766 4.88792 235.816 4.42157 238.712 6.11517L247.364 11.1346C247.229 11.1714 247.094 11.2696 246.959 11.3064C245.364 11.7973 243.744 12.46 242.087 13.4173L37.3208 131.65C37.3208 131.65 37.3208 131.663 37.3085 131.663C27.5274 136.768 17.0467 149.887 17.0467 166.786L17.4517 309.785C17.4517 309.798 17.4517 309.798 17.4517 309.81C17.4639 311.638 17.6726 313.32 18.0285 314.891C18.053 315.001 18.0407 315.148 18.0653 315.259L9.41318 310.215Z" fill="#42BBFF"/>
<path d="M305.303 333.949L329.958 319.713L296.675 300.372L207.773 351.707L241.044 371.036L285.9 345.154" fill="#285599"/>
<path d="M143.049 309.024L169.533 324.414L196.189 309.024L169.705 293.635L143.049 309.024Z" fill="#1A2F66"/>
<path d="M116.564 293.623L143.048 309.025L169.704 293.635L143.22 278.233L116.564 293.623Z" fill="#1A2F66"/>
<path d="M89.9093 309.025L116.393 324.414L143.049 309.025L116.565 293.623L89.9093 309.025Z" fill="#1A2F66"/>
<path d="M169.705 293.635L196.189 309.025L222.845 293.635L196.361 278.233L169.705 293.635Z" fill="#1A2F66"/>
<path d="M196.36 278.233L222.844 293.635L249.5 278.245L223.016 262.843L196.36 278.233Z" fill="#1A2F66"/>
<path d="M169.877 262.843L196.361 278.233L223.017 262.843L196.533 247.454L169.877 262.843Z" fill="#1A2F66"/>
<path d="M143.22 278.233L169.704 293.635L196.36 278.233L169.876 262.843L143.22 278.233Z" fill="#1A2F66"/>
<path d="M249.5 278.245L275.984 293.635L302.64 278.245L276.156 262.843L249.5 278.245Z" fill="#1A2F66"/>
<path d="M142.877 339.804L169.361 355.194L196.017 339.804L249.329 309.024L275.984 293.635L249.5 278.245L222.845 293.635L196.189 309.024L169.533 324.414L142.877 339.804Z" fill="#1A2F66"/>
<path d="M116.393 324.415L142.877 339.804L169.533 324.415L143.049 309.025L116.393 324.415Z" fill="#1A2F66"/>
<path d="M116.245 355.168L142.729 370.558L169.361 355.193L142.877 339.803L116.245 355.168Z" fill="#1A2F66"/>
<path d="M89.7621 339.78L116.246 355.169L142.877 339.804L116.393 324.415L89.7621 339.78Z" fill="#1A2F66"/>
<path d="M63.2776 324.39L89.7616 339.78L116.393 324.415L89.9089 309.025L63.2776 324.39Z" fill="#1A2F66"/>
<path d="M223.016 262.843L249.5 278.245L276.156 262.843L249.672 247.454L223.016 262.843Z" fill="#1A2F66"/>
<path d="M196.532 247.453L223.016 262.843L249.672 247.453L223.188 232.063L196.532 247.453Z" fill="#1A2F66"/>
<path d="M276.07 262.843L302.554 278.245L329.21 262.843L302.726 247.454L276.07 262.843Z" fill="#1A2F66"/>
<path d="M249.586 247.453L276.07 262.843L302.726 247.453L276.242 232.063L249.586 247.453Z" fill="#1A2F66"/>
<path d="M223.103 232.064L249.587 247.453L276.242 232.064L249.758 216.674L223.103 232.064Z" fill="#1A2F66"/>
<path d="M141.219 191.675C146.472 188.644 150.755 191.074 150.767 197.088C150.78 203.126 146.533 210.477 141.281 213.52C136.028 216.552 131.782 214.109 131.757 208.059C131.745 202.046 135.967 194.707 141.219 191.675Z" fill="#1A2F66"/>
<path d="M331.099 317.75L297.817 298.408C297.105 298.003 296.246 298.003 295.534 298.408L206.632 349.744C205.933 350.149 205.491 350.898 205.491 351.708C205.491 352.518 205.92 353.266 206.62 353.683L239.89 373.025C240.246 373.233 240.639 373.332 241.032 373.332C241.425 373.332 241.817 373.233 242.173 373.025L287.017 347.13C288.097 346.504 288.477 345.117 287.851 344.025C287.201 342.933 285.814 342.565 284.746 343.19L241.032 368.423L212.314 351.708L296.675 302.998L325.417 319.701L304.161 331.973C303.081 332.599 302.701 333.986 303.327 335.078C303.953 336.171 305.364 336.527 306.432 335.913L331.087 321.677C331.787 321.272 332.229 320.523 332.229 319.713C332.229 318.903 331.799 318.155 331.099 317.75Z" fill="#8ED6FF"/>
<path d="M330.351 264.819C331.05 264.414 331.492 263.666 331.492 262.856C331.492 262.046 331.063 261.297 330.363 260.88C329.443 260.34 274.597 228.468 277.395 230.101L250.911 214.711C250.199 214.306 249.34 214.306 248.628 214.711C150.633 271.348 61.1787 322.991 62.1482 322.426C61.4486 322.831 61.0068 323.58 61.0068 324.39C61.0068 325.2 61.4364 325.949 62.1359 326.366C63.0686 326.906 142.545 373.087 141.588 372.535C141.944 372.744 142.337 372.842 142.729 372.842C143.122 372.842 143.515 372.744 143.871 372.535C144.779 372.007 331.271 264.279 330.351 264.819ZM169.36 352.555L147.405 339.792C179.264 321.408 217.346 299.416 249.5 280.86L271.443 293.611L169.36 352.555ZM116.564 296.262L138.507 309.013L116.393 321.776L94.4493 309.025L116.564 296.262ZM143.22 280.872L165.176 293.635L143.061 306.399L121.105 293.635L143.22 280.872ZM169.876 265.47L191.831 278.233L169.716 290.997L147.761 278.233L169.876 265.47ZM196.532 250.093C197.796 250.829 219.874 263.666 218.487 262.856L196.372 275.619L174.417 262.856L196.532 250.093ZM200.901 278.246L223.016 265.482L244.971 278.233L222.856 290.997C221.592 290.273 199.502 277.436 200.901 278.246ZM227.544 262.856L249.622 250.117L271.578 262.88L249.5 275.619L227.544 262.856ZM218.303 293.623L196.188 306.386L174.245 293.635L196.36 280.872L218.303 293.623ZM147.589 309.025L169.704 296.262L191.647 309.013L169.532 321.776L147.589 309.025ZM143.048 311.651L164.992 324.402L142.876 337.166L120.933 324.415L143.048 311.651ZM254.041 278.246L276.106 265.507L298.05 278.258L275.971 290.997L254.041 278.246ZM302.603 275.582L280.66 262.831L302.738 250.093L324.681 262.844L302.603 275.582ZM276.119 260.193L254.163 247.442L276.241 234.691L298.197 247.454L276.119 260.193ZM249.757 219.301L271.701 232.052L249.635 244.791L227.679 232.027L249.757 219.301ZM223.138 234.727L245.094 247.478L223.016 260.217C221.752 259.481 199.673 246.644 201.073 247.454L223.138 234.727ZM89.9085 311.651L111.852 324.402L89.7612 337.153L67.8181 324.402L89.9085 311.651ZM116.393 327.041L138.336 339.792L116.245 352.543L94.2898 339.792L116.393 327.041ZM142.729 367.933L120.786 355.169L142.864 342.418L164.82 355.182L142.729 367.933Z" fill="#8ED6FF"/>
<path d="M162.512 169.695C163.592 170.309 164.991 169.928 165.605 168.848C166.231 167.756 165.851 166.369 164.758 165.743C158.008 161.902 149.234 162.724 140.017 168.05C131.193 173.143 122.921 181.832 116.736 192.522C116.11 193.602 116.478 195.001 117.571 195.627C118.626 196.24 120.025 195.909 120.676 194.792C126.456 184.778 134.138 176.678 142.287 171.978C150.056 167.51 157.235 166.688 162.512 169.695Z" fill="#8ED6FF"/>
<path d="M140.091 189.711C134.126 193.148 129.475 201.211 129.5 208.071C129.512 215.815 135.587 219.423 142.435 215.484C148.411 212.035 153.075 203.947 153.063 197.075C153.026 189.257 146.804 185.784 140.091 189.711ZM140.152 211.544C136.483 213.68 134.053 212.391 134.04 208.046C134.028 202.855 137.833 196.253 142.361 193.639C146.006 191.528 148.485 192.73 148.497 197.087C148.522 202.303 144.693 208.918 140.152 211.544Z" fill="#8ED6FF"/>
<path d="M177.767 147.838C178.393 146.746 178.012 145.359 176.932 144.733C166.955 139.002 153.823 140.253 139.955 148.28C126.517 156.036 113.95 169.278 104.537 185.576C103.911 186.668 104.291 188.055 105.371 188.681C106.427 189.294 107.826 188.963 108.476 187.846C117.484 172.223 129.474 159.57 142.226 152.207C154.645 145.04 166.145 143.8 174.662 148.672C175.742 149.286 177.128 148.942 177.767 147.838Z" fill="#8ED6FF"/>
<path d="M96.2409 180.887C108.501 159.656 124.811 142.45 142.177 132.423C159.162 122.618 175.006 120.912 186.836 127.637C187.916 128.251 189.303 127.883 189.941 126.79C190.555 125.698 190.174 124.311 189.094 123.698C175.816 116.162 158.352 117.844 139.919 128.508C121.866 138.928 104.967 156.723 92.3138 178.629C91.6879 179.721 92.0683 181.108 93.1483 181.734C94.1914 182.335 95.5905 181.992 96.2409 180.887Z" fill="#8ED6FF"/>
</g>
<defs>
<clipPath id="clip0_377_34964">
<rect width="416" height="440.778" fill="white" transform="translate(0 0.567383)"/>
</clipPath>
</defs>
</svg>
