<svg width="414" height="439" viewBox="0 0 414 439" fill="none" xmlns="http://www.w3.org/2000/svg">
<g clip-path="url(#clip0_377_34887)">
<path d="M19.2239 165.407L19.6269 307.718C19.6514 313.752 21.7765 317.99 25.2085 319.968L8.244 310.112C4.81201 308.121 2.68687 303.883 2.66244 297.862L2.25939 155.551C2.22275 143.423 10.76 128.644 21.3002 122.55L225.094 4.89746C230.407 1.83188 235.219 1.55097 238.7 3.56619L255.664 13.4225C252.196 11.4072 247.372 11.6882 242.059 14.7537L38.2647 132.406" fill="#1A2F66"/>
<path d="M261.527 128.18L261.637 167.984C261.674 180.112 253.137 194.89 242.584 200.985L38.8024 318.649C28.25 324.744 19.6639 319.846 19.6273 307.718L19.2242 165.407C19.2242 149.908 28.7019 137.352 38.2773 132.406L242.059 14.7536C252.611 8.65905 261.197 13.5567 261.234 25.6846L261.368 71.766" fill="#285599"/>
<path d="M34.9188 165.369C34.8944 158.872 40.4515 149.284 46.1185 146.011L231.91 38.7399C237.98 35.2347 245.577 39.6071 245.589 46.6176L245.931 168.044C245.955 174.541 240.398 184.129 234.731 187.402L48.9521 294.661C42.882 298.166 35.2852 293.794 35.273 286.783L34.9188 165.369Z" fill="#285599"/>
<path d="M60.0904 372.609L38.8756 360.273C33.6605 357.244 31.059 353.287 31.0468 349.317L30.9857 329.69C30.9979 333.66 33.6116 337.617 38.8268 340.646L161.865 412.156C172.357 418.262 189.407 418.262 199.971 412.156L403.765 294.503C409.066 291.45 411.716 287.432 411.716 283.414L411.765 303.016C411.79 307.034 409.127 311.065 403.814 314.13L200.032 431.783C189.468 437.89 172.418 437.877 161.926 431.783L88.6333 389.182" fill="#1A2F66"/>
<path d="M362.484 248.398L280.812 200.936C270.321 194.842 253.259 194.842 242.706 200.936L38.9245 318.588C28.372 324.683 28.3232 334.564 38.8024 340.658L161.841 412.156C172.332 418.25 189.382 418.25 199.947 412.156L403.729 294.504C414.281 288.409 414.342 278.528 403.851 272.434L391.295 265.13" fill="#285599"/>
<path d="M303.822 331.767L328.359 317.612L295.248 298.363L206.774 349.452L239.885 368.688L284.513 342.918" fill="#285599"/>
<path d="M142.361 306.961L168.718 322.276L195.245 306.961L168.888 291.645L142.361 306.961Z" fill="#1A2F66"/>
<path d="M116.004 291.645L142.361 306.961L168.888 291.645L142.532 276.33L116.004 291.645Z" fill="#1A2F66"/>
<path d="M89.4757 306.961L115.832 322.276L142.36 306.961L116.003 291.645L89.4757 306.961Z" fill="#1A2F66"/>
<path d="M168.889 291.645L195.246 306.961L221.773 291.645L195.417 276.33L168.889 291.645Z" fill="#1A2F66"/>
<path d="M195.417 276.329L221.774 291.645L248.301 276.329L221.945 261.014L195.417 276.329Z" fill="#1A2F66"/>
<path d="M169.059 261.013L195.416 276.329L221.944 261.013L195.587 245.698L169.059 261.013Z" fill="#1A2F66"/>
<path d="M142.532 276.329L168.889 291.645L195.417 276.329L169.06 261.014L142.532 276.329Z" fill="#1A2F66"/>
<path d="M248.299 276.329L274.655 291.645L301.183 276.329L274.826 261.014L248.299 276.329Z" fill="#1A2F66"/>
<path d="M142.189 337.592L168.546 352.908L195.074 337.592L248.129 306.961L274.657 291.645L248.3 276.33L221.772 291.645L195.245 306.961L168.717 322.277L142.189 337.592Z" fill="#1A2F66"/>
<path d="M115.832 322.276L142.189 337.592L168.717 322.276L142.36 306.96L115.832 322.276Z" fill="#1A2F66"/>
<path d="M115.686 352.896L142.043 368.211L168.546 352.908L142.19 337.592L115.686 352.896Z" fill="#1A2F66"/>
<path d="M89.3296 337.58L115.686 352.896L142.189 337.592L115.833 322.276L89.3296 337.58Z" fill="#1A2F66"/>
<path d="M62.9728 322.264L89.3294 337.58L115.833 322.277L89.476 306.961L62.9728 322.264Z" fill="#1A2F66"/>
<path d="M221.942 261.013L248.299 276.329L274.826 261.013L248.47 245.698L221.942 261.013Z" fill="#1A2F66"/>
<path d="M195.585 245.698L221.942 261.014L248.47 245.698L222.113 230.382L195.585 245.698Z" fill="#1A2F66"/>
<path d="M274.744 261.013L301.101 276.329L327.628 261.013L301.272 245.698L274.744 261.013Z" fill="#1A2F66"/>
<path d="M248.387 245.698L274.744 261.014L301.272 245.698L274.915 230.382L248.387 245.698Z" fill="#1A2F66"/>
<path d="M222.031 230.382L248.387 245.698L274.915 230.382L248.558 215.066L222.031 230.382Z" fill="#1A2F66"/>
<path d="M201.632 97.5234L160.229 164.111L146.183 186.694L132.04 180.38L90.3555 161.766L201.632 97.5234Z" fill="#285599"/>
<path d="M90.3555 161.767L132.04 180.38L90.5875 246.993L90.3555 161.767Z" fill="#285599"/>
<path d="M160.229 164.112L201.865 182.75L90.5879 246.992L132.04 180.38L146.184 186.695L160.229 164.112Z" fill="#1A2F66"/>
<path d="M160.229 164.111L201.632 97.5234L201.864 182.749L160.229 164.111Z" fill="#285599"/>
<path d="M248.203 168.032L247.861 46.6061C247.849 42.5024 245.711 38.8261 242.157 36.7742C238.591 34.7224 234.34 34.7224 230.786 36.7742L44.995 144.045C38.6318 147.709 32.6349 158.078 32.6594 165.37L33.0014 286.796C33.0136 290.9 35.1509 294.576 38.705 296.628C40.476 297.654 42.4302 298.155 44.3843 298.155C46.3385 298.155 48.2926 297.642 50.0758 296.604L235.867 189.333C242.23 185.681 248.227 175.312 248.203 168.032ZM47.8163 292.708C45.6667 293.941 43.1141 293.953 40.9645 292.708C38.815 291.474 37.5326 289.251 37.5203 286.784L37.1784 165.358C37.1661 159.63 42.247 150.848 47.2545 147.953L233.046 40.6826C235.195 39.4368 237.76 39.4368 239.898 40.6826C242.047 41.9161 243.33 44.139 243.342 46.6061L243.684 168.032C243.696 173.761 238.615 182.542 233.608 185.437L47.8163 292.708Z" fill="#8ED6FF"/>
<path d="M329.495 315.644L296.384 296.396C295.7 295.993 294.821 295.993 294.125 296.396L205.651 347.485C204.954 347.888 204.515 348.633 204.515 349.439C204.515 350.245 204.942 350.99 205.638 351.405L238.749 370.653C239.103 370.861 239.494 370.959 239.885 370.959C240.276 370.959 240.667 370.861 241.021 370.653L285.649 344.883C286.736 344.26 287.102 342.88 286.479 341.793C285.856 340.706 284.464 340.327 283.389 340.963L239.897 366.073L211.293 349.451L295.261 300.976L323.865 317.598L302.711 329.812C301.624 330.435 301.258 331.815 301.88 332.902C302.503 333.976 303.871 334.343 304.97 333.732L329.507 319.564C330.203 319.161 330.643 318.416 330.643 317.61C330.631 316.804 330.191 316.059 329.495 315.644Z" fill="#8ED6FF"/>
<path d="M328.751 262.98C329.447 262.577 329.887 261.832 329.887 261.026C329.887 260.22 329.459 259.475 328.763 259.06C189.749 178.268 364.158 279.627 249.693 213.113C249.009 212.71 248.13 212.71 247.433 213.113L220.906 228.429C220.857 228.453 220.832 228.514 220.796 228.538C219.88 229.064 164.492 261.051 167.936 259.06C166.763 259.732 113.024 290.766 114.881 289.691C113.891 290.265 59.3826 321.727 61.8497 320.31C61.1536 320.714 60.7139 321.458 60.7139 322.265C60.7139 323.071 61.1413 323.816 61.8375 324.231C205.114 407.49 17.9179 298.705 140.908 370.178C141.262 370.386 141.653 370.483 142.043 370.483C142.434 370.483 142.825 370.386 143.179 370.178C189.566 343.369 287.872 286.589 328.751 262.98ZM168.547 350.295C166.531 349.122 145.402 336.847 146.697 337.593L248.288 278.931C250.304 280.104 271.433 292.378 270.138 291.633L168.547 350.295ZM195.587 248.312C196.906 249.081 218.817 261.82 217.437 261.014L195.416 273.716C194.097 272.947 172.186 260.208 173.566 261.014L195.587 248.312ZM274.914 232.996L296.764 245.698C295.848 246.224 273.399 259.194 274.792 258.388L252.942 245.686C253.846 245.161 276.33 232.178 274.914 232.996ZM270.273 261.038L248.301 273.716L226.451 261.026L248.423 248.349L270.273 261.038ZM199.923 276.342L221.932 263.64L243.782 276.33L221.773 289.044C219.758 287.859 198.641 275.585 199.923 276.342ZM164.199 322.277L142.19 334.979L120.34 322.289L142.349 309.575C144.376 310.747 165.493 323.022 164.199 322.277ZM190.726 306.961L168.718 319.675C166.702 318.503 145.573 306.228 146.868 306.973L168.876 294.271C171.405 295.725 191.911 307.645 190.726 306.961ZM195.404 278.943C197.419 280.116 218.549 292.39 217.254 291.645L195.245 304.347C192.729 302.882 172.15 290.937 173.395 291.658C174.311 291.132 196.833 278.125 195.404 278.943ZM115.992 294.259L137.842 306.949L115.833 319.663C114.514 318.894 92.6032 306.155 93.9834 306.961L115.992 294.259ZM252.82 276.342L274.792 263.664L296.641 276.354L274.669 289.044C272.642 287.859 251.525 275.585 252.82 276.342ZM301.148 273.692L279.298 261.002L301.27 248.312L323.12 261.002L301.148 273.692ZM248.557 217.681L270.407 230.37L248.435 243.048L226.585 230.346L248.557 217.681ZM222.066 233.021L243.916 245.723C243.012 246.248 220.515 259.231 221.944 258.4L200.094 245.698L222.066 233.021ZM169.06 263.628L190.909 276.33C190.006 276.855 167.472 289.862 168.901 289.044L147.051 276.342L169.06 263.628ZM142.532 278.943C144.547 280.116 165.676 292.39 164.382 291.645L142.373 304.347L120.511 291.658L142.532 278.943ZM89.4766 309.575L111.326 322.277C110.337 322.851 87.9133 335.797 89.3422 334.967L67.4923 322.265L89.4766 309.575ZM115.821 324.891L137.671 337.58L115.687 350.27L93.8368 337.58L115.821 324.891ZM142.043 365.598L120.193 352.896C121.183 352.322 143.607 339.376 142.178 340.206L164.028 352.908L142.043 365.598Z" fill="#8ED6FF"/>
<path d="M203.893 97.5232C203.893 97.4743 203.856 97.4499 203.856 97.401C203.844 97.169 203.722 96.9858 203.648 96.7781C203.551 96.5217 203.49 96.2774 203.319 96.082C203.282 96.0453 203.294 95.9965 203.257 95.9598C203.123 95.8133 202.928 95.8011 202.757 95.7034C202.574 95.5934 202.451 95.4102 202.244 95.3492C202.195 95.3369 202.146 95.3614 202.085 95.3614C201.841 95.3125 201.621 95.3614 201.377 95.398C201.12 95.4224 200.888 95.4347 200.656 95.5446C200.595 95.569 200.534 95.5446 200.485 95.5812L111.888 146.731C112.56 148.111 112.988 149.614 113.183 151.201L194.928 104.009L145.292 183.848C144.718 183.591 124.566 174.59 110.02 168.105C109.788 169.741 109.275 171.17 108.53 172.392L128.731 181.417L96.1698 233.752L92.8111 239.138L92.6645 189.71C91.2722 190.773 89.7455 191.555 88.1455 192.068L88.3043 247.028C88.3043 247.077 88.3409 247.102 88.3409 247.15C88.3531 247.382 88.4753 247.566 88.5486 247.773C88.6463 248.018 88.7073 248.274 88.8783 248.469C88.915 248.506 88.9027 248.555 88.9394 248.592C89.0249 248.689 89.1714 248.653 89.2691 248.738C89.489 248.909 89.66 249.117 89.9409 249.202C90.1485 249.263 90.3562 249.288 90.5638 249.288C90.9546 249.288 91.3332 249.178 91.6752 248.982C91.6752 248.982 91.6874 248.982 91.6996 248.982C144.498 218.498 204.149 183.982 203.074 184.678C203.697 184.275 204.112 183.555 204.1 182.785L203.893 97.5232ZM97.2812 240.518L104.475 228.952L132.908 183.262L145.256 188.77C146.233 189.197 147.588 188.721 148.101 187.891L161.109 166.981L196.906 183.005L97.2812 240.518ZM163.515 163.097L199.386 105.401L199.593 179.243L163.515 163.097Z" fill="#8ED6FF"/>
<path d="M91.6383 139.953C103.974 132.833 113.794 138.793 113.83 152.973C113.867 167.153 104.121 184.032 91.7849 191.152C79.4493 198.273 69.2388 192.911 69.2022 178.731C69.1533 164.563 79.2905 147.074 91.6383 139.953Z" fill="#1A2F66"/>
<path d="M413.951 283.413C413.951 283.401 413.939 283.401 413.939 283.401C413.927 278.418 410.764 273.838 404.987 270.491L392.431 263.188C391.356 262.553 389.964 262.919 389.341 264.006C388.718 265.081 389.085 266.473 390.159 267.096L402.715 274.4C411.948 279.762 411.301 287.529 402.593 292.561L198.799 410.214C188.784 415.991 172.674 415.868 162.965 410.214L39.9505 338.704C31.2667 333.66 30.8148 325.892 40.0604 320.554L243.842 202.902C253.759 197.174 269.832 197.174 279.689 202.902L361.348 250.364C362.41 250.987 363.803 250.632 364.438 249.545C365.061 248.471 364.694 247.078 363.62 246.455L281.96 198.994C274.119 194.426 262.785 193.168 252.868 195.049C259.414 187.403 263.933 177.022 263.909 167.996L263.799 128.192C263.799 126.947 262.785 125.933 261.539 125.933C260.294 125.933 259.28 126.959 259.28 128.192L259.39 167.996C259.427 179.379 251.39 193.302 241.473 199.03L37.6665 316.695C28.9095 321.751 21.9112 318.344 21.8745 307.718L21.4715 165.81V165.419C21.4715 150.445 30.7171 138.855 39.3886 134.372L243.183 16.72C244.502 15.9628 245.76 15.4498 246.993 15.059C249.876 14.1552 252.477 14.2162 254.517 15.3887C257.375 17.0498 258.962 20.7016 258.975 25.6969L259.109 71.7783C259.109 73.0241 260.123 74.0378 261.368 74.0378C262.614 74.0378 263.628 73.0119 263.628 71.7783L263.494 25.6969C263.481 19.0406 261.088 14.0086 256.801 11.5048C256.801 11.5048 256.801 11.4926 256.788 11.4926C256.776 11.4926 256.776 11.4804 256.764 11.4804L256.752 11.4682H256.74L239.836 1.64857C235.476 -0.879622 229.833 -0.427723 223.959 2.97984L20.1769 120.596C9.00153 127.056 -0.048657 142.739 0.000196862 155.563L0.403241 297.874C0.415455 304.543 2.8093 309.587 7.10844 312.078L24.0729 321.935H24.0852C24.0974 321.947 24.1096 321.959 24.1218 321.959C26.076 323.083 27.9935 323.547 30.5949 323.486C29.4469 325.428 28.7385 327.492 28.7263 329.654C28.7263 329.666 28.7263 329.678 28.7263 329.69V329.702L28.7873 349.317C28.7996 354.3 31.9751 358.88 37.7398 362.227L58.9546 374.55C60.0294 375.161 61.4217 374.807 62.0446 373.732C62.6675 372.657 62.3011 371.265 61.2263 370.642L40.0115 358.319C35.7002 355.815 33.3185 352.615 33.3063 349.305L33.2697 339.351C33.3552 339.424 33.4773 339.485 33.5628 339.559C34.7475 340.658 36.091 341.684 37.6788 342.612C62.9484 357.28 157.823 412.485 161.34 414.415C171.648 420.082 186.866 420.461 197.932 415.612C202.78 413.511 185.755 422.781 376.151 313.043L404.864 296.47C404.877 296.457 404.889 296.445 404.901 296.445C406.513 295.505 407.881 294.467 409.078 293.355C409.188 293.257 409.347 293.184 409.445 293.086L409.469 303.04C409.481 306.387 407.063 309.636 402.642 312.176L198.86 429.828C188.955 435.557 172.882 435.557 163.026 429.828L89.7326 387.24C88.6578 386.617 87.2654 386.971 86.6426 388.058C86.0197 389.133 86.3861 390.525 87.4609 391.148L160.754 433.737C166.311 436.961 173.615 438.573 180.931 438.573C188.234 438.573 195.55 436.961 201.132 433.737L404.913 316.084C410.8 312.689 414.025 308.048 414 303.004L413.951 283.413ZM9.36793 308.158C6.50998 306.509 4.93444 302.845 4.92223 297.862L4.51918 155.551C4.48254 144.168 12.519 130.244 22.4363 124.504L226.23 6.85151C230.639 4.29889 234.67 3.83478 237.564 5.52024L246.163 10.5155C246.028 10.5522 245.894 10.6499 245.76 10.6865C244.184 11.1751 242.572 11.8346 240.923 12.7873L37.1414 130.452C37.1414 130.452 37.1414 130.464 37.1291 130.464C27.395 135.545 16.9647 148.601 16.9647 165.419C17.1113 215.128 17.3189 301.966 17.3922 307.999C17.4166 309.929 17.7464 312.213 17.9784 313.165L9.36793 308.158Z" fill="#42BBFF"/>
<path d="M90.5021 138C77.4582 145.523 66.8935 163.807 66.9301 178.744C66.979 194.499 78.8749 201.216 92.9082 193.107C105.94 185.583 116.126 167.947 116.077 152.961C116.041 137.059 104.389 129.988 90.5021 138ZM111.558 152.973C111.595 166.274 102.215 182.518 90.6487 189.198C79.8764 195.403 71.4858 191.226 71.4491 178.731C71.4125 165.455 81.1711 148.589 92.7616 141.908C103.485 135.728 111.522 140.393 111.558 152.973Z" fill="#42BBFF"/>
<path d="M96.8291 171.415L93.4949 173.345L93.4338 151.483C93.4338 150.97 93.2872 150.616 92.9575 150.445C92.6521 150.249 92.2735 150.286 91.8216 150.542L91.101 150.958C90.7957 151.141 90.4903 151.41 90.1606 151.764L85.5928 157.162C85.0187 157.822 84.7134 158.542 84.7134 159.263C84.7134 159.739 84.8599 160.069 85.1286 160.228C85.3973 160.386 85.7393 160.325 86.179 160.081C86.3744 159.971 86.6309 159.739 86.9484 159.409L90.3682 155.489L90.4293 175.116L86.4355 177.424C86.0446 177.656 85.7027 177.998 85.4218 178.487C85.1531 178.975 85.0309 179.439 85.0309 179.891C85.0309 180.343 85.1653 180.673 85.434 180.82C85.7027 180.978 86.0446 180.942 86.4477 180.71L96.8414 174.713C97.2566 174.469 97.5986 174.114 97.8673 173.638C98.1604 173.162 98.2948 172.685 98.2948 172.233C98.2948 171.782 98.1482 171.464 97.8551 171.305C97.5864 171.122 97.2444 171.183 96.8291 171.415Z" fill="#42BBFF"/>
</g>
<defs>
<clipPath id="clip0_377_34887">
<rect width="414" height="438.574" fill="white"/>
</clipPath>
</defs>
</svg>
