<svg width="329" height="456" viewBox="0 0 329 456" fill="none" xmlns="http://www.w3.org/2000/svg">
    <path
        d="M249.205 388.84C253.709 391.441 253.735 395.653 249.269 398.254L157.869 451.338C153.403 453.939 146.121 453.926 141.629 451.338L92.098 422.741C87.6067 420.14 87.5813 415.94 92.0473 413.339L183.447 360.255C187.913 357.654 195.183 357.654 199.687 360.255L249.205 388.84Z"
        fill="#285599" />
    <path
        d="M250.387 386.81L211.969 364.633V370.05L248.039 390.87C249.448 391.682 250.26 392.672 250.26 393.573C250.26 394.461 249.473 395.425 248.09 396.224L156.703 449.308C152.948 451.478 146.579 451.478 142.811 449.308L93.2791 420.711C91.8708 419.899 91.0588 418.922 91.0588 418.021C91.0588 417.133 91.8454 416.169 93.2284 415.37L129.032 394.575V389.145L90.8685 411.31C88.0012 412.972 86.3645 415.42 86.3645 418.034C86.3645 420.647 88.0392 423.109 90.9319 424.784L140.463 453.381C143.077 454.891 146.426 455.652 149.776 455.652C153.125 455.652 156.462 454.903 159.063 453.393L250.45 400.31C253.317 398.648 254.954 396.199 254.954 393.598C254.941 390.946 253.279 388.485 250.387 386.81Z"
        fill="#42BBFF" />
    <path d="M148.377 434.527L129.358 423.476L129.104 333.548L148.123 344.599L148.377 434.527Z" fill="#1A2F66" />
    <path
        d="M150.509 359.342L145.815 362.07L146.005 430.455L131.732 422.094L131.541 370.329L126.847 373.057L127.037 423.502C127.037 424.352 127.507 425.101 128.167 425.481L147.236 436.57C147.616 436.76 147.984 436.849 148.365 436.849C148.834 436.849 149.215 436.76 149.583 436.57C150.331 436.189 150.712 435.352 150.712 434.502V430.467L150.509 359.342Z"
        fill="#8ED6FF" />
    <path d="M172.864 328.118L153.846 317.068L217.663 280.211L236.682 291.274L172.864 328.118Z" fill="#285599" />
    <path d="M211.955 307.755L212.209 397.683L148.379 434.527L148.125 344.599L211.955 307.755Z" fill="#285599" />
    <path
        d="M214.29 322.511L209.596 325.239L209.875 396.351L150.689 430.455L150.499 359.342L145.804 362.07L145.995 430.455V434.489C145.995 435.339 146.464 436.177 147.212 436.557C147.593 436.748 147.961 436.836 148.342 436.836C148.811 436.836 149.192 436.748 149.56 436.557L213.352 399.739C214.1 399.269 214.57 398.521 214.57 397.671L214.29 322.511Z"
        fill="#8ED6FF" />
    <path
        d="M226.837 34.8379L276.914 5.92342C284.146 1.74928 290.693 1.36866 295.425 4.12181L318.503 17.5323C313.771 14.7792 307.224 15.1725 299.992 19.3339L51.3331 162.891L25.4255 207.792L25.9711 401.375C25.9964 409.571 28.8891 415.344 33.5581 418.047L10.4798 404.636C5.81086 401.934 2.91814 396.161 2.89277 387.965L2.34721 194.381C2.29646 177.888 13.9054 157.778 28.2548 149.481L190.945 55.5563"
        fill="#1A2F66" />
    <path
        d="M326.408 149.138L326.636 227.787C326.687 244.293 315.078 264.39 300.716 272.675L52.0565 416.232C37.6944 424.517 26.0221 417.869 25.9713 401.362L25.4258 207.779C25.4258 186.692 38.3161 169.615 51.346 162.891L299.993 19.3337C314.355 11.0488 326.027 17.697 326.078 34.2032L326.255 94.6965"
        fill="#285599" />
    <path
        d="M328.755 149.138C328.755 147.844 327.702 146.791 326.408 146.791C325.114 146.791 324.06 147.857 324.06 149.138L324.289 227.787C324.34 243.519 313.238 262.741 299.549 270.645L50.8892 414.202C37.466 421.916 28.3565 415.166 28.3311 401.363L27.7855 207.792C27.7855 187.124 40.5617 171.113 52.5259 164.934L301.173 21.3639C314.05 13.9418 323.693 19.5877 323.731 34.2035L323.908 94.6968C323.908 95.9909 324.961 97.0439 326.255 97.0439C327.549 97.0439 328.603 95.9782 328.603 94.6968L328.425 34.2035C328.387 19.9429 320.495 16.4539 319.62 15.4643L296.605 2.09182C290.908 -1.21957 283.499 -0.585206 275.747 3.89343L225.67 32.8079C224.541 33.4549 224.16 34.8886 224.807 36.0178C225.454 37.147 226.888 37.5276 228.017 36.8805L278.094 7.97875C284.336 4.37555 290.058 3.74118 294.245 6.16446L307.504 13.8657C307.339 13.9037 307.174 13.9799 307.009 14.0179C307.059 14.0433 307.098 14.0814 307.148 14.1067C304.459 14.7157 301.68 15.6673 298.825 17.3166L50.2548 160.811C37.1615 167.573 23.0658 185.158 23.0658 207.792C23.18 245.702 23.5733 396.529 23.6495 401.718H23.6368C23.6748 404.877 24.3726 408.607 24.9182 410.307L11.6472 402.593C7.53653 400.208 5.25281 395.006 5.22743 387.952L4.69457 194.381C4.64382 178.674 15.7452 159.44 29.4222 151.523L192.125 57.599C193.254 56.9519 193.635 55.5182 192.988 54.3891C192.34 53.2599 190.894 52.8793 189.778 53.5263L27.0877 147.451C12.0913 156.129 -0.0631895 177.177 0.000247192 194.394L0.545803 387.977C0.583865 396.782 3.69227 403.418 9.30007 406.666L32.3784 420.076C32.391 420.076 32.391 420.076 32.4037 420.076C32.4164 420.089 32.4291 420.089 32.4291 420.102C38.925 423.845 46.7151 422.03 53.2364 418.262L301.896 274.692C316.879 266.039 329.034 244.991 328.983 227.762L328.755 149.138Z"
        fill="#42BBFF" />
    <path
        d="M65.8622 383.613C57.6028 388.384 47.2753 382.433 47.2499 372.905L46.7805 207.741C46.7551 198.911 54.3041 185.855 62.018 181.402L286.203 51.9659C294.463 47.1955 304.79 53.1459 304.816 62.674L305.285 227.838C305.311 236.681 297.762 249.724 290.048 254.177L65.8622 383.613Z"
        fill="#285599" />
    <path
        d="M59.6429 387.647C57.1181 387.647 54.5934 386.988 52.2843 385.656C47.6661 383.004 44.9002 378.233 44.8875 372.905L44.4181 207.728C44.38 198.035 52.3731 184.244 60.8355 179.359L285.021 49.9356C289.626 47.2713 295.145 47.2713 299.764 49.9229C304.382 52.5746 307.148 57.3451 307.16 62.6737L307.63 227.838C307.668 237.531 299.675 251.322 291.212 256.207L67.027 385.643C64.7179 386.975 62.1804 387.647 59.6429 387.647ZM292.405 52.638C290.68 52.638 288.941 53.0948 287.368 53.9956L63.1954 183.419C56.2047 187.467 49.0997 199.722 49.1251 207.716L49.5945 372.892C49.6072 376.521 51.485 379.769 54.6441 381.583C57.7906 383.397 61.546 383.385 64.6925 381.57L288.878 252.134C295.869 248.099 302.974 235.831 302.948 227.838L302.466 62.6737C302.453 59.0452 300.576 55.7972 297.416 53.9829C295.843 53.0821 294.118 52.638 292.405 52.638Z"
        fill="#8ED6FF" />
    <path
        d="M176.254 289.004C210.776 268.856 238.333 220.822 238.003 181.669C237.711 142.465 209.888 126.872 175.721 146.614C141.275 166.761 113.768 214.77 114.06 253.961C114.339 293.064 142.163 308.682 176.254 289.004Z"
        fill="#285599" />
    <path
        d="M148.431 299.89C142.138 299.89 136.302 298.418 131.138 295.462C118.756 288.369 111.866 273.639 111.714 253.961C111.41 214.085 139.601 165.01 174.542 144.571C191.936 134.51 208.404 132.937 220.939 140.105C233.31 147.185 240.212 161.94 240.351 181.643C240.694 221.52 212.477 270.594 177.447 291.034C177.447 291.034 177.447 291.034 177.435 291.034C167.247 296.921 157.376 299.89 148.431 299.89ZM203.621 140.397C195.476 140.397 186.379 143.163 176.889 148.644C143.255 168.322 116.117 215.557 116.408 253.936C116.535 271.863 122.6 285.172 133.473 291.389C144.46 297.682 159.241 296.121 175.087 286.986C208.81 267.296 235.987 220.073 235.657 181.694C235.53 163.742 229.465 150.42 218.605 144.203C214.164 141.653 209.115 140.397 203.621 140.397ZM176.255 289.004H176.318H176.255Z"
        fill="#8ED6FF" />
    <path
        d="M165.392 250.535C165.163 250.535 164.922 250.497 164.681 250.42C163.438 250.027 162.765 248.708 163.146 247.477L182.367 186.692C182.761 185.449 184.08 184.776 185.311 185.157C186.554 185.55 187.227 186.87 186.846 188.1L167.625 248.885C167.307 249.888 166.381 250.535 165.392 250.535Z"
        fill="#42BBFF" />
    <path
        d="M154.964 249.279C154.837 249.279 154.723 249.266 154.596 249.253L133.193 245.904C132.381 245.777 131.683 245.219 131.379 244.458C131.074 243.696 131.188 242.821 131.696 242.161L153.01 214.148C153.784 213.12 155.256 212.917 156.296 213.703C157.324 214.49 157.527 215.962 156.741 216.99L137.811 241.869L155.32 244.61C156.601 244.813 157.476 246.018 157.273 247.3C157.096 248.454 156.106 249.279 154.964 249.279Z"
        fill="#42BBFF" />
    <path
        d="M197.176 224.906C196.682 224.906 196.187 224.754 195.755 224.424C194.728 223.638 194.525 222.166 195.311 221.138L214.241 196.258L196.732 193.518C195.451 193.315 194.576 192.11 194.779 190.828C194.982 189.534 196.174 188.671 197.468 188.874L218.872 192.224C219.684 192.351 220.382 192.909 220.686 193.67C220.991 194.431 220.876 195.307 220.369 195.967L199.054 223.98C198.585 224.576 197.887 224.906 197.176 224.906Z"
        fill="#42BBFF" />
</svg>