<svg width="236" height="453" viewBox="0 0 236 453" fill="none" xmlns="http://www.w3.org/2000/svg">
    <g clip-path="url(#clip0_1_9626)">
        <path
            d="M132.844 36.8354L189.077 4.28902C193.102 2.01834 196.75 1.76605 199.266 3.27983L228.955 20.5622C226.313 19.0484 222.791 19.3007 218.765 21.5714L46.2942 121.481C38.3688 126.023 31.953 137.124 32.0788 146.206L32.9594 440.511C32.9594 445.053 34.5948 448.206 37.1108 449.72L7.42212 432.564C4.78033 431.05 3.27073 427.896 3.27073 423.355L2.39014 128.924C2.39014 119.967 8.80591 108.74 16.6055 104.199L96.1108 58.1545"
            fill="#1A2F66" />
        <path
            d="M218.64 21.5715C226.565 17.0302 232.981 20.6885 232.981 29.7712L233.61 269.958L171.968 305.658C168.32 307.677 165.552 312.723 165.552 316.886L165.678 379.96L233.61 269.958L165.678 379.96L47.049 448.585C39.1236 453.126 32.7079 449.468 32.7079 440.385L31.8273 146.08C31.8273 136.998 38.243 125.896 46.0426 121.355L218.64 21.5715Z"
            fill="#285599" />
        <path
            d="M233.736 269.958L165.804 379.96L165.678 316.885C165.678 312.723 168.571 307.677 172.094 305.658L233.736 269.958Z"
            fill="#1A2F66" />
        <path
            d="M235.371 29.7708C235.371 21.4449 230.842 19.5527 230.087 18.5435L200.399 1.26115C197.002 -0.75723 192.599 -0.378784 187.945 2.27034L131.712 34.8167C130.58 35.4474 130.203 36.8351 130.832 37.9704C131.461 39.1058 132.97 39.4842 133.977 38.8535L190.209 6.3071C193.354 4.54102 196.247 4.16257 198.009 5.29791L220.275 18.1651C219.646 18.4174 218.891 18.7958 218.136 19.1743C214.866 20.9403 121.774 74.932 45.0362 119.336C36.8593 124.004 29.5629 135.988 29.5629 146.08L30.4435 440.385C30.4435 441.142 30.5693 442.403 30.6951 443.286L8.55437 430.545C6.54158 429.41 5.53518 426.887 5.53518 423.355L4.65458 128.924C4.65458 120.724 10.693 110.254 17.7377 106.217L97.2431 60.1726C98.3753 59.5418 98.7527 58.1542 98.1237 57.0189C97.4947 55.8835 95.9851 55.5051 94.9787 56.1358L15.4733 102.18C6.91898 106.974 0 119.084 0 128.924L0.880597 423.229C0.880597 428.527 2.76759 432.437 6.28998 434.456C10.064 436.6 37.6141 452.747 35.8529 451.738C39.7527 454.009 44.4073 453 48.307 450.729L166.936 382.104C167.313 381.978 167.565 381.599 167.691 381.347C185.303 352.838 224.552 289.259 235.623 271.219C235.874 270.841 235.874 270.462 235.874 270.084L235.371 29.7708ZM226.817 276.644L168.068 371.886L167.942 316.885C167.942 313.605 170.333 309.316 173.226 307.676L226.817 276.644ZM163.288 316.885L163.414 378.698L45.9168 446.692C39.3753 450.477 35.0981 447.449 35.0981 440.511L34.2175 146.206C34.0917 137.88 40.3817 127.536 47.3006 123.499L219.772 23.5895C225.81 20.0573 230.591 22.2018 230.591 29.7708L231.22 268.696L170.71 303.766C166.559 306.163 163.288 311.965 163.288 316.885Z"
            fill="#42BBFF" />
        <path
            d="M89.3176 178.5C109.697 166.768 126.303 176.103 126.303 199.567V206.884L52.4584 249.648V242.332C52.4584 218.868 68.9381 190.232 89.3176 178.5Z"
            fill="#1A2F66" />
        <path
            d="M89.192 131.068C97.4947 126.275 104.162 130.185 104.288 139.773C104.288 149.36 97.6205 160.965 89.3178 165.759C81.015 170.553 74.2218 166.768 74.2218 157.181C74.2218 147.594 80.8892 135.862 89.192 131.068Z"
            fill="#1A2F66" />
        <path
            d="M121.648 119.967L213.482 66.8587C214.614 66.2279 214.991 64.8403 214.362 63.705C213.733 62.5696 212.224 62.1912 211.217 62.8219L119.384 115.931C118.252 116.561 117.874 117.949 118.503 119.084C119.132 120.22 120.516 120.598 121.648 119.967Z"
            fill="#D9F1FF" />
        <path
            d="M211.092 94.8637L119.258 147.972C118.126 148.603 117.748 149.991 118.377 151.126C119.006 152.261 120.516 152.64 121.522 152.009L213.356 98.9004C214.488 98.2697 214.866 96.882 214.237 95.7467C213.608 94.6114 212.224 94.2329 211.092 94.8637Z"
            fill="#D9F1FF" />
        <path
            d="M211.092 126.905L145.047 165.128C143.915 165.759 143.537 167.147 144.166 168.282C144.795 169.418 146.305 169.796 147.311 169.165L213.356 130.942C214.488 130.311 214.866 128.924 214.237 127.788C213.608 126.653 212.224 126.275 211.092 126.905Z"
            fill="#D9F1FF" />
        <path
            d="M211.092 158.947L145.047 197.17C143.915 197.801 143.537 199.189 144.166 200.324C144.795 201.459 146.305 201.838 147.311 201.207L213.356 162.984C214.488 162.353 214.866 160.966 214.237 159.83C213.608 158.695 212.224 158.316 211.092 158.947Z"
            fill="#D9F1FF" />
        <path
            d="M211.092 190.989L183.038 207.262C181.906 207.893 181.529 209.281 182.158 210.416C182.787 211.551 184.296 211.93 185.303 211.299L213.356 195.026C214.488 194.395 214.866 193.007 214.237 191.872C213.608 190.737 212.224 190.358 211.092 190.989Z"
            fill="#D9F1FF" />
        <path
            d="M50.5714 286.484C51.2004 287.619 52.71 287.997 53.7164 287.367L152.972 229.969C154.104 229.338 154.482 227.951 153.853 226.815C153.224 225.68 151.714 225.301 150.708 225.932L51.452 283.33C50.3198 283.961 49.8166 285.474 50.5714 286.484Z"
            fill="#D9F1FF" />
        <path
            d="M211.092 223.031L51.3262 315.372C50.194 316.002 49.8166 317.39 50.4456 318.525C51.0746 319.661 52.5842 320.039 53.5906 319.408L213.356 227.068C214.488 226.437 214.866 225.049 214.237 223.914C213.608 222.778 212.224 222.4 211.092 223.031Z"
            fill="#D9F1FF" />
        <path
            d="M211.092 255.073L104.414 316.759C103.282 317.39 102.904 318.778 103.533 319.913C104.162 321.048 105.672 321.427 106.678 320.796L213.356 259.109C214.488 258.479 214.866 257.091 214.237 255.956C213.608 254.82 212.224 254.442 211.092 255.073Z"
            fill="#D9F1FF" />
        <path
            d="M53.7164 351.45L74.8508 339.214C75.983 338.583 76.3604 337.195 75.7314 336.06C75.1024 334.925 73.5928 334.546 72.5864 335.177L51.452 347.413C50.3198 348.044 49.9424 349.432 50.5714 350.567C51.2004 351.702 52.5842 352.081 53.7164 351.45Z"
            fill="#D9F1FF" />
        <path
            d="M127.812 335.177L51.452 379.455C50.3198 380.086 49.9424 381.474 50.5714 382.609C51.2004 383.744 52.71 384.123 53.7164 383.492L130.077 339.214C131.209 338.583 131.586 337.195 130.957 336.06C130.328 334.925 128.819 334.546 127.812 335.177Z"
            fill="#D9F1FF" />
        <path
            d="M127.812 367.219L51.452 411.497C50.3198 412.128 49.9424 413.515 50.5714 414.651C51.2004 415.786 52.71 416.164 53.7164 415.534L130.077 371.256C131.209 370.625 131.586 369.237 130.957 368.102C130.328 366.966 128.819 366.588 127.812 367.219Z"
            fill="#D9F1FF" />
        <path
            d="M51.3262 251.54C51.7036 251.793 52.081 251.793 52.4584 251.793C52.8358 251.793 53.2132 251.666 53.5906 251.54L127.435 208.776C128.19 208.397 128.567 207.641 128.567 206.758V199.441C128.441 174.211 110.075 163.615 88.0597 176.356C67.0512 188.466 50.0682 218.111 50.0682 242.205V249.522C50.194 250.405 50.6972 251.162 51.3262 251.54ZM90.4499 180.519C109.32 169.67 123.913 177.996 123.913 199.567V205.496L54.7228 245.485V242.205C54.8486 219.625 70.8252 191.872 90.4499 180.519Z"
            fill="#D9F1FF" />
        <path
            d="M90.4499 167.778C99.5074 162.479 106.552 150.243 106.552 139.773C106.552 128.419 97.9979 123.373 88.0597 129.05C79.1279 134.222 71.8315 146.837 71.8315 157.181C71.9573 168.408 80.5117 173.454 90.4499 167.778ZM90.4499 133.087C97.1173 129.176 102.023 131.951 102.023 139.773C102.023 148.603 95.8593 159.326 88.1855 163.741C81.2665 167.651 76.6119 164.876 76.4861 157.181C76.4861 148.477 82.9019 137.502 90.4499 133.087Z"
            fill="#D9F1FF" />
    </g>
    <defs>
        <clipPath id="clip0_1_9626">
            <rect width="236" height="453" fill="white" />
        </clipPath>
    </defs>
</svg>