<svg width="1413" height="1817" viewBox="0 0 1413 1817" fill="none" xmlns="http://www.w3.org/2000/svg">
<g opacity="0.2" filter="url(#filter0_f_6_11090)">
<path fill-rule="evenodd" clip-rule="evenodd" d="M361.532 996.649C209.62 778.055 227.055 431.17 431.088 306.466C635.12 181.763 948.486 326.463 1100.4 545.057C1190.88 675.258 1141.23 782.45 1119.77 927.67C1098.31 1072.89 1019.52 1168.4 937.02 1218.83C732.987 1343.53 513.443 1215.24 361.532 996.649Z" fill="url(#paint0_linear_6_11090)"/>
</g>
<g opacity="0.1" filter="url(#filter1_f_6_11090)">
<path fill-rule="evenodd" clip-rule="evenodd" d="M858.966 1231.9C959.026 1257.46 1042.56 1362.84 1015.02 1450.32C987.473 1537.8 859.285 1574.26 759.224 1548.7C699.625 1533.48 686.697 1489.82 655.851 1442.15C625.005 1394.48 623.542 1346.91 634.679 1311.54C662.222 1224.05 758.905 1206.35 858.966 1231.9Z" fill="#C85FFA"/>
</g>
<defs>
<filter id="filter0_f_6_11090" x="0.833496" y="0.380249" width="1411.95" height="1527.33" filterUnits="userSpaceOnUse" color-interpolation-filters="sRGB">
<feFlood flood-opacity="0" result="BackgroundImageFix"/>
<feBlend mode="normal" in="SourceGraphic" in2="BackgroundImageFix" result="shape"/>
<feGaussianBlur stdDeviation="130" result="effect1_foregroundBlur_6_11090"/>
</filter>
<filter id="filter1_f_6_11090" x="368.332" y="961.187" width="912.002" height="855.513" filterUnits="userSpaceOnUse" color-interpolation-filters="sRGB">
<feFlood flood-opacity="0" result="BackgroundImageFix"/>
<feBlend mode="normal" in="SourceGraphic" in2="BackgroundImageFix" result="shape"/>
<feGaussianBlur stdDeviation="130" result="effect1_foregroundBlur_6_11090"/>
</filter>
<linearGradient id="paint0_linear_6_11090" x1="926.905" y1="1190.01" x2="588.597" y2="353.07" gradientUnits="userSpaceOnUse">
<stop stop-color="#5F5FFA" stop-opacity="0"/>
<stop offset="0.07" stop-color="#6599FF"/>
<stop offset="0.48" stop-color="#428CE3"/>
<stop offset="0.91" stop-color="#2FC4FF"/>
<stop offset="1" stop-color="#33A6F9" stop-opacity="0"/>
</linearGradient>
</defs>
</svg>
