<svg width="119" height="119" viewBox="0 0 119 119" fill="none" xmlns="http://www.w3.org/2000/svg">
    <g opacity="0.1" filter="url(#filter0_b_594_614)">
        <ellipse cx="59.2332" cy="59.5" rx="59.2332" ry="59.5" fill="#FCFCFC" />
    </g>
    <path
        d="M110.385 52.9682L109.867 51.7022C110.023 51.6104 110.165 51.488 110.291 51.3349C110.418 51.1851 110.509 50.9992 110.562 50.7771C110.616 50.5551 110.61 50.2934 110.545 49.9922C110.456 49.5807 110.29 49.2574 110.046 49.0223C109.805 48.7865 109.54 48.7 109.252 48.7628C109.003 48.8172 108.822 48.9533 108.71 49.1712C108.597 49.389 108.537 49.7142 108.529 50.1468L108.513 51.3919C108.503 52.1132 108.369 52.6784 108.111 53.0874C107.854 53.4963 107.461 53.7583 106.933 53.8734C106.486 53.9708 106.06 53.9281 105.654 53.7452C105.253 53.5648 104.903 53.2661 104.606 52.8492C104.31 52.4354 104.097 51.9273 103.967 51.3247C103.786 50.4889 103.817 49.7681 104.059 49.1624C104.304 48.556 104.744 48.1208 105.379 47.8569L105.896 49.2147C105.549 49.3819 105.311 49.6221 105.182 49.9352C105.056 50.2476 105.041 50.6224 105.135 51.0598C105.238 51.536 105.419 51.8951 105.678 52.1371C105.941 52.3784 106.216 52.4677 106.504 52.4048C106.737 52.354 106.914 52.2238 107.035 52.0143C107.157 51.808 107.22 51.5178 107.223 51.1438L107.227 49.82C107.236 49.0889 107.377 48.5187 107.651 48.1095C107.926 47.7035 108.329 47.4426 108.86 47.3268C109.301 47.2308 109.713 47.2699 110.096 47.4441C110.48 47.6183 110.811 47.9023 111.089 48.2962C111.371 48.6893 111.572 49.1661 111.693 49.7266C111.868 50.5332 111.83 51.2063 111.58 51.7459C111.334 52.2847 110.935 52.6921 110.385 52.9682Z"
        fill="#061C4B" />
    <path
        d="M105.354 40.4392L101.157 42.1545L100.599 40.7767L107.668 37.8878L108.203 39.2103L107.053 39.6805L107.088 39.768C107.528 39.7779 107.932 39.91 108.3 40.1643C108.669 40.4217 108.961 40.8162 109.176 41.3476C109.371 41.8299 109.441 42.2937 109.386 42.739C109.333 43.183 109.149 43.5857 108.834 43.9471C108.519 44.3085 108.071 44.6084 107.488 44.8466L102.991 46.6841L102.433 45.3063L106.764 43.5365C107.276 43.3271 107.623 43.0299 107.803 42.6447C107.986 42.2584 107.983 41.8317 107.794 41.3647C107.664 41.0453 107.48 40.7893 107.241 40.5969C107.004 40.4076 106.722 40.2953 106.397 40.26C106.076 40.2265 105.728 40.2862 105.354 40.4392Z"
        fill="#061C4B" />
    <path
        d="M97.8341 36.3584C97.4494 35.7546 97.2518 35.139 97.2412 34.5115C97.2305 33.884 97.3941 33.2864 97.7319 32.7186C98.0698 32.1508 98.5705 31.6537 99.2341 31.2272C99.9004 30.7989 100.562 30.5488 101.22 30.4768C101.878 30.4049 102.488 30.5052 103.05 30.7779C103.613 31.0505 104.087 31.4888 104.471 32.0926C104.856 32.6964 105.054 33.3121 105.064 33.9396C105.075 34.567 104.91 35.1656 104.569 35.7351C104.229 36.3047 103.725 36.8036 103.059 37.2319C102.395 37.6584 101.736 37.9067 101.081 37.9769C100.426 38.0471 99.8177 37.9458 99.255 37.6732C98.6923 37.4005 98.2187 36.9623 97.8341 36.3584ZM98.8865 35.688C99.1358 36.0793 99.4455 36.3373 99.8156 36.4619C100.186 36.5864 100.581 36.6 101.003 36.5026C101.426 36.408 101.844 36.2281 102.256 35.9629C102.666 35.6994 103.003 35.3946 103.265 35.0484C103.533 34.7032 103.689 34.3348 103.734 33.9432C103.78 33.5516 103.678 33.1602 103.428 32.7688C103.177 32.3746 102.864 32.1148 102.49 31.9892C102.117 31.8664 101.717 31.8532 101.292 31.9496C100.87 32.047 100.455 32.2275 100.045 32.4909C99.6322 32.7561 99.2936 33.0604 99.029 33.4038C98.7662 33.75 98.6135 34.118 98.571 34.5078C98.5302 34.9004 98.6354 35.2938 98.8865 35.688Z"
        fill="#061C4B" />
    <path
        d="M94.9527 25.2508L91.6504 28.3577L90.6367 27.2705L98.0523 20.2935L99.0524 21.3662L96.2933 23.9621L96.3578 24.0312C96.7791 23.8805 97.2034 23.8568 97.6305 23.96C98.0576 24.0633 98.4735 24.3319 98.8781 24.7658C99.2352 25.1488 99.4687 25.5572 99.5785 25.9908C99.6905 26.4269 99.6643 26.8702 99.4999 27.3208C99.3401 27.7715 99.0284 28.2149 98.565 28.6509L95.0274 31.9793L94.0136 30.8921L97.4209 27.6864C97.8288 27.3025 98.0467 26.8996 98.0746 26.4775C98.1048 26.0531 97.9448 25.653 97.5944 25.2773C97.3548 25.0203 97.0858 24.8412 96.7873 24.7397C96.4911 24.6407 96.1837 24.6319 95.8652 24.7131C95.5514 24.7945 95.2472 24.9737 94.9527 25.2508Z"
        fill="#061C4B" />
    <path
        d="M94.1067 20.2229L93.368 21.1599L90.1036 18.5633L90.8423 17.6263L94.1067 20.2229ZM92.8504 16.8858L94.0138 17.8112L89.5416 23.4842C89.3631 23.7106 89.2624 23.9079 89.2396 24.0761C89.2188 24.2417 89.2452 24.3876 89.3187 24.5138C89.3968 24.6395 89.4995 24.7529 89.6266 24.854C89.7199 24.9283 89.8068 24.9868 89.8871 25.0295C89.9674 25.0722 90.0301 25.1051 90.0751 25.1282L89.525 26.2597C89.437 26.2321 89.3205 26.1818 89.1755 26.1088C89.0284 26.0384 88.8605 25.9302 88.6717 25.7842C88.3615 25.546 88.1193 25.2643 87.945 24.9394C87.7707 24.6144 87.6962 24.2672 87.7216 23.8977C87.7469 23.5283 87.9022 23.1626 88.1874 22.8008L92.8504 16.8858Z"
        fill="#061C4B" />
    <path
        d="M81.6933 21.0483C81.2754 20.8044 80.9424 20.5063 80.6942 20.1543C80.4478 19.7993 80.3121 19.415 80.2872 19.0013C80.2652 18.5893 80.3794 18.1667 80.6301 17.7335C80.8458 17.3606 81.095 17.0954 81.3775 16.9379C81.66 16.7805 81.9636 16.7025 82.2883 16.704C82.6129 16.7054 82.9462 16.758 83.2883 16.8617C83.6303 16.9654 83.9681 17.0897 84.3017 17.2346C84.7233 17.4192 85.0654 17.5691 85.3282 17.6841C85.5926 17.7962 85.8006 17.8505 85.952 17.8468C86.1035 17.8431 86.224 17.7638 86.3137 17.6089L86.3311 17.5787C86.5485 17.2029 86.6111 16.8499 86.5187 16.5197C86.4293 16.1911 86.177 15.9057 85.762 15.6635C85.3298 15.4112 84.9335 15.3084 84.5733 15.3553C84.2176 15.4009 83.9253 15.5124 83.6964 15.6896L82.6492 14.7099C83.0247 14.3918 83.4212 14.1896 83.8388 14.1033C84.2608 14.0158 84.6845 14.0213 85.1099 14.12C85.537 14.2158 85.9494 14.3798 86.3473 14.612C86.6106 14.7657 86.8715 14.9602 87.1298 15.1954C87.3926 15.4295 87.6055 15.7034 87.7685 16.0173C87.9344 16.3329 88.0124 16.6912 88.0025 17.0922C87.9942 17.4904 87.8507 17.9304 87.5719 18.4124L85.0325 22.8018L83.7788 22.07L84.3016 21.1663L84.2501 21.1362C84.0708 21.2541 83.8517 21.345 83.5927 21.4087C83.3337 21.4725 83.0433 21.4814 82.7214 21.4355C82.3995 21.3896 82.0568 21.2605 81.6933 21.0483ZM82.5699 20.1784C82.9248 20.3856 83.2689 20.4924 83.6021 20.4989C83.9382 20.507 84.2376 20.4362 84.5004 20.2864C84.7677 20.1355 84.9769 19.9294 85.1279 19.6684L85.6209 18.8163C85.5485 18.8355 85.4349 18.8267 85.28 18.79C85.1296 18.7521 84.9631 18.699 84.7805 18.6308C84.5995 18.5597 84.4237 18.4897 84.253 18.4208C84.0839 18.3489 83.9423 18.2893 83.8281 18.2418C83.5608 18.128 83.3026 18.0482 83.0533 18.0025C82.8069 17.9585 82.5815 17.9708 82.3771 18.0396C82.1772 18.1071 82.0109 18.2556 81.8781 18.4851C81.6939 18.8036 81.6718 19.1131 81.8119 19.4136C81.9537 19.7113 82.2064 19.9662 82.5699 20.1784Z"
        fill="#061C4B" />
    <path
        d="M74.8138 14.9539L75.4326 13.248L75.6749 13.3382L79.6449 11.368L81.3129 11.9889L76.7873 14.2298L76.5684 14.1483L74.8138 14.9539ZM72.636 16.907L76.1603 7.35462L77.5534 7.87324L74.0291 17.4257L72.636 16.907ZM77.1554 18.5895L75.8491 14.2306L77.1685 13.6131L78.8654 19.2261L77.1554 18.5895Z"
        fill="#061C4B" />
    <path
        d="M68.0112 16.0122C67.2847 15.8766 66.6895 15.5954 66.2258 15.1683C65.7659 14.7386 65.4498 14.206 65.2775 13.5703C65.1051 12.9347 65.0886 12.2404 65.2277 11.4875C65.3687 10.7249 65.6365 10.0786 66.0311 9.5487C66.4263 9.01553 66.9149 8.63299 67.4971 8.40106C68.0793 8.16913 68.7239 8.11911 69.4309 8.251C70.0011 8.35736 70.4898 8.5581 70.897 8.85322C71.3048 9.14507 71.6106 9.50556 71.8144 9.93467C72.0214 10.3644 72.1043 10.8367 72.0631 11.3516L70.6409 11.0863C70.6278 10.7197 70.5046 10.3832 70.2714 10.0767C70.0414 9.77083 69.6935 9.57444 69.2276 9.48752C68.8203 9.41155 68.4437 9.45255 68.0976 9.61052C67.7554 9.76584 67.4632 10.0249 67.2209 10.3876C66.9791 10.7471 66.8088 11.1941 66.71 11.7286C66.6088 12.2762 66.6045 12.7642 66.6972 13.1929C66.7898 13.6215 66.9675 13.9732 67.2301 14.2481C67.496 14.5236 67.8359 14.7 68.2497 14.7771C68.5266 14.8288 68.7868 14.8251 69.0303 14.766C69.2777 14.7042 69.4957 14.5915 69.6844 14.4278C69.8763 14.2647 70.0283 14.0536 70.1402 13.7947L71.5624 14.06C71.4205 14.5359 71.1823 14.9399 70.8479 15.2719C70.5135 15.604 70.1045 15.8379 69.6211 15.9736C69.1408 16.1099 68.6042 16.1228 68.0112 16.0122Z"
        fill="#061C4B" />
    <path
        d="M59.1521 15.2018C58.6682 15.1968 58.2317 15.1027 57.8425 14.9197C57.4533 14.7334 57.1461 14.4666 56.921 14.1196C56.6992 13.7726 56.5908 13.3488 56.596 12.8484C56.6004 12.4175 56.687 12.0638 56.8555 11.7871C57.0241 11.5104 57.2501 11.2924 57.5335 11.1329C57.8169 10.9734 58.133 10.8541 58.4818 10.7749C58.8307 10.6956 59.186 10.6364 59.5477 10.597C60.0056 10.5488 60.3772 10.5095 60.6626 10.4794C60.948 10.4459 61.1557 10.39 61.2858 10.3118C61.4159 10.2336 61.4818 10.1051 61.4837 9.9261L61.484 9.8913C61.4885 9.45714 61.3693 9.11947 61.1266 8.87829C60.8871 8.63715 60.5271 8.51407 60.0465 8.50907C59.5461 8.50386 59.1505 8.61078 58.8599 8.82983C58.5726 9.0456 58.3729 9.28714 58.2608 9.55445L56.8671 9.22174C57.0376 8.75948 57.2834 8.38749 57.6045 8.10578C57.929 7.82079 58.3007 7.61584 58.7196 7.49094C59.1385 7.36272 59.5784 7.301 60.039 7.3058C60.3439 7.30898 60.6667 7.3488 61.0073 7.42526C61.3513 7.49845 61.6714 7.63105 61.9677 7.82307C62.2674 8.01512 62.5115 8.2878 62.7001 8.64111C62.8887 8.9911 62.9802 9.4445 62.9744 10.0013L62.9221 15.072L61.4705 15.0569L61.4813 14.0129L61.4216 14.0123C61.3235 14.2035 61.1774 14.391 60.9833 14.5745C60.7891 14.7581 60.5406 14.9097 60.2378 15.0292C59.9349 15.1487 59.573 15.2062 59.1521 15.2018ZM59.4876 14.0121C59.8985 14.0163 60.2507 13.9388 60.544 13.7794C60.8406 13.6201 61.0665 13.4103 61.2217 13.1501C61.3802 12.8866 61.461 12.604 61.4641 12.3024L61.4743 11.3181C61.4207 11.3706 61.3174 11.4192 61.1645 11.4641C61.0149 11.5056 60.8438 11.5419 60.6513 11.5731C60.4588 11.6009 60.2712 11.6271 60.0887 11.6517C59.9061 11.673 59.7535 11.6913 59.6307 11.7066C59.342 11.7401 59.0778 11.7986 58.8383 11.8823C58.6021 11.966 58.4119 12.0884 58.2678 12.2493C58.1269 12.4069 58.0551 12.6183 58.0524 12.8834C58.0486 13.2513 58.1816 13.5311 58.4514 13.7229C58.7213 13.9113 59.0667 14.0077 59.4876 14.0121Z"
        fill="#061C4B" />
    <path
        d="M49.3231 11.5048L50.0784 15.9756L48.613 16.2254L46.917 6.18579L48.3627 5.93935L48.9938 9.67478L49.0869 9.6589C49.1949 9.22359 49.41 8.85573 49.7324 8.55534C50.0548 8.25495 50.5084 8.05491 51.0932 7.95522C51.6094 7.86723 52.0783 7.89658 52.4997 8.04329C52.9244 8.18944 53.2785 8.45521 53.5621 8.84059C53.8484 9.22215 54.0446 9.72667 54.1506 10.3541L54.9597 15.1435L53.4943 15.3933L52.715 10.7804C52.6217 10.2281 52.4073 9.8242 52.0717 9.56872C51.7355 9.30997 51.3142 9.22376 50.8078 9.31009C50.4615 9.36912 50.1635 9.49556 49.9139 9.68941C49.6676 9.8827 49.49 10.1349 49.3812 10.4459C49.2751 10.7532 49.2558 11.1061 49.3231 11.5048Z"
        fill="#061C4B" />
    <path d="M39.4618 8.55379L43.2083 18.0213L41.8278 18.5725L38.0813 9.10503L39.4618 8.55379Z" fill="#061C4B" />
    <path d="M35.5632 10.224L40.0136 19.3816L38.6789 20.0361L34.2285 10.8784L35.5632 10.224Z" fill="#061C4B" />
    <path
        d="M33.8508 23.0989C33.4462 23.3645 33.0317 23.5295 32.6071 23.5941C32.1808 23.6559 31.778 23.605 31.3989 23.4416C31.0225 23.2763 30.6979 22.9839 30.425 22.5644C30.1901 22.2032 30.066 21.8604 30.0527 21.5361C30.0394 21.2118 30.1063 20.9043 30.2533 20.6136C30.4002 20.3228 30.5966 20.0473 30.8424 19.7869C31.0881 19.5264 31.3503 19.2791 31.6288 19.0447C31.9823 18.7493 32.2691 18.5095 32.4893 18.3253C32.7077 18.1383 32.8493 17.976 32.914 17.8384C32.9787 17.7008 32.9622 17.557 32.8646 17.407L32.8457 17.3778C32.6089 17.0138 32.323 16.7991 31.9878 16.7337C31.6554 16.6664 31.2883 16.7646 30.8865 17.0283C30.4681 17.3029 30.199 17.6124 30.079 17.9568C29.9599 18.2966 29.9279 18.609 29.9829 18.894L28.6414 19.3939C28.527 18.914 28.525 18.4673 28.6356 18.0537C28.7472 17.6356 28.9423 17.2578 29.2209 16.9203C29.4978 16.58 29.8287 16.2835 30.2139 16.0307C30.4688 15.8634 30.7589 15.7166 31.084 15.5904C31.4101 15.4596 31.7494 15.3916 32.1018 15.3863C32.457 15.3791 32.8107 15.4701 33.1629 15.6591C33.5134 15.8453 33.8405 16.1718 34.1441 16.6386L36.9091 20.8895L35.6955 21.686L35.1262 20.8108L35.0763 20.8436C35.1008 21.0575 35.0833 21.2949 35.0238 21.556C34.9642 21.8171 34.8419 22.0818 34.6566 22.3501C34.4713 22.6183 34.2027 22.868 33.8508 23.0989ZM33.4704 21.9214C33.8139 21.6959 34.0634 21.4351 34.2187 21.1389C34.3767 20.8409 34.4481 20.5403 34.4328 20.2372C34.4184 19.9294 34.329 19.6491 34.1646 19.3963L33.6278 18.5712C33.6124 18.6447 33.5536 18.7428 33.4515 18.8653C33.3503 18.9833 33.2284 19.1089 33.0857 19.2421C32.9413 19.3726 32.8001 19.499 32.6621 19.6212C32.5224 19.7407 32.4058 19.841 32.3123 19.9222C32.0911 20.111 31.9042 20.307 31.7517 20.5102C31.602 20.7115 31.5118 20.9194 31.4812 21.1337C31.4516 21.3435 31.5091 21.5595 31.6536 21.7817C31.8542 22.0901 32.1197 22.249 32.4499 22.2582C32.7783 22.2646 33.1185 22.1524 33.4704 21.9214Z"
        fill="#061C4B" />
    <path
        d="M22.3972 33.8553L15.1197 30.6536L16.1054 29.4752L21.3511 31.9444L21.3989 31.8872L18.0766 27.1185L19.0623 25.9402L24.2858 28.3972L24.3336 28.34L21.0208 23.5988L22.0064 22.4204L26.4035 29.0656L25.4306 30.2287L20.222 27.8624L20.1487 27.9501L23.3669 32.696L22.3972 33.8553Z"
        fill="#061C4B" />
    <path
        d="M19.1427 39.5893C18.7942 40.2561 18.3519 40.7554 17.8158 41.0872C17.2782 41.4145 16.6817 41.572 16.0262 41.5598C15.3692 41.5431 14.6904 41.35 13.9897 40.9805C13.2978 40.6156 12.7556 40.1648 12.363 39.628C11.9719 39.0883 11.7503 38.5069 11.6983 37.8837C11.6478 37.2575 11.7869 36.6302 12.1154 36.0015C12.3149 35.6197 12.5714 35.2828 12.8848 34.9909C13.1981 34.699 13.5641 34.4817 13.9827 34.339C14.4014 34.1963 14.8692 34.1564 15.3861 34.2191C15.9001 34.2804 16.4635 34.4725 17.0762 34.7957L17.5423 35.0415L14.7307 40.4214L13.7456 39.9019L15.8826 35.813C15.5366 35.6306 15.1934 35.5395 14.8529 35.5398C14.5095 35.5386 14.1934 35.6248 13.9044 35.7984C13.617 35.9691 13.3843 36.2248 13.2062 36.5655C13.0128 36.9356 12.9348 37.3067 12.9722 37.6787C13.0083 38.0462 13.1323 38.3813 13.3443 38.6842C13.5548 38.9826 13.8287 39.2207 14.1658 39.3984L14.9354 39.8043C15.3869 40.0424 15.8124 40.1656 16.2119 40.1739C16.613 40.1793 16.9723 40.0822 17.2898 39.8824C17.6045 39.6811 17.8623 39.3881 18.0634 39.0033C18.1939 38.7536 18.2777 38.5074 18.3148 38.2647C18.349 38.0204 18.3334 37.7855 18.268 37.5599C18.2027 37.3344 18.0852 37.1263 17.9155 36.9356L18.7915 35.807C19.1057 36.1001 19.3331 36.4486 19.4736 36.8524C19.6127 37.2517 19.6572 37.6855 19.607 38.1536C19.5554 38.6172 19.4006 39.0958 19.1427 39.5893Z"
        fill="#061C4B" />
    <path
        d="M16.2965 45.7198L9.14294 43.0476L9.65903 41.6535L16.8126 44.3258L16.2965 45.7198ZM8.29981 41.9312C8.21005 42.1737 8.05223 42.3518 7.82633 42.4655C7.59849 42.575 7.37124 42.5874 7.14459 42.5027C6.91483 42.4169 6.75087 42.2584 6.65271 42.0271C6.55259 41.7916 6.54741 41.5526 6.63717 41.3101C6.72692 41.0677 6.88572 40.8917 7.11357 40.7823C7.33946 40.6685 7.56729 40.6546 7.79704 40.7404C8.0237 40.825 8.18708 40.9851 8.2872 41.2207C8.38536 41.4519 8.38956 41.6888 8.29981 41.9312Z"
        fill="#061C4B" />
    <path
        d="M4.15212 52.0774L12.8506 51.0539L12.8745 50.9421L5.36032 46.4231L5.70731 44.7992L14.8948 50.5283L14.5239 52.264L3.80513 53.7012L4.15212 52.0774Z"
        fill="#061C4B" />
    <path
        d="M8.30893 64.8362L8.82665 66.1023C8.67016 66.1941 8.52876 66.3165 8.40246 66.4695C8.27546 66.6193 8.18509 66.8053 8.13134 67.0273C8.07759 67.2493 8.08327 67.511 8.14837 67.8123C8.23727 68.2237 8.40377 68.547 8.64785 68.7821C8.8887 69.0179 9.15323 69.1044 9.44144 69.0416C9.69079 68.9872 9.87161 68.8511 9.98391 68.6333C10.0962 68.4154 10.1565 68.0902 10.1647 67.6576L10.1805 66.4126C10.1908 65.6912 10.3247 65.126 10.5822 64.7171C10.8397 64.3081 11.2324 64.0461 11.7602 63.9311C12.2071 63.8336 12.6334 63.8764 13.0392 64.0593C13.441 64.2397 13.7904 64.5383 14.0873 64.9553C14.3835 65.369 14.5968 65.8771 14.727 66.4797C14.9076 67.3155 14.8768 68.0363 14.6347 68.642C14.3894 69.2485 13.9493 69.6836 13.3146 69.9475L12.7974 68.5898C13.1444 68.4225 13.3825 68.1823 13.5115 67.8693C13.6373 67.5569 13.6529 67.182 13.5584 66.7447C13.4555 66.2684 13.2745 65.9093 13.0153 65.6673C12.753 65.426 12.4777 65.3368 12.1895 65.3996C11.9563 65.4504 11.7793 65.5806 11.6584 65.7902C11.5368 65.9965 11.4741 66.2866 11.4701 66.6606L11.4662 67.9844C11.4581 68.7156 11.3168 69.2857 11.0424 69.695C10.7673 70.1009 10.3642 70.3618 9.83312 70.4776C9.39271 70.5737 8.98075 70.5346 8.59724 70.3604C8.21373 70.1862 7.88278 69.9022 7.60439 69.5083C7.32277 69.1151 7.1214 68.6383 7.0003 68.0779C6.82599 67.2712 6.86366 66.5981 7.11329 66.0586C7.35969 65.5198 7.75824 65.1123 8.30893 64.8362Z"
        fill="#061C4B" />
    <path
        d="M13.3397 77.3653L17.5369 75.65L18.0949 77.0278L11.0261 79.9166L10.4904 78.5942L11.641 78.124L11.6055 78.0364C11.1652 78.0266 10.7613 77.8945 10.3937 77.6401C10.0248 77.3827 9.73273 76.9883 9.51748 76.4568C9.32214 75.9745 9.2523 75.5107 9.30798 75.0655C9.36058 74.6215 9.54434 74.2188 9.85925 73.8573C10.1742 73.4959 10.6231 73.1961 11.206 72.9579L15.7023 71.1203L16.2603 72.4981L11.9297 74.2679C11.4173 74.4773 11.0711 74.7746 10.8909 75.1597C10.7077 75.5461 10.7107 75.9728 10.8998 76.4397C11.0292 76.7592 11.2133 77.0151 11.4522 77.2075C11.6898 77.3969 11.9713 77.5092 12.2967 77.5445C12.6177 77.578 12.9654 77.5182 13.3397 77.3653Z"
        fill="#061C4B" />
    <path
        d="M20.8595 81.446C21.2442 82.0498 21.4418 82.6655 21.4524 83.2929C21.4631 83.9204 21.2995 84.5181 20.9617 85.0858C20.6238 85.6536 20.1231 86.1507 19.4595 86.5772C18.7932 87.0055 18.1312 87.2556 17.4736 87.3276C16.8161 87.3996 16.206 87.2992 15.6432 87.0266C15.0805 86.7539 14.6069 86.3157 14.2223 85.7118C13.8377 85.108 13.64 84.4924 13.6294 83.8649C13.6187 83.2374 13.7837 82.6389 14.1243 82.0693C14.4649 81.4998 14.9684 81.0008 15.6348 80.5725C16.2984 80.1461 16.9576 79.8977 17.6124 79.8275C18.2671 79.7574 18.8759 79.8586 19.4386 80.1313C20.0013 80.4039 20.4749 80.8422 20.8595 81.446ZM19.8071 82.1165C19.5578 81.7251 19.2481 81.4672 18.878 81.3426C18.5078 81.218 18.1121 81.2044 17.6908 81.3018C17.2678 81.3965 16.8499 81.5764 16.4372 81.8416C16.0274 82.105 15.691 82.4098 15.4282 82.756C15.1608 83.1012 15.0045 83.4696 14.9592 83.8612C14.9139 84.2528 15.0159 84.6443 15.2652 85.0356C15.5162 85.4298 15.8291 85.6897 16.2038 85.8153C16.5768 85.938 16.9762 85.9512 17.402 85.8548C17.8233 85.7574 18.2389 85.577 18.6488 85.3136C19.0614 85.0483 19.4 84.744 19.6646 84.4006C19.9275 84.0544 20.0801 83.6864 20.1226 83.2966C20.1634 82.904 20.0582 82.5107 19.8071 82.1165Z"
        fill="#061C4B" />
    <path
        d="M23.7409 92.5536L27.0432 89.4467L28.0569 90.5339L20.6413 97.5109L19.6412 96.4383L22.4003 93.8423L22.3358 93.7732C21.9145 93.924 21.4902 93.9477 21.0631 93.8444C20.636 93.7411 20.2201 93.4725 19.8155 93.0386C19.4584 92.6556 19.2249 92.2473 19.1151 91.8136C19.0031 91.3775 19.0293 90.9342 19.1937 90.4837C19.3535 90.033 19.6652 89.5896 20.1286 89.1535L23.6662 85.8251L24.68 86.9123L21.2727 90.1181C20.8648 90.5019 20.6469 90.9049 20.619 91.327C20.5888 91.7514 20.7488 92.1514 21.0992 92.5272C21.3388 92.7841 21.6078 92.9633 21.9063 93.0647C22.2025 93.1637 22.5099 93.1726 22.8284 93.0914C23.1423 93.01 23.4464 92.8307 23.7409 92.5536Z"
        fill="#061C4B" />
    <path
        d="M24.5869 97.5815L25.3256 96.6445L28.59 99.2411L27.8513 100.178L24.5869 97.5815ZM25.8432 100.919L24.6799 99.9932L29.152 94.3203C29.3305 94.0938 29.4312 93.8965 29.454 93.7284C29.4748 93.5628 29.4484 93.4169 29.3749 93.2906C29.2968 93.1649 29.1941 93.0515 29.067 92.9504C28.9737 92.8762 28.8868 92.8177 28.8065 92.775C28.7262 92.7323 28.6636 92.6994 28.6185 92.6762L29.1686 91.5447C29.2566 91.5724 29.3731 91.6227 29.5181 91.6957C29.6652 91.7661 29.8331 91.8743 30.0219 92.0202C30.3321 92.2585 30.5743 92.5401 30.7486 92.8651C30.9229 93.1901 30.9974 93.5373 30.972 93.9067C30.9467 94.2762 30.7914 94.6418 30.5062 95.0036L25.8432 100.919Z"
        fill="#061C4B" />
    <path
        d="M37.0003 96.7561C37.4182 97.0001 37.7512 97.2981 37.9994 97.6502C38.2458 98.0051 38.3815 98.3895 38.4064 98.8031C38.4285 99.2151 38.3142 99.6377 38.0635 100.071C37.8478 100.444 37.5986 100.709 37.3161 100.866C37.0336 101.024 36.73 101.102 36.4053 101.1C36.0807 101.099 35.7474 101.046 35.4053 100.943C35.0633 100.839 34.7255 100.715 34.3919 100.57C33.9703 100.385 33.6282 100.235 33.3654 100.12C33.101 100.008 32.893 99.954 32.7416 99.9577C32.5901 99.9614 32.4696 100.041 32.3799 100.196L32.3625 100.226C32.1451 100.602 32.0825 100.955 32.1749 101.285C32.2643 101.613 32.5166 101.899 32.9316 102.141C33.3638 102.393 33.7601 102.496 34.1203 102.449C34.476 102.404 34.7683 102.292 34.9972 102.115L36.0444 103.095C35.6689 103.413 35.2724 103.615 34.8549 103.701C34.4328 103.789 34.0091 103.783 33.5837 103.684C33.1566 103.589 32.7442 103.425 32.3463 103.192C32.083 103.039 31.8221 102.844 31.5638 102.609C31.301 102.375 31.0881 102.101 30.9251 101.787C30.7592 101.472 30.6812 101.113 30.6911 100.712C30.6994 100.314 30.8429 99.874 31.1217 99.392L33.6611 95.0026L34.9148 95.7345L34.392 96.6382L34.4435 96.6683C34.6228 96.5503 34.8419 96.4595 35.1009 96.3957C35.3599 96.332 35.6503 96.3231 35.9722 96.369C36.2941 96.4149 36.6368 96.5439 37.0003 96.7561ZM36.1237 97.626C35.7688 97.4188 35.4247 97.312 35.0915 97.3055C34.7554 97.2974 34.456 97.3682 34.1932 97.518C33.9259 97.669 33.7167 97.875 33.5657 98.1361L33.0727 98.9881C33.1451 98.969 33.2587 98.9777 33.4136 99.0144C33.564 99.0523 33.7305 99.1054 33.9131 99.1736C34.0941 99.2447 34.2699 99.3147 34.4406 99.3837C34.6097 99.4555 34.7513 99.5151 34.8655 99.5626C35.1328 99.6764 35.3911 99.7562 35.6403 99.8019C35.8867 99.846 36.1121 99.8336 36.3165 99.7649C36.5164 99.6974 36.6827 99.5488 36.8155 99.3193C36.9997 99.0009 37.0218 98.6914 36.8817 98.3908C36.7399 98.0932 36.4872 97.8382 36.1237 97.626Z"
        fill="#061C4B" />
    <path
        d="M43.8798 102.85L43.261 104.556L43.0187 104.466L39.0487 106.436L37.3807 105.816L41.9063 103.575L42.1253 103.656L43.8798 102.85ZM46.0576 100.897L42.5333 110.45L41.1402 109.931L44.6645 100.379L46.0576 100.897ZM41.5382 99.2149L42.8445 103.574L41.5251 104.191L39.8283 98.5784L41.5382 99.2149Z"
        fill="#061C4B" />
    <path
        d="M50.6824 101.792C51.409 101.928 52.0041 102.209 52.4678 102.636C52.9277 103.066 53.2438 103.598 53.4161 104.234C53.5885 104.87 53.605 105.564 53.4659 106.317C53.3249 107.08 53.0571 107.726 52.6625 108.256C52.2673 108.789 51.7787 109.171 51.1965 109.403C50.6143 109.635 49.9697 109.685 49.2627 109.553C48.6925 109.447 48.2038 109.246 47.7966 108.951C47.3888 108.659 47.083 108.299 46.8792 107.87C46.6722 107.44 46.5893 106.968 46.6305 106.453L48.0527 106.718C48.0658 107.085 48.189 107.421 48.4222 107.728C48.6522 108.034 49.0001 108.23 49.466 108.317C49.8733 108.393 50.25 108.352 50.596 108.194C50.9382 108.039 51.2304 107.78 51.4728 107.417C51.7145 107.057 51.8848 106.61 51.9836 106.076C52.0848 105.528 52.0891 105.04 51.9964 104.612C51.9038 104.183 51.7261 103.831 51.4635 103.556C51.1976 103.281 50.8577 103.104 50.4439 103.027C50.167 102.976 49.9068 102.979 49.6633 103.038C49.4159 103.1 49.1979 103.213 49.0092 103.377C48.8173 103.54 48.6653 103.751 48.5534 104.01L47.1312 103.744C47.2731 103.269 47.5113 102.865 47.8457 102.532C48.1801 102.2 48.5891 101.967 49.0726 101.831C49.5528 101.694 50.0894 101.682 50.6824 101.792Z"
        fill="#061C4B" />
    <path
        d="M59.5415 102.603C60.0254 102.608 60.4619 102.702 60.8512 102.885C61.2404 103.071 61.5475 103.338 61.7726 103.685C61.9944 104.032 62.1028 104.456 62.0976 104.956C62.0932 105.387 62.0066 105.741 61.8381 106.017C61.6695 106.294 61.4435 106.512 61.1601 106.672C60.8767 106.831 60.5606 106.95 60.2118 107.03C59.8629 107.109 59.5076 107.168 59.1459 107.207C58.688 107.256 58.3164 107.295 58.031 107.325C57.7456 107.359 57.5379 107.414 57.4078 107.493C57.2777 107.571 57.2118 107.699 57.2099 107.878L57.2096 107.913C57.2051 108.347 57.3243 108.685 57.567 108.926C57.8065 109.167 58.1665 109.29 58.6471 109.295C59.1475 109.301 59.5431 109.194 59.8337 108.975C60.121 108.759 60.3207 108.517 60.4328 108.25L61.8265 108.583C61.656 109.045 61.4102 109.417 61.0891 109.699C60.7646 109.984 60.3929 110.189 59.974 110.314C59.5551 110.442 59.1152 110.503 58.6546 110.499C58.3497 110.495 58.0269 110.456 57.6863 110.379C57.3423 110.306 57.0222 110.173 56.7259 109.981C56.4262 109.789 56.1821 109.517 55.9935 109.163C55.8049 108.813 55.7134 108.36 55.7192 107.803L55.7715 102.732L57.2231 102.748L57.2123 103.791L57.272 103.792C57.3701 103.601 57.5162 103.413 57.7104 103.23C57.9045 103.046 58.153 102.895 58.4558 102.775C58.7587 102.656 59.1206 102.598 59.5415 102.603ZM59.206 103.792C58.7951 103.788 58.4429 103.866 58.1496 104.025C57.853 104.184 57.6271 104.394 57.4719 104.654C57.3134 104.918 57.2326 105.2 57.2295 105.502L57.2193 106.486C57.2729 106.434 57.3762 106.385 57.5291 106.34C57.6787 106.299 57.8498 106.263 58.0423 106.231C58.2349 106.204 58.4224 106.177 58.605 106.153C58.7875 106.131 58.9401 106.113 59.0629 106.098C59.3516 106.064 59.6158 106.006 59.8553 105.922C60.0915 105.838 60.2817 105.716 60.4258 105.555C60.5667 105.398 60.6385 105.186 60.6412 104.921C60.645 104.553 60.512 104.273 60.2422 104.082C59.9723 103.893 59.627 103.797 59.206 103.792Z"
        fill="#061C4B" />
    <path
        d="M69.3705 106.3L68.6152 101.829L70.0806 101.579L71.7766 111.619L70.3309 111.865L69.6998 108.13L69.6067 108.146C69.4987 108.581 69.2836 108.949 68.9612 109.249C68.6388 109.549 68.1852 109.75 67.6004 109.849C67.0842 109.937 66.6153 109.908 66.1939 109.761C65.7692 109.615 65.4151 109.349 65.1315 108.964C64.8452 108.582 64.649 108.078 64.543 107.45L63.7339 102.661L65.1993 102.411L65.9786 107.024C66.0719 107.576 66.2863 107.98 66.6219 108.236C66.9581 108.494 67.3794 108.581 67.8858 108.494C68.2321 108.435 68.5301 108.309 68.7797 108.115C69.026 107.922 69.2036 107.67 69.3124 107.359C69.4185 107.051 69.4379 106.698 69.3705 106.3Z"
        fill="#061C4B" />
    <path d="M79.2318 109.251L75.4853 99.7832L76.8658 99.2319L80.6123 108.699L79.2318 109.251Z" fill="#061C4B" />
    <path d="M83.1304 107.58L78.68 98.4228L80.0147 97.7683L84.4651 106.926L83.1304 107.58Z" fill="#061C4B" />
    <path
        d="M84.8428 94.7055C85.2474 94.44 85.6619 94.2749 86.0865 94.2104C86.5128 94.1486 86.9156 94.1994 87.2947 94.3629C87.6711 94.5282 87.9957 94.8206 88.2686 95.2401C88.5035 95.6013 88.6276 95.944 88.6409 96.2683C88.6542 96.5926 88.5873 96.9002 88.4403 97.1909C88.2934 97.4816 88.097 97.7572 87.8512 98.0176C87.6055 98.278 87.3433 98.5254 87.0648 98.7597C86.7113 99.0552 86.4245 99.295 86.2043 99.4792C85.9859 99.6661 85.8443 99.8284 85.7796 99.966C85.7149 100.104 85.7314 100.247 85.829 100.397L85.8479 100.427C86.0847 100.791 86.3706 101.005 86.7058 101.071C87.0382 101.138 87.4053 101.04 87.8071 100.776C88.2255 100.502 88.4947 100.192 88.6146 99.8477C88.7337 99.5079 88.7657 99.1955 88.7107 98.9104L90.0522 98.4106C90.1666 98.8905 90.1686 99.3372 90.058 99.7507C89.9464 100.169 89.7513 100.547 89.4727 100.884C89.1959 101.224 88.8649 101.521 88.4797 101.774C88.2248 101.941 87.9347 102.088 87.6096 102.214C87.2835 102.345 86.9442 102.413 86.5918 102.418C86.2367 102.425 85.8829 102.334 85.5307 102.145C85.1802 101.959 84.8531 101.633 84.5495 101.166L81.7845 96.915L82.9981 96.1184L83.5674 96.9936L83.6173 96.9609C83.5928 96.747 83.6103 96.5095 83.6698 96.2484C83.7294 95.9874 83.8518 95.7227 84.037 95.4544C84.2223 95.1861 84.4909 94.9365 84.8428 94.7055ZM85.2232 95.883C84.8797 96.1085 84.6302 96.3694 84.4749 96.6656C84.3169 96.9635 84.2455 97.2641 84.2608 97.5673C84.2752 97.875 84.3646 98.1553 84.529 98.4081L85.0658 99.2333C85.0812 99.1597 85.14 99.0617 85.2421 98.9391C85.3433 98.8212 85.4653 98.6956 85.6079 98.5623C85.7523 98.4318 85.8935 98.3054 86.0315 98.1832C86.1712 98.0637 86.2878 97.9634 86.3813 97.8822C86.6025 97.6934 86.7894 97.4974 86.9419 97.2943C87.0916 97.0929 87.1818 96.8851 87.2124 96.6707C87.242 96.461 87.1845 96.245 87.04 96.0227C86.8394 95.7143 86.5739 95.5555 86.2437 95.5463C85.9153 95.5398 85.5752 95.652 85.2232 95.883Z"
        fill="#061C4B" />
    <path
        d="M96.2964 83.9492L103.574 87.1509L102.588 88.3292L97.3426 85.86L97.2947 85.9172L100.617 90.6859L99.6313 91.8643L94.4078 89.4073L94.36 89.4645L97.6728 94.2057L96.6872 95.384L92.2901 88.7388L93.263 87.5757L98.4716 89.9421L98.5449 89.8544L95.3267 85.1085L96.2964 83.9492Z"
        fill="#061C4B" />
    <path
        d="M99.5509 78.2151C99.8994 77.5483 100.342 77.0491 100.878 76.7173C101.415 76.39 102.012 76.2325 102.667 76.2447C103.324 76.2614 104.003 76.4545 104.704 76.824C105.396 77.1888 105.938 77.6396 106.331 78.1764C106.722 78.7161 106.943 79.2976 106.995 79.9208C107.046 80.5469 106.907 81.1743 106.578 81.8029C106.379 82.1848 106.122 82.5216 105.809 82.8135C105.495 83.1054 105.129 83.3227 104.711 83.4654C104.292 83.6081 103.824 83.6481 103.308 83.5853C102.794 83.5241 102.23 83.3319 101.617 83.0088L101.151 82.763L103.963 77.3831L104.948 77.9025L102.811 81.9914C103.157 82.1739 103.5 82.2649 103.841 82.2646C104.184 82.2659 104.5 82.1797 104.789 82.006C105.077 81.8354 105.309 81.5797 105.487 81.2389C105.681 80.8688 105.759 80.4978 105.721 80.1258C105.685 79.7583 105.561 79.4231 105.349 79.1203C105.139 78.8219 104.865 78.5838 104.528 78.406L103.758 78.0002C103.307 77.7621 102.881 77.6389 102.482 77.6305C102.081 77.6251 101.721 77.7223 101.404 77.922C101.089 78.1233 100.831 78.4164 100.63 78.8012C100.5 79.0508 100.416 79.297 100.379 79.5398C100.345 79.784 100.36 80.019 100.426 80.2445C100.491 80.4701 100.608 80.6782 100.778 80.8688L99.9021 81.9975C99.5879 81.7043 99.3605 81.3559 99.22 80.952C99.0809 80.5527 99.0364 80.119 99.0866 79.6508C99.1382 79.1872 99.293 78.7086 99.5509 78.2151Z"
        fill="#061C4B" />
    <path
        d="M102.397 72.0846L109.551 74.7569L109.035 76.1509L101.881 73.4786L102.397 72.0846ZM110.394 75.8732C110.484 75.6308 110.641 75.4527 110.867 75.3389C111.095 75.2294 111.322 75.217 111.549 75.3017C111.779 75.3875 111.943 75.5461 112.041 75.7773C112.141 76.0129 112.146 76.2519 112.056 76.4943C111.967 76.7367 111.808 76.9127 111.58 77.0222C111.354 77.1359 111.126 77.1499 110.897 77.0641C110.67 76.9794 110.507 76.8193 110.406 76.5838C110.308 76.3525 110.304 76.1156 110.394 75.8732Z"
        fill="#061C4B" />
    <path
        d="M114.541 65.7271L105.843 66.7505L105.819 66.8624L113.333 71.3814L112.986 73.0052L103.799 67.2761L104.17 65.5404L114.888 64.1032L114.541 65.7271Z"
        fill="#061C4B" />
    <path
        d="M109.589 59.0413C109.589 59.6164 109.125 60.0826 108.553 60.0826C107.98 60.0826 107.516 59.6164 107.516 59.0413C107.516 58.4662 107.98 58 108.553 58C109.125 58 109.589 58.4662 109.589 59.0413Z"
        fill="#061C4B" />
    <path
        d="M11.033 59.0413C11.033 59.6164 10.5689 60.0826 9.99636 60.0826C9.42384 60.0826 8.95972 59.6164 8.95972 59.0413C8.95972 58.4662 9.42384 58 9.99636 58C10.5689 58 11.033 58.4662 11.033 59.0413Z"
        fill="#061C4B" />
    <defs>
        <filter id="filter0_b_594_614" x="-17" y="-17" width="152.467" height="153" filterUnits="userSpaceOnUse"
            color-interpolation-filters="sRGB">
            <feFlood flood-opacity="0" result="BackgroundImageFix" />
            <feGaussianBlur in="BackgroundImageFix" stdDeviation="8.5" />
            <feComposite in2="SourceAlpha" operator="in" result="effect1_backgroundBlur_594_614" />
            <feBlend mode="normal" in="SourceGraphic" in2="effect1_backgroundBlur_594_614" result="shape" />
        </filter>
    </defs>
</svg>