<svg width="40" height="40" viewBox="0 0 40 40" fill="none" xmlns="http://www.w3.org/2000/svg">
<path fill-rule="evenodd" clip-rule="evenodd" d="M2.84395 18.5586V26.1514C1.10828 24.017 -0.222597 20.5641 2.84395 18.5586Z" fill="url(#paint0_linear_379_46378)"/>
<path fill-rule="evenodd" clip-rule="evenodd" d="M36.6128 18.5586V26.1514C38.3485 24.017 39.6793 20.5641 36.6128 18.5586Z" fill="url(#paint1_linear_379_46378)"/>
<path fill-rule="evenodd" clip-rule="evenodd" d="M6.75671 29.083L8.06305 33.5111C6.81804 32.8794 6.25379 31.8 6.10047 31.3584C5.83674 30.5795 5.87968 29.6534 6.75671 29.083Z" fill="#37485B"/>
<path fill-rule="evenodd" clip-rule="evenodd" d="M19.7283 3.98047C28.0018 3.98047 34.7114 10.6901 34.7114 18.9636C34.7114 27.2371 28.0018 33.9467 19.7283 33.9467C11.4547 33.9467 4.74512 27.2371 4.74512 18.9636C4.74512 10.6901 11.4547 3.98047 19.7283 3.98047Z" fill="url(#paint2_linear_379_46378)"/>
<path style="mix-blend-mode:multiply" fill-rule="evenodd" clip-rule="evenodd" d="M19.7281 28.4392C26.818 28.4392 32.5647 22.6925 32.5647 15.6027C32.5647 13.7934 32.1906 12.07 31.5159 10.5122C33.2577 12.9102 34.2819 15.8603 34.2819 19.0495C34.2819 27.0838 27.7686 33.6033 19.7281 33.6033C11.6877 33.6033 5.17432 27.0899 5.17432 19.0495C5.17432 15.8603 6.19854 12.9102 7.94034 10.5122C7.2657 12.07 6.89158 13.7934 6.89158 15.6027C6.89158 22.6925 12.6383 28.4392 19.7281 28.4392Z" fill="url(#paint3_radial_379_46378)"/>
<path fill-rule="evenodd" clip-rule="evenodd" d="M19.7282 4.60601C27.6583 4.60601 34.0858 11.0335 34.0858 18.9636C34.0858 26.8937 27.6583 33.3211 19.7282 33.3211C11.7981 33.3211 5.37066 26.8875 5.37066 18.9636C5.37066 11.0396 11.7981 4.60601 19.7282 4.60601ZM36.122 18.9636C36.122 9.91113 28.7807 2.56982 19.7282 2.56982C10.6758 2.56982 3.33447 9.91113 3.33447 18.9636C3.33447 28.016 10.6758 35.3573 19.7282 35.3573C28.7807 35.3573 36.122 28.016 36.122 18.9636Z" fill="url(#paint4_linear_379_46378)"/>
<path fill-rule="evenodd" clip-rule="evenodd" d="M19.7283 35.3512C28.7807 35.3512 36.122 28.0099 36.122 18.9575C36.122 9.90505 28.7807 2.56988 19.7283 2.56988C10.6758 2.56988 3.33452 9.91118 3.33452 18.9636C3.33452 28.0161 10.6758 35.3574 19.7283 35.3574V35.3512ZM38.1582 18.9575C38.1582 29.1323 29.9092 37.3874 19.7283 37.3874C9.54734 37.3874 1.29834 29.1384 1.29834 18.9636C1.29834 8.78883 9.55348 0.533691 19.7283 0.533691C29.9031 0.533691 38.1582 8.78269 38.1582 18.9636V18.9575Z" fill="url(#paint5_linear_379_46378)"/>
<path style="mix-blend-mode:screen" fill-rule="evenodd" clip-rule="evenodd" d="M19.7282 33.3151C11.7981 33.3151 5.37066 26.8876 5.37066 18.9575C5.07014 19.0066 4.72055 19.0311 4.35257 19.0311C3.98458 19.0311 3.63499 19.0066 3.33447 18.9575C3.33447 28.01 10.6758 35.3513 19.7282 35.3513C28.7807 35.3513 36.122 28.01 36.122 18.9575C35.8214 19.0066 35.4719 19.0311 35.1039 19.0311C34.7359 19.0311 34.3863 19.0066 34.0858 18.9575C34.0858 26.8876 27.6583 33.3151 19.7282 33.3151Z" fill="url(#paint6_linear_379_46378)"/>
<path style="mix-blend-mode:screen" fill-rule="evenodd" clip-rule="evenodd" d="M3.33452 18.9636C3.33452 9.91118 10.6758 2.56988 19.7283 2.56988C28.7807 2.56988 36.122 9.91118 36.122 18.9636C36.4225 18.9146 36.7721 18.89 37.1401 18.89C37.5081 18.89 37.8577 18.9146 38.1582 18.9636C38.1582 8.78269 29.9031 0.533691 19.7283 0.533691C9.55348 0.533691 1.29834 8.78269 1.29834 18.9636C1.59886 18.9146 1.94845 18.89 2.31643 18.89C2.68442 18.89 3.034 18.9146 3.33452 18.9636Z" fill="url(#paint7_linear_379_46378)"/>
<path style="mix-blend-mode:screen" fill-rule="evenodd" clip-rule="evenodd" d="M19.7282 33.3151C11.7981 33.3151 5.37061 26.8876 5.37061 18.9575C5.37061 27.2311 11.7981 33.9407 19.7282 33.9407C27.6582 33.9407 34.0857 27.2311 34.0857 18.9575C34.0857 26.8876 27.6582 33.3151 19.7282 33.3151Z" fill="url(#paint8_radial_379_46378)"/>
<path style="mix-blend-mode:multiply" fill-rule="evenodd" clip-rule="evenodd" d="M19.7283 5.36646C26.2785 5.36646 31.8105 9.48176 33.5646 15.1242C31.8841 9.05858 26.3275 4.60596 19.7283 4.60596C13.1291 4.60596 7.56642 9.05858 5.89209 15.1242C7.64615 9.4879 13.1782 5.36646 19.7283 5.36646Z" fill="url(#paint9_radial_379_46378)"/>
<path style="mix-blend-mode:screen" opacity="0.5" fill-rule="evenodd" clip-rule="evenodd" d="M19.7284 22.6376C25.6959 22.6376 30.5349 18.9271 30.5349 14.3456C30.5349 9.76423 25.6959 6.05371 19.7284 6.05371C13.7609 6.05371 8.92188 9.76423 8.92188 14.3456C8.92188 18.9271 13.7609 22.6376 19.7284 22.6376Z" fill="url(#paint10_radial_379_46378)"/>
<path style="mix-blend-mode:screen" opacity="0.5" fill-rule="evenodd" clip-rule="evenodd" d="M19.728 12.7078C23.506 12.7078 26.5664 11.2911 26.5664 9.53702C26.5664 7.78295 23.506 6.36621 19.728 6.36621C15.9501 6.36621 12.8896 7.78295 12.8896 9.53702C12.8896 11.2911 15.9501 12.7078 19.728 12.7078Z" fill="url(#paint11_radial_379_46378)"/>
<path fill-rule="evenodd" clip-rule="evenodd" d="M19.7283 37.1669C19.5075 36.4309 18.0723 32.7572 15.9687 31.8249C11.927 30.028 8.02635 28.6357 5.52405 27.035C3.26094 25.5876 1.18796 23.9317 1.00396 21.6992C0.930365 24.0053 1.89939 27.6115 2.46364 28.323C4.44462 30.8007 9.2407 32.3217 15.2941 34.64C17.1217 35.3392 18.1582 36.0445 19.716 37.1669H19.7283Z" fill="url(#paint12_radial_379_46378)"/>
<path style="mix-blend-mode:screen" fill-rule="evenodd" clip-rule="evenodd" d="M19.7283 37.1669C19.5075 36.4309 18.0723 32.7572 15.9687 31.8249C11.927 30.028 8.02635 28.6357 5.52405 27.035C3.26094 25.5876 1.18796 23.9317 1.00396 21.6992C0.930365 24.0053 1.89939 27.6115 2.46364 28.323C4.44462 30.8007 9.2407 32.3217 15.2941 34.64C17.1217 35.3392 18.1582 36.0445 19.716 37.1669H19.7283Z" fill="url(#paint13_radial_379_46378)"/>
<path fill-rule="evenodd" clip-rule="evenodd" d="M19.7285 37.1669C19.9493 36.4309 21.3844 32.7572 23.4881 31.8249C27.5298 30.028 31.4304 28.6357 33.9327 27.035C36.1959 25.5876 38.2688 23.9255 38.4528 21.6992C38.5264 24.0053 37.5574 27.6115 36.9932 28.323C35.0122 30.8007 30.2161 32.3217 24.1627 34.64C22.3351 35.3392 21.2986 36.0445 19.7408 37.1669H19.7285Z" fill="url(#paint14_radial_379_46378)"/>
<path style="mix-blend-mode:screen" fill-rule="evenodd" clip-rule="evenodd" d="M19.7285 37.1669C19.9493 36.4309 21.3844 32.7572 23.4881 31.8249C27.5298 30.028 31.4304 28.6357 33.9327 27.035C36.1959 25.5876 38.2688 23.9255 38.4528 21.6992C38.5264 24.0053 37.5574 27.6115 36.9932 28.323C35.0122 30.8007 30.2161 32.3217 24.1627 34.64C22.3351 35.3392 21.2986 36.0445 19.7408 37.1669H19.7285Z" fill="url(#paint15_radial_379_46378)"/>
<path style="mix-blend-mode:multiply" fill-rule="evenodd" clip-rule="evenodd" d="M3.59826 28.5683C3.02788 27.5625 2.56177 25.931 2.25511 24.41C1.55594 23.6005 1.08983 22.705 1.00396 21.6992C0.930365 24.0053 1.89939 27.6115 2.46364 28.323C3.28547 29.3533 4.59795 30.2181 6.27842 31.0399C4.73901 29.9973 3.92945 29.1509 3.59213 28.5683H3.59826Z" fill="url(#paint16_radial_379_46378)"/>
<path style="mix-blend-mode:multiply" opacity="0.5" fill-rule="evenodd" clip-rule="evenodd" d="M14.9753 32.2174C15.239 32.7755 15.0979 33.9776 14.2945 34.0696C14.1534 34.088 14.0001 34.0941 13.8529 34.088C14.3252 34.2659 14.8097 34.4499 15.3003 34.64C17.128 35.3392 18.1645 36.0445 19.7223 37.1668C19.5015 36.4309 18.0663 32.7571 15.9627 31.8249C14.9323 31.3649 13.9081 30.9295 12.9146 30.5186C13.7487 31.0215 14.6318 31.4937 14.9691 32.2174H14.9753Z" fill="url(#paint17_radial_379_46378)"/>
<path fill-rule="evenodd" clip-rule="evenodd" d="M19.7283 37.5346C16.1037 36.0259 11.7921 34.5785 8.60902 33.3764C7.59706 32.9961 6.68323 32.2356 6.10059 31.3647C6.65256 33.4439 7.66452 34.7318 8.52316 35.1059C11.4057 36.3448 16.2999 37.737 19.7283 39.3991V37.5408V37.5346Z" fill="url(#paint18_radial_379_46378)"/>
<path style="mix-blend-mode:multiply" opacity="0.5" fill-rule="evenodd" clip-rule="evenodd" d="M9.1426 35.302C8.12451 34.7623 7.33947 33.3517 6.95922 32.352C6.62803 32.0514 6.33978 31.7141 6.10059 31.3584C6.65256 33.4375 7.66452 34.7255 8.52316 35.0996C8.90954 35.2652 9.32659 35.4308 9.77431 35.6025C9.55965 35.5044 9.34499 35.4124 9.13646 35.302H9.1426Z" fill="url(#paint19_radial_379_46378)"/>
<path style="mix-blend-mode:multiply" fill-rule="evenodd" clip-rule="evenodd" d="M14.8464 36.0933C15.012 36.3202 15.2512 36.8906 15.104 37.1052C14.9875 37.2708 14.6256 37.2708 14.3497 37.2402C16.2264 37.9087 18.1399 38.6201 19.7284 39.399V37.5407C17.8149 36.7434 15.7112 35.9645 13.6812 35.2285C14.1534 35.4922 14.6011 35.7682 14.8464 36.0994V36.0933Z" fill="url(#paint20_radial_379_46378)"/>
<path style="mix-blend-mode:multiply" fill-rule="evenodd" clip-rule="evenodd" d="M35.8582 28.568C36.4285 27.5622 36.8947 25.9308 37.2013 24.4098C37.9005 23.6002 38.3666 22.7109 38.4463 21.7051C38.5199 24.0111 37.5509 27.6174 36.9867 28.3288C36.1648 29.3592 34.8523 30.2239 33.1719 31.0458C34.7113 30.0031 35.5208 29.1568 35.8582 28.5741V28.568Z" fill="url(#paint21_radial_379_46378)"/>
<path style="mix-blend-mode:multiply" opacity="0.5" fill-rule="evenodd" clip-rule="evenodd" d="M24.4814 32.2174C24.2177 32.7755 24.3587 33.9776 25.1622 34.0696C25.3032 34.088 25.4565 34.0941 25.6037 34.088C25.1315 34.2659 24.647 34.4499 24.1563 34.64C22.3287 35.3392 21.2922 36.0445 19.7344 37.1668C19.9552 36.4309 21.3903 32.7571 23.494 31.8249C24.5243 31.3649 25.5485 30.9295 26.5421 30.5186C25.708 31.0215 24.8248 31.4937 24.4875 32.2174H24.4814Z" fill="url(#paint22_radial_379_46378)"/>
<path fill-rule="evenodd" clip-rule="evenodd" d="M19.7285 37.5346C23.3532 36.0259 27.6647 34.5785 30.8478 33.3764C31.8598 32.9961 32.7736 32.2356 33.3562 31.3647C32.8043 33.4439 31.7923 34.7318 30.9337 35.1059C28.0511 36.3448 23.1569 37.737 19.7285 39.3991V37.5408V37.5346Z" fill="url(#paint23_radial_379_46378)"/>
<path style="mix-blend-mode:multiply" opacity="0.5" fill-rule="evenodd" clip-rule="evenodd" d="M30.3138 35.302C31.3319 34.7623 32.117 33.3517 32.4972 32.352C32.8284 32.0514 33.1167 31.7141 33.3558 31.3584C32.8039 33.4375 31.7919 34.7255 30.9333 35.0996C30.5469 35.2652 30.1298 35.4308 29.6821 35.6025C29.8968 35.5044 30.1114 35.4124 30.32 35.302H30.3138Z" fill="url(#paint24_radial_379_46378)"/>
<path style="mix-blend-mode:multiply" fill-rule="evenodd" clip-rule="evenodd" d="M24.6105 36.0933C24.4449 36.3202 24.2057 36.8906 24.3529 37.1052C24.4694 37.2708 24.8312 37.2708 25.1072 37.2402C23.2305 37.9087 21.317 38.6201 19.7285 39.399V37.5407C21.642 36.7434 23.7457 35.9645 25.7757 35.2285C25.3035 35.4922 24.8558 35.7682 24.6105 36.0994V36.0933Z" fill="url(#paint25_radial_379_46378)"/>
<path fill-rule="evenodd" clip-rule="evenodd" d="M15.9689 31.8248C11.9271 30.0278 8.02651 28.6356 5.52421 27.0348C3.27336 25.5936 1.21265 23.9499 1.01025 21.7358C1.31078 25.0968 4.67784 26.9244 7.40093 28.3228C10.1363 29.7273 12.9636 30.6902 15.7481 31.9413C17.7781 32.849 19.0415 35.4801 19.7284 37.1728C19.5076 36.4369 18.0725 32.7631 15.9689 31.8309V31.8248Z" fill="url(#paint26_linear_379_46378)"/>
<path fill-rule="evenodd" clip-rule="evenodd" d="M23.4881 31.8248C27.5298 30.0278 31.4304 28.6356 33.9327 27.0348C36.1836 25.5936 38.2443 23.9499 38.4467 21.7358C38.1462 25.0968 34.7791 26.9244 32.056 28.3228C29.3207 29.7273 26.4933 30.6902 23.7089 31.9413C21.6788 32.849 20.4154 35.4801 19.7285 37.1728C19.9493 36.4369 21.3844 32.7631 23.4881 31.8309V31.8248Z" fill="url(#paint27_linear_379_46378)"/>
<path fill-rule="evenodd" clip-rule="evenodd" d="M23.4943 35.7682C23.4943 33.689 21.8077 32.0024 19.7286 32.0024C17.6495 32.0024 15.9629 33.689 15.9629 35.7682C15.9629 37.8473 17.6495 39.5339 19.7286 39.5339C21.8077 39.5339 23.4943 37.8473 23.4943 35.7682Z" fill="url(#paint28_linear_379_46378)"/>
<path fill-rule="evenodd" clip-rule="evenodd" d="M19.7284 31.5303C22.0651 31.5303 23.9602 33.4254 23.9602 35.7621C23.9602 38.0988 22.0651 39.9939 19.7284 39.9939C17.3917 39.9939 15.4966 38.0988 15.4966 35.7621C15.4966 33.4254 17.3917 31.5303 19.7284 31.5303ZM19.7284 32.4625C17.9069 32.4625 16.4288 33.9406 16.4288 35.7621C16.4288 37.5836 17.9069 39.0617 19.7284 39.0617C21.5499 39.0617 23.028 37.5836 23.028 35.7621C23.028 33.9406 21.5499 32.4625 19.7284 32.4625Z" fill="url(#paint29_linear_379_46378)"/>
<path fill-rule="evenodd" clip-rule="evenodd" d="M23.9602 35.7685C23.9602 33.4317 22.0651 31.5366 19.7284 31.5366C17.3917 31.5366 15.4966 33.4317 15.4966 35.7685C15.4966 38.1052 17.3917 40.0003 19.7284 40.0003C22.0651 40.0003 23.9602 38.1052 23.9602 35.7685ZM19.7284 32.0027C21.8075 32.0027 23.4941 33.6893 23.4941 35.7685C23.4941 37.8476 21.8075 39.5342 19.7284 39.5342C17.6493 39.5342 15.9627 37.8476 15.9627 35.7685C15.9627 33.6893 17.6493 32.0027 19.7284 32.0027Z" fill="url(#paint30_linear_379_46378)"/>
<path fill-rule="evenodd" clip-rule="evenodd" d="M19.728 32.3706C19.5502 32.3829 19.2251 32.4442 18.8633 32.5423C18.5014 32.6405 18.1948 32.7447 18.0292 32.8245C17.8758 32.9226 17.6305 33.1372 17.3668 33.401C17.1031 33.6647 16.8884 33.9161 16.7903 34.0633C16.7105 34.2228 16.6001 34.5356 16.5082 34.8974C16.41 35.2593 16.3487 35.5782 16.3364 35.7622C16.3487 35.9401 16.41 36.2651 16.5082 36.627C16.6063 36.9888 16.7105 37.2955 16.7903 37.4611C16.8884 37.6144 17.1031 37.8597 17.3668 38.1234C17.6305 38.3872 17.882 38.6018 18.0292 38.7C18.1886 38.7797 18.5014 38.8901 18.8633 38.9821C19.2251 39.0741 19.544 39.1415 19.728 39.1538C19.9059 39.1415 20.2309 39.0802 20.5928 38.9821C20.9546 38.8839 21.2613 38.7797 21.4269 38.7C21.5802 38.6018 21.8255 38.3872 22.0893 38.1234C22.353 37.8597 22.5676 37.6083 22.6658 37.4611C22.7455 37.3016 22.8559 36.9888 22.9479 36.627C23.0399 36.2651 23.1074 35.9462 23.1196 35.7622C23.1074 35.5843 23.046 35.2593 22.9479 34.8974C22.8498 34.5356 22.7455 34.2289 22.6658 34.0633C22.5676 33.91 22.353 33.6647 22.0893 33.401C21.8255 33.1372 21.5741 32.9226 21.4269 32.8245C21.2674 32.7447 20.9546 32.6343 20.5928 32.5423C20.2309 32.4503 19.912 32.3829 19.728 32.3706Z" fill="#4692FF"/>
<path fill-rule="evenodd" clip-rule="evenodd" d="M19.7282 33.1924C19.5197 33.2108 19.2683 33.2782 19.0781 33.3334C18.888 33.3886 18.6304 33.4561 18.4464 33.5358C18.2808 33.6585 18.0907 33.8425 17.9496 33.9836C17.8086 34.1246 17.6246 34.3086 17.5019 34.4803C17.4161 34.6705 17.3486 34.928 17.2934 35.112C17.2443 35.3022 17.1769 35.5598 17.1523 35.7621C17.1707 35.9707 17.2382 36.2221 17.2934 36.4123C17.3486 36.6024 17.4161 36.86 17.5019 37.044C17.6246 37.2096 17.8086 37.3997 17.9496 37.5407C18.0907 37.6818 18.2747 37.8658 18.4464 37.9885C18.6366 38.0743 18.8941 38.1418 19.0781 38.197C19.2683 38.246 19.5258 38.3135 19.7282 38.338C19.9306 38.3196 20.1882 38.2522 20.3783 38.197C20.5685 38.1479 20.8261 38.0743 21.0101 37.9885C21.1756 37.8658 21.3658 37.6818 21.5068 37.5407C21.6479 37.3997 21.8319 37.2157 21.9546 37.044C22.0404 36.8538 22.1079 36.5962 22.1631 36.4123C22.2183 36.2283 22.2796 35.9645 22.3041 35.7621C22.2857 35.5598 22.2183 35.3022 22.1631 35.112C22.1079 34.9219 22.0404 34.6643 21.9546 34.4803C21.8319 34.3147 21.6479 34.1246 21.5068 33.9836C21.3658 33.8425 21.1818 33.6585 21.0101 33.5358C20.8199 33.45 20.5623 33.3825 20.3783 33.3334C20.1944 33.2844 19.9306 33.2169 19.7282 33.1924Z" fill="url(#paint31_radial_379_46378)"/>
<path fill-rule="evenodd" clip-rule="evenodd" d="M17.9435 33.9834C18.0846 33.8423 18.2686 33.6583 18.4403 33.5357L18.0294 32.8242C17.8761 32.9223 17.6308 33.137 17.367 33.4007C17.1033 33.6645 16.8887 33.9159 16.7905 34.0631L17.502 34.474C17.6246 34.3084 17.8086 34.1183 17.9497 33.9772L17.9435 33.9834Z" fill="url(#paint32_radial_379_46378)"/>
<path fill-rule="evenodd" clip-rule="evenodd" d="M18.44 33.5359C18.6301 33.45 18.8877 33.3826 19.0717 33.3335C19.2557 33.2844 19.5194 33.217 19.7218 33.1924V32.3706C19.544 32.3829 19.2189 32.4442 18.857 32.5423C18.4952 32.6405 18.1885 32.7447 18.0229 32.8245L18.4339 33.5359H18.44Z" fill="url(#paint33_radial_379_46378)"/>
<path fill-rule="evenodd" clip-rule="evenodd" d="M19.7283 39.1597V38.3379C19.9307 38.3195 20.1883 38.252 20.3784 38.1968C20.5685 38.1477 20.8261 38.0741 21.0101 37.9883L21.421 38.6997C21.2616 38.7794 20.9488 38.8898 20.5869 38.9818C20.2251 39.0738 19.9062 39.1413 19.7222 39.1536L19.7283 39.1597Z" fill="url(#paint34_radial_379_46378)"/>
<path fill-rule="evenodd" clip-rule="evenodd" d="M21.427 38.7062L21.0161 37.9948C21.1817 37.8721 21.3718 37.6881 21.5129 37.5471C21.654 37.406 21.8379 37.222 21.9606 37.0503L22.672 37.4612C22.5739 37.6145 22.3593 37.8599 22.0955 38.1236C21.8318 38.3873 21.5804 38.602 21.4332 38.7001L21.427 38.7062Z" fill="url(#paint35_radial_379_46378)"/>
<path fill-rule="evenodd" clip-rule="evenodd" d="M22.666 37.4613L21.9546 37.0504C22.0405 36.8602 22.1079 36.6027 22.1631 36.4187C22.2122 36.2285 22.2796 35.9709 22.3042 35.7686H23.126C23.1137 35.9464 23.0524 36.2715 22.9543 36.6333C22.8562 36.9952 22.7519 37.3018 22.6722 37.4674L22.666 37.4613Z" fill="url(#paint36_radial_379_46378)"/>
<path fill-rule="evenodd" clip-rule="evenodd" d="M23.126 35.7684H22.3042C22.2858 35.566 22.2183 35.3084 22.1631 35.1183C22.1079 34.9282 22.0405 34.6706 21.9546 34.4866L22.666 34.0757C22.7458 34.2351 22.8562 34.5479 22.9481 34.9098C23.0463 35.2716 23.1076 35.5906 23.1199 35.7745L23.126 35.7684Z" fill="url(#paint37_radial_379_46378)"/>
<path fill-rule="evenodd" clip-rule="evenodd" d="M22.6657 34.0692L21.9543 34.4802C21.8316 34.3146 21.6476 34.1244 21.5065 33.9834C21.3655 33.8423 21.1815 33.6583 21.0098 33.5357L21.4207 32.8242C21.574 32.9223 21.8193 33.137 22.0831 33.4007C22.3468 33.6645 22.5614 33.9159 22.6596 34.0631L22.6657 34.0692Z" fill="url(#paint38_radial_379_46378)"/>
<path fill-rule="evenodd" clip-rule="evenodd" d="M21.4271 32.8245L21.0162 33.5359C20.8261 33.45 20.5685 33.3826 20.3845 33.3335C20.1944 33.2844 19.9368 33.217 19.7344 33.1924V32.3706C19.9122 32.3829 20.2373 32.4442 20.5991 32.5423C20.961 32.6405 21.2676 32.7447 21.4332 32.8245H21.4271Z" fill="url(#paint39_radial_379_46378)"/>
<path fill-rule="evenodd" clip-rule="evenodd" d="M19.7279 39.1597V38.3379C19.5194 38.3195 19.2679 38.252 19.0778 38.1968C18.8877 38.1477 18.6301 38.0741 18.4461 37.9883L18.0352 38.6997C18.1946 38.7794 18.5074 38.8898 18.8693 38.9818C19.2311 39.0738 19.55 39.1413 19.734 39.1536L19.7279 39.1597Z" fill="url(#paint40_radial_379_46378)"/>
<path fill-rule="evenodd" clip-rule="evenodd" d="M18.0292 38.7062L18.4401 37.9948C18.2745 37.8721 18.0844 37.6881 17.9433 37.5471C17.8023 37.406 17.6183 37.222 17.4956 37.0503L16.7842 37.4612C16.8823 37.6145 17.097 37.8599 17.3607 38.1236C17.6244 38.3873 17.8759 38.602 18.0231 38.7001L18.0292 38.7062Z" fill="url(#paint41_radial_379_46378)"/>
<path fill-rule="evenodd" clip-rule="evenodd" d="M16.7905 37.4613L17.502 37.0504C17.4161 36.8602 17.3487 36.6027 17.2935 36.4187C17.2383 36.2347 17.1769 35.9709 17.1524 35.7686H16.3306C16.3428 35.9464 16.4042 36.2715 16.5023 36.6333C16.6004 36.9952 16.7047 37.3018 16.7844 37.4674L16.7905 37.4613Z" fill="url(#paint42_radial_379_46378)"/>
<path fill-rule="evenodd" clip-rule="evenodd" d="M16.3306 35.7684H17.1524C17.1708 35.5599 17.2383 35.3084 17.2935 35.1183C17.3425 34.9282 17.4161 34.6706 17.502 34.4866L16.7905 34.0757C16.7108 34.2351 16.6004 34.5479 16.5084 34.9098C16.4103 35.2716 16.349 35.5906 16.3367 35.7745L16.3306 35.7684Z" fill="url(#paint43_radial_379_46378)"/>
<path style="mix-blend-mode:screen" fill-rule="evenodd" clip-rule="evenodd" d="M18.0292 32.8242C18.4401 33.5357 17.4956 34.4802 16.7842 34.0692L17.4956 34.4802C17.6183 34.3146 17.8023 34.1244 17.9433 33.9834C18.0844 33.8423 18.2684 33.6583 18.4401 33.5357L18.0292 32.8242Z" fill="url(#paint44_radial_379_46378)"/>
<path style="mix-blend-mode:screen" opacity="0.65" fill-rule="evenodd" clip-rule="evenodd" d="M16.7903 34.0693C17.5017 34.4803 17.1583 35.7682 16.3364 35.7682H17.1583C17.1767 35.5597 17.2441 35.3082 17.2993 35.1181C17.3484 34.928 17.422 34.6704 17.5078 34.4864L16.7964 34.0755L16.7903 34.0693Z" fill="url(#paint45_radial_379_46378)"/>
<path style="mix-blend-mode:screen" opacity="0.5" fill-rule="evenodd" clip-rule="evenodd" d="M16.3304 35.7686C17.1522 35.7686 17.6735 36.9522 16.9989 37.3448L17.4956 37.0565C17.4098 36.8664 17.3423 36.6088 17.2871 36.4248C17.2319 36.2408 17.1706 35.9771 17.1461 35.7747H16.3242L16.3304 35.7686Z" fill="url(#paint46_radial_379_46378)"/>
<path style="mix-blend-mode:screen" opacity="0.5" fill-rule="evenodd" clip-rule="evenodd" d="M21.427 38.7062C21.0161 37.9948 21.9606 37.0503 22.672 37.4612L21.9606 37.0503C21.8379 37.2159 21.654 37.406 21.5129 37.5471C21.3718 37.6881 21.1878 37.8721 21.0161 37.9948L21.427 38.7062Z" fill="url(#paint47_radial_379_46378)"/>
<path style="mix-blend-mode:screen" opacity="0.5" fill-rule="evenodd" clip-rule="evenodd" d="M22.6658 37.4611C21.9544 37.0502 22.2978 35.7622 23.1197 35.7622H22.2978C22.2794 35.9707 22.212 36.2222 22.1568 36.4123C22.1077 36.6024 22.0341 36.86 21.9482 37.044L22.6597 37.4549L22.6658 37.4611Z" fill="url(#paint48_radial_379_46378)"/>
<path style="mix-blend-mode:screen" opacity="0.5" fill-rule="evenodd" clip-rule="evenodd" d="M23.1257 35.7681C22.3039 35.7681 21.7826 34.5844 22.4572 34.1919L21.9604 34.4802C22.0463 34.6703 22.1138 34.9279 22.169 35.1119C22.2242 35.2959 22.2855 35.5596 22.31 35.762H23.1319L23.1257 35.7681Z" fill="url(#paint49_radial_379_46378)"/>
<path style="mix-blend-mode:screen" fill-rule="evenodd" clip-rule="evenodd" d="M19.3231 33.2658C18.7098 33.3149 18.3786 33.3087 18.0352 32.8242L18.4461 33.5357C18.6362 33.4498 18.8938 33.3823 19.0778 33.3333C19.1514 33.3149 19.2372 33.2903 19.3231 33.2719V33.2658Z" fill="url(#paint50_radial_379_46378)"/>
<path style="mix-blend-mode:screen" fill-rule="evenodd" clip-rule="evenodd" d="M20.1328 38.2645C20.7461 38.2154 21.0773 38.2216 21.4208 38.7061L21.0098 37.9946C20.8197 38.0805 20.5621 38.148 20.3781 38.2032C20.3045 38.2216 20.2187 38.2461 20.1328 38.2645Z" fill="url(#paint51_radial_379_46378)"/>
<g style="mix-blend-mode:screen">
<path fill-rule="evenodd" clip-rule="evenodd" d="M17.1278 35.8358C17.2075 36.2283 17.2934 36.6147 17.4467 36.9949L17.4283 37.0563L17.2443 37.1973L17.5019 37.0501C17.416 36.86 17.3486 36.6024 17.2934 36.4184C17.2382 36.2344 17.1768 35.9707 17.1523 35.7683C17.1707 35.5659 17.2382 35.3083 17.2934 35.1182C17.3424 34.9281 17.416 34.6705 17.5019 34.4865C17.6245 34.3209 17.8085 34.1308 17.9496 33.9897C18.0907 33.8487 18.2747 33.6647 18.4464 33.542C18.6365 33.4561 18.8941 33.3887 19.0781 33.3396C19.1885 33.3089 19.3295 33.2721 19.4645 33.2415C19.1456 33.2844 18.8144 33.3457 18.4954 33.45L18.4341 33.4316C18.2992 33.2292 18.1643 33.033 18.0293 32.8306C18.1336 33.0514 18.2317 33.2599 18.336 33.4745L18.3237 33.5359C17.9987 33.7812 17.7411 34.0817 17.508 34.3945L17.4467 34.4068C17.232 34.2964 17.0174 34.186 16.8027 34.0756C17.0051 34.2044 17.2014 34.3393 17.4038 34.4681L17.4222 34.5294C17.2688 34.9097 17.1707 35.3022 17.1216 35.6947L17.0787 35.7377C16.8702 35.7438 16.6616 35.7561 16.4531 35.7622C16.6616 35.7745 16.8702 35.7806 17.0787 35.7928L17.1278 35.8358Z" fill="#46C2FF"/>
</g>
<g style="mix-blend-mode:screen">
<path fill-rule="evenodd" clip-rule="evenodd" d="M22.0159 37.1301C22.2245 37.2343 22.4269 37.3386 22.6354 37.4429C22.4391 37.3202 22.2429 37.1975 22.0466 37.0749L22.0282 37.0135C22.1631 36.6272 22.2613 36.2346 22.3349 35.836L22.3839 35.7931C22.5802 35.7808 22.7764 35.7747 22.9727 35.7624C22.7764 35.7501 22.5802 35.7379 22.3839 35.7317L22.3349 35.6888C22.3103 35.5968 22.2797 35.5048 22.2429 35.4189C22.2674 35.5355 22.2919 35.6581 22.3042 35.7624C22.2858 35.9709 22.2183 36.2224 22.1631 36.4125C22.1079 36.6026 22.0405 36.8602 21.9546 37.0442C21.832 37.2098 21.648 37.3999 21.5069 37.541C21.3658 37.6821 21.1818 37.866 21.0101 37.9887C20.8691 38.05 20.6912 38.1052 20.5317 38.1543C20.6789 38.1298 20.82 38.0991 20.9672 38.0562L21.0285 38.0807C21.1328 38.2402 21.237 38.3996 21.3413 38.5591C21.2554 38.3874 21.1696 38.2218 21.0837 38.05L21.096 37.9887C21.3904 37.7434 21.6786 37.4674 21.9485 37.1423L22.0098 37.1301H22.0159Z" fill="#46C2FF"/>
</g>
<path style="mix-blend-mode:screen" fill-rule="evenodd" clip-rule="evenodd" d="M17.5019 37.05L19.7282 35.7621L17.5019 34.4741C17.4161 34.6642 17.3486 34.9218 17.2934 35.1058C17.2443 35.296 17.1769 35.5535 17.1523 35.7559C17.1707 35.9645 17.2382 36.2159 17.2934 36.406C17.3486 36.5962 17.4161 36.8538 17.5019 37.0378V37.05Z" fill="url(#paint52_radial_379_46378)"/>
<path style="mix-blend-mode:screen" fill-rule="evenodd" clip-rule="evenodd" d="M17.502 34.4803L19.7283 35.7683V33.1924C19.5197 33.2108 19.2683 33.2782 19.0782 33.3334C18.888 33.3886 18.6304 33.4561 18.4464 33.5358C18.2809 33.6585 18.0907 33.8425 17.9497 33.9836C17.8086 34.1246 17.6246 34.3086 17.502 34.4803Z" fill="url(#paint53_radial_379_46378)"/>
<path style="mix-blend-mode:screen" fill-rule="evenodd" clip-rule="evenodd" d="M19.728 33.1924V35.7683L21.9543 34.4803C21.8317 34.3147 21.6477 34.1246 21.5066 33.9836C21.3656 33.8425 21.1816 33.6585 21.0098 33.5358C20.8197 33.45 20.5621 33.3825 20.3781 33.3334C20.1941 33.2844 19.9304 33.2169 19.728 33.1924Z" fill="url(#paint54_radial_379_46378)"/>
<path style="mix-blend-mode:screen" fill-rule="evenodd" clip-rule="evenodd" d="M21.9543 34.4805L19.728 35.7684L21.9543 37.0564C22.0402 36.8662 22.1077 36.6086 22.1629 36.4247C22.2181 36.2407 22.2794 35.9769 22.3039 35.7746C22.2855 35.5722 22.2181 35.3146 22.1629 35.1244C22.1077 34.9343 22.0402 34.6767 21.9543 34.4927V34.4805Z" fill="url(#paint55_radial_379_46378)"/>
<path style="mix-blend-mode:screen" fill-rule="evenodd" clip-rule="evenodd" d="M21.9543 37.0502L19.728 35.7622V38.3381C19.9304 38.3197 20.188 38.2522 20.3781 38.197C20.5683 38.148 20.8258 38.0744 21.0098 37.9885C21.1754 37.8659 21.3656 37.6819 21.5066 37.5408C21.6477 37.3997 21.8317 37.2157 21.9543 37.044V37.0502Z" fill="url(#paint56_radial_379_46378)"/>
<path style="mix-blend-mode:screen" fill-rule="evenodd" clip-rule="evenodd" d="M19.7283 38.3381V35.7622L17.502 37.0502C17.6246 37.2157 17.8086 37.4059 17.9497 37.5469C18.0907 37.688 18.2747 37.872 18.4464 37.9947C18.6366 38.0805 18.8942 38.148 19.0782 38.2032C19.2683 38.2522 19.5259 38.3197 19.7283 38.3442V38.3381Z" fill="url(#paint57_radial_379_46378)"/>
<path style="mix-blend-mode:screen" fill-rule="evenodd" clip-rule="evenodd" d="M19.7282 33.1924C19.532 33.2108 19.2928 33.2721 19.1027 33.3273L17.2873 35.1427C17.2382 35.3267 17.1769 35.572 17.1523 35.7683C17.1707 35.9768 17.2382 36.2283 17.2934 36.4184C17.3486 36.6085 17.4161 36.8661 17.5019 37.0501C17.5387 37.1053 17.5878 37.1605 17.6369 37.2218L21.1879 33.6708C21.1327 33.6217 21.0714 33.5726 21.0162 33.5358C20.8261 33.45 20.5685 33.3825 20.3845 33.3334C20.2005 33.2844 19.9368 33.2169 19.7344 33.1924H19.7282Z" fill="url(#paint58_radial_379_46378)"/>
<path style="mix-blend-mode:screen" fill-rule="evenodd" clip-rule="evenodd" d="M22.0772 34.8115L18.7715 38.1173C18.8757 38.1479 18.9861 38.1786 19.0781 38.2031C19.2253 38.2399 19.4155 38.2951 19.5872 38.3197L22.2796 35.6272C22.2489 35.4555 22.1999 35.2654 22.1631 35.1182C22.1386 35.0262 22.1079 34.9219 22.0772 34.8115Z" fill="url(#paint59_radial_379_46378)"/>
<g style="mix-blend-mode:darken" opacity="0.5">
<path fill-rule="evenodd" clip-rule="evenodd" d="M19.728 32.3706C19.5502 32.3829 19.2251 32.4442 18.8633 32.5423C18.5014 32.6405 18.1948 32.7447 18.0292 32.8245C17.8758 32.9226 17.6305 33.1372 17.3668 33.401C17.1031 33.6647 16.8884 33.9161 16.7903 34.0633C16.7105 34.2228 16.6001 34.5356 16.5082 34.8974C16.41 35.2593 16.3487 35.5782 16.3364 35.7622C16.3487 35.9401 16.41 36.2651 16.5082 36.627C16.6063 36.9888 16.7105 37.2955 16.7903 37.4611C16.8884 37.6144 17.1031 37.8597 17.3668 38.1234C17.6305 38.3872 17.882 38.6018 18.0292 38.7C18.1886 38.7797 18.5014 38.8901 18.8633 38.9821C19.2251 39.0741 19.544 39.1415 19.728 39.1538C19.9059 39.1415 20.2309 39.0802 20.5928 38.9821C20.9546 38.8839 21.2613 38.7797 21.4269 38.7C21.5802 38.6018 21.8255 38.3872 22.0893 38.1234C22.353 37.8597 22.5676 37.6083 22.6658 37.4611C22.7455 37.3016 22.8559 36.9888 22.9479 36.627C23.0399 36.2651 23.1074 35.9462 23.1196 35.7622C23.1074 35.5843 23.046 35.2593 22.9479 34.8974C22.8498 34.5356 22.7455 34.2289 22.6658 34.0633C22.5676 33.91 22.353 33.6647 22.0893 33.401C21.8255 33.1372 21.5741 32.9226 21.4269 32.8245C21.2674 32.7447 20.9546 32.6343 20.5928 32.5423C20.2309 32.4503 19.912 32.3829 19.728 32.3706Z" fill="url(#paint60_radial_379_46378)" style="mix-blend-mode:screen"/>
</g>
<path style="mix-blend-mode:screen" d="M18.4405 34.2165C18.8165 34.2165 19.1213 33.9117 19.1213 33.5358C19.1213 33.1598 18.8165 32.855 18.4405 32.855C18.0646 32.855 17.7598 33.1598 17.7598 33.5358C17.7598 33.9117 18.0646 34.2165 18.4405 34.2165Z" fill="url(#paint61_radial_379_46378)"/>
<path style="mix-blend-mode:screen" fill-rule="evenodd" clip-rule="evenodd" d="M17.956 34.4802C17.956 34.7562 17.7352 34.977 17.4592 34.977C17.1832 34.977 16.9624 34.7562 16.9624 34.4802C16.9624 34.2042 17.1832 33.9834 17.4592 33.9834C17.7352 33.9834 17.956 34.2042 17.956 34.4802Z" fill="url(#paint62_radial_379_46378)"/>
<path style="mix-blend-mode:screen" fill-rule="evenodd" clip-rule="evenodd" d="M22.5004 37.0871C22.5004 37.3631 22.2796 37.5839 22.0036 37.5839C21.7276 37.5839 21.5068 37.3631 21.5068 37.0871C21.5068 36.8111 21.7276 36.5903 22.0036 36.5903C22.2796 36.5903 22.5004 36.8111 22.5004 37.0871Z" fill="url(#paint63_radial_379_46378)"/>
<path style="mix-blend-mode:screen" d="M11.2093 9.1383C13.7328 9.1383 15.7784 7.09262 15.7784 4.56915C15.7784 2.04568 13.7328 0 11.2093 0C8.68581 0 6.64014 2.04568 6.64014 4.56915C6.64014 7.09262 8.68581 9.1383 11.2093 9.1383Z" fill="url(#paint64_radial_379_46378)"/>
<g style="mix-blend-mode:soft-light" filter="url(#filter0_d_379_46378)">
<path d="M19.6222 26.9318C18.3494 26.9318 17.2159 26.7131 16.2216 26.2756C15.233 25.8324 14.4517 25.2244 13.8778 24.4517C13.3097 23.6733 13.017 22.7756 13 21.7585H16.7159C16.7386 22.1847 16.8778 22.5597 17.1335 22.8835C17.3949 23.2017 17.7415 23.4489 18.1733 23.625C18.6051 23.8011 19.0909 23.8892 19.6307 23.8892C20.1932 23.8892 20.6903 23.7898 21.1222 23.5909C21.554 23.392 21.892 23.1165 22.1364 22.7642C22.3807 22.4119 22.5028 22.0057 22.5028 21.5455C22.5028 21.0795 22.3722 20.6676 22.1108 20.3097C21.8551 19.946 21.4858 19.6619 21.0028 19.4574C20.5256 19.2528 19.9574 19.1506 19.2983 19.1506H17.6705V16.4403H19.2983C19.8551 16.4403 20.3466 16.3438 20.7727 16.1506C21.2045 15.9574 21.5398 15.6903 21.7784 15.3494C22.017 15.0028 22.1364 14.5994 22.1364 14.1392C22.1364 13.7017 22.0312 13.3182 21.821 12.9886C21.6165 12.6534 21.3267 12.392 20.9517 12.2045C20.5824 12.017 20.1506 11.9233 19.6562 11.9233C19.1562 11.9233 18.6989 12.0142 18.2841 12.196C17.8693 12.3722 17.5369 12.625 17.2869 12.9545C17.0369 13.2841 16.9034 13.6705 16.8864 14.1136H13.3494C13.3665 13.108 13.6534 12.2216 14.2102 11.4545C14.767 10.6875 15.517 10.0881 16.4602 9.65625C17.4091 9.21875 18.4801 9 19.6733 9C20.8778 9 21.9318 9.21875 22.8352 9.65625C23.7386 10.0938 24.4403 10.6847 24.9403 11.429C25.446 12.1676 25.696 12.9972 25.6903 13.9176C25.696 14.8949 25.392 15.7102 24.7784 16.3636C24.1705 17.017 23.3778 17.4318 22.4006 17.608V17.7443C23.6847 17.9091 24.6619 18.3551 25.3324 19.0824C26.0085 19.804 26.3438 20.7074 26.3381 21.7926C26.3438 22.7869 26.0568 23.6705 25.4773 24.4432C24.9034 25.2159 24.1108 25.8239 23.0994 26.267C22.0881 26.7102 20.929 26.9318 19.6222 26.9318Z" fill="#FCFCFC"/>
</g>
<defs>
<filter id="filter0_d_379_46378" x="13" y="9" width="13.3384" height="18.9316" filterUnits="userSpaceOnUse" color-interpolation-filters="sRGB">
<feFlood flood-opacity="0" result="BackgroundImageFix"/>
<feColorMatrix in="SourceAlpha" type="matrix" values="0 0 0 0 0 0 0 0 0 0 0 0 0 0 0 0 0 0 127 0" result="hardAlpha"/>
<feOffset dy="1"/>
<feComposite in2="hardAlpha" operator="out"/>
<feColorMatrix type="matrix" values="0 0 0 0 0 0 0 0 0 0 0 0 0 0 0 0 0 0 0.25 0"/>
<feBlend mode="normal" in2="BackgroundImageFix" result="effect1_dropShadow_379_46378"/>
<feBlend mode="normal" in="SourceGraphic" in2="effect1_dropShadow_379_46378" result="shape"/>
</filter>
<linearGradient id="paint0_linear_379_46378" x1="1.00402" y1="22.355" x2="2.84395" y2="22.355" gradientUnits="userSpaceOnUse">
<stop stop-color="#735F53"/>
<stop offset="1" stop-color="#573E30"/>
</linearGradient>
<linearGradient id="paint1_linear_379_46378" x1="36.6128" y1="22.355" x2="38.4527" y2="22.355" gradientUnits="userSpaceOnUse">
<stop stop-color="#574030"/>
<stop offset="1" stop-color="#736653"/>
</linearGradient>
<linearGradient id="paint2_linear_379_46378" x1="19.7283" y1="33.9467" x2="19.7283" y2="3.98047" gradientUnits="userSpaceOnUse">
<stop stop-color="#6E533F"/>
<stop offset="1" stop-color="#8C7C70"/>
</linearGradient>
<radialGradient id="paint3_radial_379_46378" cx="0" cy="0" r="1" gradientUnits="userSpaceOnUse" gradientTransform="translate(19.8324 15.8909) scale(28.2981 28.2981)">
<stop stop-color="white"/>
<stop offset="1" stop-color="#B3A99E"/>
</radialGradient>
<linearGradient id="paint4_linear_379_46378" x1="19.7282" y1="35.3512" x2="19.7282" y2="2.56982" gradientUnits="userSpaceOnUse">
<stop stop-color="#8D96A4"/>
<stop offset="0.0001" stop-color="#A4978D"/>
<stop offset="1" stop-color="#857359"/>
</linearGradient>
<linearGradient id="paint5_linear_379_46378" x1="19.7283" y1="35.3512" x2="19.7283" y2="2.56988" gradientUnits="userSpaceOnUse">
<stop stop-color="#786650"/>
<stop offset="1" stop-color="#D1C2B4"/>
</linearGradient>
<linearGradient id="paint6_linear_379_46378" x1="19.7282" y1="35.3513" x2="19.7282" y2="18.9637" gradientUnits="userSpaceOnUse">
<stop stop-color="#D1B386"/>
<stop offset="1"/>
</linearGradient>
<linearGradient id="paint7_linear_379_46378" x1="19.7283" y1="18.9636" x2="19.7283" y2="0.533691" gradientUnits="userSpaceOnUse">
<stop/>
<stop offset="1" stop-color="#DC762D"/>
</linearGradient>
<radialGradient id="paint8_radial_379_46378" cx="0" cy="0" r="1" gradientUnits="userSpaceOnUse" gradientTransform="translate(19.7282 33.3273) scale(17.1972 17.1972)">
<stop stop-color="#BFC5FF"/>
<stop offset="1" stop-color="#7987AD"/>
</radialGradient>
<radialGradient id="paint9_radial_379_46378" cx="0" cy="0" r="1" gradientUnits="userSpaceOnUse" gradientTransform="translate(19.7283 9.86815) scale(15.5535)">
<stop stop-color="white"/>
<stop offset="0.14" stop-color="#EDE3DF"/>
<stop offset="0.29" stop-color="#DDD1C3"/>
<stop offset="0.44" stop-color="#D2C8AF"/>
<stop offset="0.6" stop-color="#CBB9A3"/>
<stop offset="0.75" stop-color="#C9BD9F"/>
</radialGradient>
<radialGradient id="paint10_radial_379_46378" cx="0" cy="0" r="1" gradientUnits="userSpaceOnUse" gradientTransform="translate(20.8139 -7.40228) scale(30.6777 30.6777)">
<stop stop-color="#FFE2AB"/>
<stop offset="1"/>
</radialGradient>
<radialGradient id="paint11_radial_379_46378" cx="0" cy="0" r="1" gradientUnits="userSpaceOnUse" gradientTransform="translate(19.5808 -6.21275) scale(20.3741 20.3741)">
<stop stop-color="#FFCEAB"/>
<stop offset="1"/>
</radialGradient>
<radialGradient id="paint12_radial_379_46378" cx="0" cy="0" r="1" gradientUnits="userSpaceOnUse" gradientTransform="translate(2.90486 13.7411) rotate(-180) scale(17.9023 25.0788)">
<stop stop-color="#2C363D"/>
<stop offset="0.38" stop-color="#695B4B"/>
<stop offset="0.7" stop-color="#9E8772"/>
<stop offset="0.84" stop-color="#BAA995"/>
<stop offset="0.87" stop-color="#BEB395"/>
<stop offset="0.91" stop-color="#DEB597"/>
<stop offset="0.96" stop-color="#947A67"/>
<stop offset="1" stop-color="#5C5242"/>
</radialGradient>
<radialGradient id="paint13_radial_379_46378" cx="0" cy="0" r="1" gradientUnits="userSpaceOnUse" gradientTransform="translate(10.038 27.2865) scale(6.72186 6.72186)">
<stop stop-color="#6D8496"/>
<stop offset="1"/>
</radialGradient>
<radialGradient id="paint14_radial_379_46378" cx="0" cy="0" r="1" gradientUnits="userSpaceOnUse" gradientTransform="translate(21.6334 13.7411) rotate(-180) scale(17.9023 25.0788)">
<stop stop-color="#2C363D"/>
<stop offset="0.38" stop-color="#695B4B"/>
<stop offset="0.7" stop-color="#9E8772"/>
<stop offset="0.84" stop-color="#BAA995"/>
<stop offset="0.87" stop-color="#BEB395"/>
<stop offset="0.91" stop-color="#DEB597"/>
<stop offset="0.96" stop-color="#947A67"/>
<stop offset="1" stop-color="#5C5242"/>
</radialGradient>
<radialGradient id="paint15_radial_379_46378" cx="0" cy="0" r="1" gradientUnits="userSpaceOnUse" gradientTransform="translate(29.4188 0.307012) rotate(-180) scale(6.72186 6.72186)">
<stop stop-color="#6D8496"/>
<stop offset="1"/>
</radialGradient>
<radialGradient id="paint16_radial_379_46378" cx="0" cy="0" r="1" gradientUnits="userSpaceOnUse" gradientTransform="translate(9.05057 24.1586) scale(11.9534 11.9534)">
<stop offset="0.45" stop-color="white"/>
<stop offset="0.46" stop-color="#FAFAFB"/>
<stop offset="0.56" stop-color="#C3C2D1"/>
<stop offset="0.65" stop-color="#9B9AB2"/>
<stop offset="0.72" stop-color="#83819F"/>
<stop offset="0.76" stop-color="#7A7899"/>
</radialGradient>
<radialGradient id="paint17_radial_379_46378" cx="0" cy="0" r="1" gradientUnits="userSpaceOnUse" gradientTransform="translate(6.6036 35.0816) scale(13.6768)">
<stop offset="0.45" stop-color="white"/>
<stop offset="0.48" stop-color="#EDEFF2"/>
<stop offset="0.58" stop-color="#B5BBCB"/>
<stop offset="0.66" stop-color="#8D95AE"/>
<stop offset="0.72" stop-color="#747E9C"/>
<stop offset="0.76" stop-color="#6B7696"/>
</radialGradient>
<radialGradient id="paint18_radial_379_46378" cx="0" cy="0" r="1" gradientUnits="userSpaceOnUse" gradientTransform="translate(4.5 28.5) rotate(29.0546) scale(15.4434 15.4434)">
<stop stop-color="#2C363D"/>
<stop offset="0.38" stop-color="#695B4B"/>
<stop offset="0.7" stop-color="#9E8772"/>
<stop offset="0.84" stop-color="#BAA995"/>
<stop offset="0.87" stop-color="#BEB395"/>
<stop offset="0.91" stop-color="#DEB597"/>
<stop offset="0.96" stop-color="#947A67"/>
<stop offset="1" stop-color="#5C5242"/>
</radialGradient>
<radialGradient id="paint19_radial_379_46378" cx="0" cy="0" r="1" gradientUnits="userSpaceOnUse" gradientTransform="translate(13.0064 29.3529) scale(8.88684 8.88684)">
<stop offset="0.45" stop-color="white"/>
<stop offset="0.46" stop-color="#FAFAFB"/>
<stop offset="0.56" stop-color="#C3C2D1"/>
<stop offset="0.65" stop-color="#9B9AB2"/>
<stop offset="0.72" stop-color="#83819F"/>
<stop offset="0.76" stop-color="#7A7899"/>
</radialGradient>
<radialGradient id="paint20_radial_379_46378" cx="0" cy="0" r="1" gradientUnits="userSpaceOnUse" gradientTransform="translate(10.0197 38.4913) scale(10.4017 10.4017)">
<stop offset="0.45" stop-color="white"/>
<stop offset="0.48" stop-color="#EDEFF2"/>
<stop offset="0.58" stop-color="#B5BBCB"/>
<stop offset="0.66" stop-color="#8D95AE"/>
<stop offset="0.72" stop-color="#747E9C"/>
<stop offset="0.76" stop-color="#6B7696"/>
</radialGradient>
<radialGradient id="paint21_radial_379_46378" cx="0" cy="0" r="1" gradientUnits="userSpaceOnUse" gradientTransform="translate(30.412 0.306736) rotate(-180) scale(11.9534 11.9534)">
<stop offset="0.45" stop-color="white"/>
<stop offset="0.46" stop-color="#FAFAFB"/>
<stop offset="0.56" stop-color="#C3C2D1"/>
<stop offset="0.65" stop-color="#9B9AB2"/>
<stop offset="0.72" stop-color="#83819F"/>
<stop offset="0.76" stop-color="#7A7899"/>
</radialGradient>
<radialGradient id="paint22_radial_379_46378" cx="0" cy="0" r="1" gradientUnits="userSpaceOnUse" gradientTransform="translate(32.8592 0.306963) rotate(-180) scale(13.6768 13.6768)">
<stop offset="0.45" stop-color="white"/>
<stop offset="0.48" stop-color="#EDEFF2"/>
<stop offset="0.58" stop-color="#B5BBCB"/>
<stop offset="0.66" stop-color="#8D95AE"/>
<stop offset="0.72" stop-color="#747E9C"/>
<stop offset="0.76" stop-color="#6B7696"/>
</radialGradient>
<radialGradient id="paint23_radial_379_46378" cx="0" cy="0" r="1" gradientUnits="userSpaceOnUse" gradientTransform="translate(21.1146 27.231) rotate(180) scale(13.0267)">
<stop stop-color="#2C363D"/>
<stop offset="0.38" stop-color="#695B4B"/>
<stop offset="0.7" stop-color="#9E8772"/>
<stop offset="0.84" stop-color="#BAA995"/>
<stop offset="0.87" stop-color="#BEB395"/>
<stop offset="0.91" stop-color="#DEB597"/>
<stop offset="0.96" stop-color="#947A67"/>
<stop offset="1" stop-color="#5C5242"/>
</radialGradient>
<radialGradient id="paint24_radial_379_46378" cx="0" cy="0" r="1" gradientUnits="userSpaceOnUse" gradientTransform="translate(26.45 29.3529) rotate(180) scale(8.88685 8.88684)">
<stop offset="0.45" stop-color="white"/>
<stop offset="0.46" stop-color="#FAFAFB"/>
<stop offset="0.56" stop-color="#C3C2D1"/>
<stop offset="0.65" stop-color="#9B9AB2"/>
<stop offset="0.72" stop-color="#83819F"/>
<stop offset="0.76" stop-color="#7A7899"/>
</radialGradient>
<radialGradient id="paint25_radial_379_46378" cx="0" cy="0" r="1" gradientUnits="userSpaceOnUse" gradientTransform="translate(29.4372 38.4913) rotate(180) scale(10.4017)">
<stop offset="0.45" stop-color="white"/>
<stop offset="0.48" stop-color="#EDEFF2"/>
<stop offset="0.58" stop-color="#B5BBCB"/>
<stop offset="0.66" stop-color="#8D95AE"/>
<stop offset="0.72" stop-color="#747E9C"/>
<stop offset="0.76" stop-color="#6B7696"/>
</radialGradient>
<linearGradient id="paint26_linear_379_46378" x1="1.01025" y1="29.4513" x2="19.7284" y2="29.4513" gradientUnits="userSpaceOnUse">
<stop stop-color="#FFD0B5"/>
<stop offset="1" stop-color="#9E775A"/>
</linearGradient>
<linearGradient id="paint27_linear_379_46378" x1="19.7285" y1="29.4513" x2="38.4467" y2="29.4513" gradientUnits="userSpaceOnUse">
<stop stop-color="#9E6E5A"/>
<stop offset="1" stop-color="#FFD4B5"/>
</linearGradient>
<linearGradient id="paint28_linear_379_46378" x1="19.7286" y1="39.5339" x2="19.7286" y2="31.9963" gradientUnits="userSpaceOnUse">
<stop stop-color="#FFB438"/>
<stop offset="1" stop-color="#B34E00"/>
</linearGradient>
<linearGradient id="paint29_linear_379_46378" x1="1.00409" y1="40.0001" x2="19.7284" y2="31.5303" gradientUnits="userSpaceOnUse">
<stop stop-color="#A4958D"/>
<stop offset="1" stop-color="#814916"/>
</linearGradient>
<linearGradient id="paint30_linear_379_46378" x1="1.00409" y1="40.0003" x2="19.7284" y2="31.5305" gradientUnits="userSpaceOnUse">
<stop stop-color="#786150"/>
<stop offset="1" stop-color="#D1BBB4"/>
</linearGradient>
<radialGradient id="paint31_radial_379_46378" cx="0" cy="0" r="1" gradientUnits="userSpaceOnUse" gradientTransform="translate(16.6004 31.1194) scale(7.68476)">
<stop stop-color="#46B3FF"/>
<stop offset="1" stop-color="#333FFF"/>
</radialGradient>
<radialGradient id="paint32_radial_379_46378" cx="0" cy="0" r="1" gradientUnits="userSpaceOnUse" gradientTransform="translate(18.1643 32.9653) scale(5.20699 5.20699)">
<stop stop-color="#6DD7FF"/>
<stop offset="1" stop-color="#469EFF"/>
</radialGradient>
<radialGradient id="paint33_radial_379_46378" cx="0" cy="0" r="1" gradientUnits="userSpaceOnUse" gradientTransform="translate(18.3664 31.7389) scale(3.15854 3.15854)">
<stop stop-color="#46CBFF"/>
<stop offset="1" stop-color="#456CFF"/>
</radialGradient>
<radialGradient id="paint34_radial_379_46378" cx="0" cy="0" r="1" gradientUnits="userSpaceOnUse" gradientTransform="translate(19.7651 34.5108) scale(4.63662)">
<stop stop-color="#6DD7FF"/>
<stop offset="1" stop-color="#469EFF"/>
</radialGradient>
<radialGradient id="paint35_radial_379_46378" cx="0" cy="0" r="1" gradientUnits="userSpaceOnUse" gradientTransform="translate(22.6536 40.1536) scale(3.64919)">
<stop stop-color="#46CBFF"/>
<stop offset="1" stop-color="#456CFF"/>
</radialGradient>
<radialGradient id="paint36_radial_379_46378" cx="0" cy="0" r="1" gradientUnits="userSpaceOnUse" gradientTransform="translate(19.5811 35.5662) scale(4.01717)">
<stop stop-color="#46CBFF"/>
<stop offset="1" stop-color="#456CFF"/>
</radialGradient>
<radialGradient id="paint37_radial_379_46378" cx="0" cy="0" r="1" gradientUnits="userSpaceOnUse" gradientTransform="translate(17.2812 36.3572) scale(5.95523 5.95523)">
<stop stop-color="#46CBFF"/>
<stop offset="1" stop-color="#456CFF"/>
</radialGradient>
<radialGradient id="paint38_radial_379_46378" cx="0" cy="0" r="1" gradientUnits="userSpaceOnUse" gradientTransform="translate(18.44 36.2158) scale(6.20669)">
<stop stop-color="#46B3FF"/>
<stop offset="1" stop-color="#333FFF"/>
</radialGradient>
<radialGradient id="paint39_radial_379_46378" cx="0" cy="0" r="1" gradientUnits="userSpaceOnUse" gradientTransform="translate(19.765 35.3329) scale(3.21374 3.21374)">
<stop stop-color="#46B3FF"/>
<stop offset="1" stop-color="#333FFF"/>
</radialGradient>
<radialGradient id="paint40_radial_379_46378" cx="0" cy="0" r="1" gradientUnits="userSpaceOnUse" gradientTransform="translate(20.2737 36.9702) scale(3.21374)">
<stop stop-color="#53B3FF"/>
<stop offset="1" stop-color="#291DFF"/>
</radialGradient>
<radialGradient id="paint41_radial_379_46378" cx="0" cy="0" r="1" gradientUnits="userSpaceOnUse" gradientTransform="translate(15.7477 39.7611) scale(3.2812)">
<stop stop-color="#46B3FF"/>
<stop offset="1" stop-color="#333FFF"/>
</radialGradient>
<radialGradient id="paint42_radial_379_46378" cx="0" cy="0" r="1" gradientUnits="userSpaceOnUse" gradientTransform="translate(14.4048 37.3386) scale(3.96811 3.96811)">
<stop stop-color="#46B3FF"/>
<stop offset="1" stop-color="#333FFF"/>
</radialGradient>
<radialGradient id="paint43_radial_379_46378" cx="0" cy="0" r="1" gradientUnits="userSpaceOnUse" gradientTransform="translate(15.0488 33.0944) scale(3.50813)">
<stop stop-color="#46CBFF"/>
<stop offset="1" stop-color="#456CFF"/>
</radialGradient>
<radialGradient id="paint44_radial_379_46378" cx="0" cy="0" r="1" gradientUnits="userSpaceOnUse" gradientTransform="translate(18.6609 33.689) scale(2.22631)">
<stop stop-color="#4691FF"/>
<stop offset="1" stop-color="#00038C"/>
</radialGradient>
<radialGradient id="paint45_radial_379_46378" cx="0" cy="0" r="1" gradientUnits="userSpaceOnUse" gradientTransform="translate(17.7654 34.4741) scale(2.41644)">
<stop stop-color="#4691FF"/>
<stop offset="1" stop-color="#00038C"/>
</radialGradient>
<radialGradient id="paint46_radial_379_46378" cx="0" cy="0" r="1" gradientUnits="userSpaceOnUse" gradientTransform="translate(16.9927 35.5846) scale(2.04232)">
<stop stop-color="#4691FF"/>
<stop offset="1" stop-color="#00038C"/>
</radialGradient>
<radialGradient id="paint47_radial_379_46378" cx="0" cy="0" r="1" gradientUnits="userSpaceOnUse" gradientTransform="translate(21.6846 36.9767) scale(1.46581)">
<stop stop-color="#4691FF"/>
<stop offset="1" stop-color="#00038C"/>
</radialGradient>
<radialGradient id="paint48_radial_379_46378" cx="0" cy="0" r="1" gradientUnits="userSpaceOnUse" gradientTransform="translate(22.2794 35.7745) scale(1.55167)">
<stop stop-color="#4691FF"/>
<stop offset="1" stop-color="#00038C"/>
</radialGradient>
<radialGradient id="paint49_radial_379_46378" cx="0" cy="0" r="1" gradientUnits="userSpaceOnUse" gradientTransform="translate(22.2242 35.9337) scale(2.02392 2.02392)">
<stop stop-color="#4691FF"/>
<stop offset="1" stop-color="#00038C"/>
</radialGradient>
<radialGradient id="paint50_radial_379_46378" cx="0" cy="0" r="1" gradientUnits="userSpaceOnUse" gradientTransform="translate(18.3111 33.7687) scale(1.18982)">
<stop stop-color="#4691FF"/>
<stop offset="1" stop-color="#00038C"/>
</radialGradient>
<radialGradient id="paint51_radial_379_46378" cx="0" cy="0" r="1" gradientUnits="userSpaceOnUse" gradientTransform="translate(21.0957 37.3323) scale(1.34928)">
<stop stop-color="#4691FF"/>
<stop offset="1" stop-color="#00038C"/>
</radialGradient>
<radialGradient id="paint52_radial_379_46378" cx="0" cy="0" r="1" gradientUnits="userSpaceOnUse" gradientTransform="translate(16.5206 35.112) scale(5.01687)">
<stop stop-color="#4691FF"/>
<stop offset="1" stop-color="#00038C"/>
</radialGradient>
<radialGradient id="paint53_radial_379_46378" cx="0" cy="0" r="1" gradientUnits="userSpaceOnUse" gradientTransform="translate(18.796 32.8428) scale(3.77798)">
<stop stop-color="#4691FF"/>
<stop offset="1" stop-color="#00038C"/>
</radialGradient>
<radialGradient id="paint54_radial_379_46378" cx="0" cy="0" r="1" gradientUnits="userSpaceOnUse" gradientTransform="translate(23.2239 30.1504) scale(10.322 10.322)">
<stop stop-color="#4691FF"/>
<stop offset="1" stop-color="#00038C"/>
</radialGradient>
<radialGradient id="paint55_radial_379_46378" cx="0" cy="0" r="1" gradientUnits="userSpaceOnUse" gradientTransform="translate(22.2978 33.2293) scale(4.03557 4.03557)">
<stop stop-color="#4691FF"/>
<stop offset="1" stop-color="#00038C"/>
</radialGradient>
<radialGradient id="paint56_radial_379_46378" cx="0" cy="0" r="1" gradientUnits="userSpaceOnUse" gradientTransform="translate(22.7026 39.8775) scale(5.0598 5.05979)">
<stop stop-color="#4691FF"/>
<stop offset="1" stop-color="#00038C"/>
</radialGradient>
<radialGradient id="paint57_radial_379_46378" cx="0" cy="0" r="1" gradientUnits="userSpaceOnUse" gradientTransform="translate(18.1153 39.4605) scale(5.20699 5.20699)">
<stop stop-color="#4691FF"/>
<stop offset="1" stop-color="#00038C"/>
</radialGradient>
<radialGradient id="paint58_radial_379_46378" cx="0" cy="0" r="1" gradientUnits="userSpaceOnUse" gradientTransform="translate(19.0904 29.5064) scale(8.67219)">
<stop stop-color="#465CFF"/>
<stop offset="1" stop-color="#000BF4"/>
</radialGradient>
<radialGradient id="paint59_radial_379_46378" cx="0" cy="0" r="1" gradientUnits="userSpaceOnUse" gradientTransform="translate(20.4642 31.0213) scale(7.5621 7.5621)">
<stop stop-color="#4691FF"/>
<stop offset="1" stop-color="#00038C"/>
</radialGradient>
<radialGradient id="paint60_radial_379_46378" cx="0" cy="0" r="1" gradientUnits="userSpaceOnUse" gradientTransform="translate(17.1951 32.4074) scale(5.40938)">
<stop stop-color="#FFB546"/>
<stop offset="1" stop-color="#8C5C00"/>
</radialGradient>
<radialGradient id="paint61_radial_379_46378" cx="0" cy="0" r="1" gradientUnits="userSpaceOnUse" gradientTransform="translate(18.4405 33.5358) scale(0.680773)">
<stop stop-color="white"/>
<stop offset="0.27" stop-color="#9ED1F7"/>
<stop offset="0.43" stop-color="#698DC7"/>
<stop offset="0.59" stop-color="#3C549E"/>
<stop offset="0.72" stop-color="#1B2A80"/>
<stop offset="0.83" stop-color="#07116E"/>
<stop offset="0.89" stop-color="#000868"/>
</radialGradient>
<radialGradient id="paint62_radial_379_46378" cx="0" cy="0" r="1" gradientUnits="userSpaceOnUse" gradientTransform="translate(17.4592 34.4802) scale(0.49678)">
<stop stop-color="white"/>
<stop offset="0.27" stop-color="#9ED1F7"/>
<stop offset="0.43" stop-color="#698DC7"/>
<stop offset="0.59" stop-color="#3C549E"/>
<stop offset="0.72" stop-color="#1B2A80"/>
<stop offset="0.83" stop-color="#07116E"/>
<stop offset="0.89" stop-color="#000868"/>
</radialGradient>
<radialGradient id="paint63_radial_379_46378" cx="0" cy="0" r="1" gradientUnits="userSpaceOnUse" gradientTransform="translate(22.0036 37.0871) scale(0.49678)">
<stop stop-color="white"/>
<stop offset="0.27" stop-color="#9ED1F7"/>
<stop offset="0.43" stop-color="#698DC7"/>
<stop offset="0.59" stop-color="#3C549E"/>
<stop offset="0.72" stop-color="#1B2A80"/>
<stop offset="0.83" stop-color="#07116E"/>
<stop offset="0.89" stop-color="#000868"/>
</radialGradient>
<radialGradient id="paint64_radial_379_46378" cx="0" cy="0" r="1" gradientUnits="userSpaceOnUse" gradientTransform="translate(11.2093 4.56915) scale(4.56915)">
<stop stop-color="#FFC79E"/>
<stop offset="0.06" stop-color="#E5B38E"/>
<stop offset="0.21" stop-color="#A99369"/>
<stop offset="0.35" stop-color="#756149"/>
<stop offset="0.5" stop-color="#4B3E2E"/>
<stop offset="0.64" stop-color="#2A271A"/>
<stop offset="0.77" stop-color="#13130B"/>
<stop offset="0.89" stop-color="#030304"/>
<stop offset="1"/>
</radialGradient>
</defs>
</svg>
