<svg width="40" height="40" viewBox="0 0 40 40" fill="none" xmlns="http://www.w3.org/2000/svg">
    <path fill-rule="evenodd" clip-rule="evenodd"
        d="M1.88525 33.1266C2.61986 33.0405 7.33738 32.3518 7.33738 31.2327C7.33738 31.0949 7.26277 30.9572 7.11929 30.8252C9.34605 32.3116 10.3791 33.2184 11.854 35.4566C12.0549 35.7608 12.1352 36.0937 12.0434 36.3978C11.9688 36.6446 11.7794 36.8684 11.458 37.0636C9.6617 38.1253 7.44068 38.8025 5.41479 39.2731C5.13931 38.0622 5.04175 36.8627 5.16227 35.6862C3.71028 35.118 2.68872 34.2973 1.89099 33.1323H1.88525V33.1266Z"
        fill="url(#paint0_linear_379_46234)" />
    <path style="mix-blend-mode:multiply" fill-rule="evenodd" clip-rule="evenodd"
        d="M7.33726 31.2385C7.33726 31.9502 5.41467 32.4896 3.83643 32.811C4.55381 33.6949 5.4778 34.5729 6.56249 35.3764C7.92265 36.3865 9.33446 37.1153 10.6143 37.5286C10.907 37.3851 11.1882 37.2301 11.4579 37.0694C11.7793 36.88 11.9687 36.6505 12.0433 36.4037C12.1351 36.0995 12.0605 35.7724 11.8539 35.4625C10.379 33.2242 9.34594 32.3175 7.11918 30.8311C7.26265 30.9631 7.33726 31.1008 7.33726 31.2385Z"
        fill="url(#paint1_radial_379_46234)" />
    <path fill-rule="evenodd" clip-rule="evenodd"
        d="M11.1824 35.4621C10.8955 36.5755 6.82073 37.6717 5.19083 38.0562C5.21379 38.257 5.24822 38.4636 5.28266 38.6645C6.74612 38.3202 11.2685 37.1092 11.6071 35.927C11.6932 35.6343 11.6129 35.3244 11.4177 35.0374L10.9873 34.6185C11.1767 34.8939 11.257 35.1866 11.1824 35.4621ZM2.78616 34.2053C4.06597 33.9986 8.1235 33.2296 8.18663 32.1794C8.20385 32.0072 8.12924 31.835 7.97428 31.6743L7.54385 31.2554C7.69307 31.4046 7.76768 31.5595 7.76194 31.7145C7.7275 32.8049 3.29694 33.5395 2.29834 33.683C2.45329 33.8724 2.61399 34.0446 2.78616 34.211V34.2053Z"
        fill="url(#paint2_linear_379_46234)" />
    <path fill-rule="evenodd" clip-rule="evenodd"
        d="M9.35177 35.5942C9.97159 36.0131 12.227 35.2671 12.0377 36.4034C12.1295 36.0992 12.0549 35.7721 11.8483 35.4622C10.3733 33.224 8.46221 31.3014 6.22971 29.8149C6.37319 29.9469 6.4478 30.0847 6.4478 30.2224C6.4478 30.6815 5.67876 31.0488 4.72607 31.3243C6.02884 32.9772 7.58987 34.4234 9.34603 35.5942H9.35177Z"
        fill="url(#paint3_linear_379_46234)" />
    <path fill-rule="evenodd" clip-rule="evenodd"
        d="M38.9996 33.1266C38.265 33.0405 33.5475 32.3518 33.5475 31.2327C33.5475 31.0949 33.6221 30.9572 33.7656 30.8252C31.5388 32.3116 30.5058 33.2184 29.0309 35.4566C28.83 35.7608 28.7497 36.0937 28.8415 36.3978C28.9161 36.6446 29.1055 36.8684 29.4269 37.0636C31.2232 38.1253 33.4442 38.8025 35.4701 39.2731C35.7456 38.0622 35.8432 36.8627 35.7226 35.6862C37.1746 35.118 38.1962 34.2973 38.9939 33.1323L38.9996 33.1266Z"
        fill="url(#paint4_linear_379_46234)" />
    <path style="mix-blend-mode:multiply" fill-rule="evenodd" clip-rule="evenodd"
        d="M33.5534 31.2385C33.5534 31.9502 35.476 32.4896 37.0542 32.811C36.3368 33.6949 35.4128 34.5729 34.3282 35.3764C32.968 36.3865 31.5562 37.1153 30.2764 37.5286C29.9837 37.3851 29.7025 37.2301 29.4327 37.0694C29.1113 36.88 28.922 36.6505 28.8473 36.4037C28.7555 36.0995 28.8301 35.7724 29.0367 35.4625C30.5117 33.2242 31.5447 32.3175 33.7715 30.8311C33.628 30.9631 33.5534 31.1008 33.5534 31.2385Z"
        fill="url(#paint5_radial_379_46234)" />
    <path fill-rule="evenodd" clip-rule="evenodd"
        d="M29.7027 35.4621C29.9896 36.5755 34.0644 37.6717 35.6943 38.0562C35.6713 38.257 35.6369 38.4636 35.6025 38.6645C34.139 38.3202 29.6166 37.1092 29.278 35.927C29.1919 35.6343 29.2723 35.3244 29.4674 35.0374L29.8978 34.6185C29.7084 34.8939 29.6281 35.1866 29.7027 35.4621ZM38.099 34.2053C36.8191 33.9986 32.7616 33.2296 32.6985 32.1794C32.6813 32.0072 32.7559 31.835 32.9108 31.6743L33.3413 31.2554C33.1921 31.4046 33.1174 31.5595 33.1232 31.7145C33.1576 32.8049 37.5882 33.5395 38.5868 33.683C38.4318 33.8724 38.2711 34.0446 38.099 34.211V34.2053Z"
        fill="url(#paint6_linear_379_46234)" />
    <path fill-rule="evenodd" clip-rule="evenodd"
        d="M31.5332 35.5942C30.9134 36.0131 28.658 35.2671 28.8473 36.4034C28.7555 36.0992 28.8301 35.7721 29.0367 35.4622C30.5117 33.224 32.4228 31.3014 34.6553 29.8149C34.5118 29.9469 34.4372 30.0847 34.4372 30.2224C34.4372 30.6815 35.2062 31.0488 36.1589 31.3243C34.8562 32.9772 33.2951 34.4234 31.539 35.5942H31.5332Z"
        fill="url(#paint7_linear_379_46234)" />
    <path fill-rule="evenodd" clip-rule="evenodd"
        d="M20.4459 4.10303C28.9744 4.10303 35.8908 11.0194 35.8908 19.5479C35.8908 28.0765 28.9744 34.9929 20.4459 34.9929C11.9174 34.9929 5.00098 28.0765 5.00098 19.5479C5.00098 11.0194 11.911 4.10303 20.4459 4.10303Z"
        fill="url(#paint8_linear_379_46234)" />
    <path style="mix-blend-mode:multiply" fill-rule="evenodd" clip-rule="evenodd"
        d="M20.4457 29.3155C27.7541 29.3155 33.6779 23.3917 33.6779 16.0833C33.6779 14.2183 33.2923 12.4418 32.5968 10.8359C34.3923 13.3079 35.4481 16.3488 35.4481 19.6363C35.4481 27.9183 28.734 34.6387 20.4457 34.6387C12.1574 34.6387 5.44336 27.9246 5.44336 19.6363C5.44336 16.3488 6.49915 13.3079 8.29463 10.8359C7.5992 12.4418 7.21355 14.2183 7.21355 16.0833C7.21355 23.3917 13.1374 29.3155 20.4457 29.3155Z"
        fill="url(#paint9_radial_379_46234)" />
    <path fill-rule="evenodd" clip-rule="evenodd"
        d="M20.4459 4.74787C28.6204 4.74787 35.2459 11.3734 35.2459 19.5479C35.2459 27.7224 28.6204 34.348 20.4459 34.348C12.2714 34.348 5.64582 27.7161 5.64582 19.5479C5.64582 11.3798 12.2714 4.74787 20.4459 4.74787ZM37.3449 19.5479C37.3449 10.2165 29.7773 2.64893 20.4459 2.64893C11.1144 2.64893 3.54688 10.2165 3.54688 19.5479C3.54688 28.8794 11.1144 36.4469 20.4459 36.4469C29.7773 36.4469 37.3449 28.8794 37.3449 19.5479Z"
        fill="url(#paint10_linear_379_46234)" />
    <path fill-rule="evenodd" clip-rule="evenodd"
        d="M20.4457 36.4404C29.7771 36.4404 37.3447 28.8729 37.3447 19.5414C37.3447 10.21 29.7771 2.64875 20.4457 2.64875C11.1143 2.64875 3.54669 10.2163 3.54669 19.5477C3.54669 28.8792 11.1143 36.4468 20.4457 36.4468V36.4404ZM39.4436 19.5414C39.4436 30.0298 30.9404 38.5394 20.4457 38.5394C9.95099 38.5394 1.44775 30.0361 1.44775 19.5477C1.44775 9.05937 9.95099 0.549805 20.4457 0.549805C30.9404 0.549805 39.4436 9.05304 39.4436 19.5477V19.5414Z"
        fill="url(#paint11_linear_379_46234)" />
    <path style="mix-blend-mode:screen" fill-rule="evenodd" clip-rule="evenodd"
        d="M20.4459 34.3416C12.2714 34.3416 5.64582 27.716 5.64582 19.5415C5.33603 19.5921 4.97567 19.6174 4.59635 19.6174C4.21702 19.6174 3.85666 19.5921 3.54688 19.5415C3.54688 28.8729 11.1144 36.4405 20.4459 36.4405C29.7773 36.4405 37.3449 28.8729 37.3449 19.5415C37.0351 19.5921 36.6747 19.6174 36.2954 19.6174C35.9161 19.6174 35.5557 19.5921 35.2459 19.5415C35.2459 27.716 28.6204 34.3416 20.4459 34.3416Z"
        fill="url(#paint12_linear_379_46234)" />
    <path style="mix-blend-mode:screen" fill-rule="evenodd" clip-rule="evenodd"
        d="M3.54669 19.5477C3.54669 10.2163 11.1143 2.64875 20.4457 2.64875C29.7771 2.64875 37.3447 10.2163 37.3447 19.5477C37.6545 19.4972 38.0148 19.4719 38.3942 19.4719C38.7735 19.4719 39.1339 19.4972 39.4436 19.5477C39.4373 9.05304 30.9341 0.549805 20.4457 0.549805C9.95732 0.549805 1.44775 9.05304 1.44775 19.5477C1.75754 19.4972 2.1179 19.4719 2.49722 19.4719C2.87655 19.4719 3.23691 19.4972 3.54669 19.5477Z"
        fill="url(#paint13_linear_379_46234)" />
    <path style="mix-blend-mode:screen" fill-rule="evenodd" clip-rule="evenodd"
        d="M20.4456 34.3416C12.2711 34.3416 5.64551 27.716 5.64551 19.5415C5.64551 28.07 12.2711 34.9864 20.4456 34.9864C28.6201 34.9864 35.2456 28.07 35.2456 19.5415C35.2456 27.716 28.6201 34.3416 20.4456 34.3416Z"
        fill="url(#paint14_radial_379_46234)" />
    <path style="mix-blend-mode:multiply" fill-rule="evenodd" clip-rule="evenodd"
        d="M20.4458 5.5315C27.1978 5.5315 32.9003 9.77364 34.7084 15.59C32.9762 9.33741 27.2484 4.74756 20.4458 4.74756C13.6432 4.74756 7.90902 9.33741 6.17676 15.59C7.98488 9.77996 13.6874 5.5315 20.4394 5.5315H20.4458Z"
        fill="url(#paint15_radial_379_46234)" />
    <path style="mix-blend-mode:screen" opacity="0.5" fill-rule="evenodd" clip-rule="evenodd"
        d="M20.4457 23.3347C26.5971 23.3347 31.5853 19.5099 31.5853 14.7872C31.5853 10.0646 26.5971 6.23975 20.4457 6.23975C14.2943 6.23975 9.30615 10.0646 9.30615 14.7872C9.30615 19.5099 14.2943 23.3347 20.4457 23.3347Z"
        fill="url(#paint16_radial_379_46234)" />
    <path style="mix-blend-mode:screen" opacity="0.5" fill-rule="evenodd" clip-rule="evenodd"
        d="M20.4456 13.0991C24.3401 13.0991 27.4948 11.6387 27.4948 9.83054C27.4948 8.02242 24.3401 6.56201 20.4456 6.56201C16.5512 6.56201 13.3965 8.02242 13.3965 9.83054C13.3965 11.6387 16.5512 13.0991 20.4456 13.0991Z"
        fill="url(#paint17_radial_379_46234)" />
    <g style="mix-blend-mode:soft-light" filter="url(#filter0_d_379_46234)">
        <path
            d="M15.1045 25V22.7457L20.3718 17.8685C20.8198 17.435 21.1955 17.0448 21.499 16.698C21.8073 16.3512 22.0409 16.0116 22.1998 15.6792C22.3588 15.342 22.4383 14.9783 22.4383 14.5882C22.4383 14.1546 22.3395 13.7813 22.142 13.4682C21.9445 13.1503 21.6748 12.907 21.3328 12.7384C20.9908 12.565 20.603 12.4783 20.1695 12.4783C19.7167 12.4783 19.3217 12.5698 18.9845 12.7529C18.6473 12.9359 18.3872 13.1985 18.2042 13.5405C18.0211 13.8825 17.9296 14.2895 17.9296 14.7616H14.96C14.96 13.7934 15.1791 12.9528 15.6175 12.2399C16.0558 11.527 16.67 10.9754 17.46 10.5853C18.2499 10.1951 19.1603 10 20.1912 10C21.2509 10 22.1734 10.1879 22.9585 10.5636C23.7485 10.9345 24.3627 11.4499 24.801 12.1098C25.2393 12.7697 25.4585 13.526 25.4585 14.3786C25.4585 14.9374 25.3477 15.4889 25.1261 16.0332C24.9094 16.5776 24.5216 17.1821 23.9629 17.8468C23.4041 18.5067 22.6165 19.2991 21.6001 20.224L19.4397 22.341V22.4422H25.6536V25H15.1045Z"
            fill="white" />
    </g>
    <path fill-rule="evenodd" clip-rule="evenodd"
        d="M20.4459 25C27.1261 25 33.0489 26.3142 36.7506 28.3401C37.0375 28.4951 37.2212 28.7361 37.3015 29.0575C37.3819 29.3732 37.3302 29.6773 37.1466 29.9471C35.6716 32.1853 33.7605 34.1079 31.528 35.5943C32.2913 35.0778 31.8322 34.2973 31.2411 33.907C29.6341 32.8453 25.4044 32.0878 20.4401 32.0878C20.3081 29.6429 20.3139 27.2842 20.4401 25.0057L20.4459 25Z"
        fill="url(#paint18_radial_379_46234)" />
    <path fill-rule="evenodd" clip-rule="evenodd"
        d="M20.4456 25C13.7653 25 7.84256 26.3142 4.14085 28.3401C3.8539 28.4951 3.67025 28.7361 3.5899 29.0575C3.50956 29.3732 3.56121 29.6773 3.74486 29.9471C5.2198 32.1853 7.13091 34.1079 9.36341 35.5943C8.60012 35.0778 9.05924 34.2973 9.65037 33.907C11.2573 32.8453 15.487 32.0878 20.4513 32.0878C20.5833 29.6429 20.5776 27.2842 20.4513 25.0057L20.4456 25Z"
        fill="url(#paint19_radial_379_46234)" />
    <path fill-rule="evenodd" clip-rule="evenodd"
        d="M8.64053 32.891C8.07236 33.2526 7.59028 33.9872 8.12975 34.7046C8.25601 34.8021 8.38227 34.8997 8.51427 34.9973C8.19288 34.3488 8.64053 33.7232 9.13983 33.3961C10.9362 32.2483 15.3208 31.439 20.4401 31.439V30.7963C15.1659 30.7963 10.6262 31.6571 8.64053 32.891ZM4.35344 30.825C4.2157 30.2396 4.61744 29.6427 5.13395 29.35C8.45688 27.4963 14.0754 26.2854 20.4401 26.2854V25.6426C13.9147 25.6426 8.14697 26.9052 4.63465 28.845C4.187 29.0918 3.83118 29.5681 3.81396 30.0617C3.98614 30.3199 4.16979 30.5782 4.35344 30.825Z"
        fill="url(#paint20_radial_379_46234)" />
    <path opacity="0.75" fill-rule="evenodd" clip-rule="evenodd"
        d="M20.4457 25.5566C14.5976 25.5566 9.36352 26.6012 5.83398 28.254C9.38647 26.6528 14.6148 25.6485 20.4457 25.6485V25.5566ZM9.89725 32.2886C12.2273 31.3875 16.084 30.7964 20.4457 30.7964V30.7333C16.061 30.7333 12.1929 31.3474 9.89725 32.2886Z"
        fill="white" />
    <path style="mix-blend-mode:screen" opacity="0.5" fill-rule="evenodd" clip-rule="evenodd"
        d="M9.70216 33.8667C7.75088 32.1335 5.85124 29.9354 4.74934 28.0186C4.537 28.1219 4.33613 28.2309 4.13526 28.3399C3.95161 28.4375 3.81387 28.5752 3.71631 28.7359C3.745 28.822 3.77944 28.9024 3.82535 28.977C4.63456 30.3601 7.28027 33.3731 9.05939 34.5381C9.17991 34.2914 9.40373 34.0618 9.65051 33.9011C9.66773 33.8896 9.69069 33.8782 9.7079 33.8609L9.70216 33.8667Z"
        fill="url(#paint21_radial_379_46234)" />
    <path fill-rule="evenodd" clip-rule="evenodd"
        d="M32.2449 32.891C32.813 33.2526 33.2951 33.9872 32.7556 34.7046C32.6294 34.8021 32.5031 34.8997 32.3711 34.9973C32.6925 34.3488 32.2449 33.7232 31.7456 33.3961C29.9492 32.2483 25.5646 31.439 20.4453 31.439V30.7963C25.7195 30.7963 30.2591 31.6571 32.2449 32.891ZM36.5319 30.825C36.6697 30.2396 36.2679 29.6427 35.7514 29.35C32.4285 27.4963 26.8099 26.2854 20.4453 26.2854V25.6426C26.9706 25.6426 32.7384 26.9052 36.2507 28.845C36.6984 29.0918 37.0542 29.5681 37.0714 30.0617C36.8992 30.3199 36.7156 30.5782 36.5319 30.825Z"
        fill="url(#paint22_radial_379_46234)" />
    <path opacity="0.75" fill-rule="evenodd" clip-rule="evenodd"
        d="M20.4453 25.5566C26.2934 25.5566 31.5275 26.6012 35.057 28.254C31.5045 26.6528 26.2762 25.6485 20.4453 25.6485V25.5566ZM30.9937 32.2886C28.6637 31.3875 24.807 30.7964 20.4453 30.7964V30.7333C24.83 30.7333 28.6981 31.3474 30.9937 32.2886Z"
        fill="white" />
    <path style="mix-blend-mode:screen" opacity="0.5" fill-rule="evenodd" clip-rule="evenodd"
        d="M31.1835 33.8667C33.1348 32.1335 35.0344 29.9354 36.1363 28.0186C36.3486 28.1219 36.5495 28.2309 36.7504 28.3399C36.934 28.4375 37.0718 28.5752 37.1693 28.7359C37.1406 28.822 37.1062 28.9024 37.0603 28.977C36.2511 30.3601 33.6054 33.3731 31.8262 34.5381C31.7057 34.2914 31.4819 34.0618 31.2351 33.9011C31.2179 33.8896 31.195 33.8782 31.1777 33.8609L31.1835 33.8667Z"
        fill="url(#paint23_radial_379_46234)" />
    <path style="mix-blend-mode:screen"
        d="M11.6577 9.41995C14.259 9.41995 16.3677 7.31122 16.3677 4.70997C16.3677 2.10873 14.259 0 11.6577 0C9.05648 0 6.94775 2.10873 6.94775 4.70997C6.94775 7.31122 9.05648 9.41995 11.6577 9.41995Z"
        fill="url(#paint24_radial_379_46234)" />
    <path style="mix-blend-mode:screen"
        d="M26.8941 40C29.4953 40 31.604 37.8913 31.604 35.2901C31.604 32.6888 29.4953 30.5801 26.8941 30.5801C24.2928 30.5801 22.1841 32.6888 22.1841 35.2901C22.1841 37.8913 24.2928 40 26.8941 40Z"
        fill="url(#paint25_radial_379_46234)" />
    <defs>
        <filter id="filter0_d_379_46234" x="14.96" y="10" width="10.6938" height="15.8478" filterUnits="userSpaceOnUse"
            color-interpolation-filters="sRGB">
            <feFlood flood-opacity="0" result="BackgroundImageFix" />
            <feColorMatrix in="SourceAlpha" type="matrix" values="0 0 0 0 0 0 0 0 0 0 0 0 0 0 0 0 0 0 127 0"
                result="hardAlpha" />
            <feOffset dy="0.847784" />
            <feComposite in2="hardAlpha" operator="out" />
            <feColorMatrix type="matrix" values="0 0 0 0 0 0 0 0 0 0 0 0 0 0 0 0 0 0 0.25 0" />
            <feBlend mode="normal" in2="BackgroundImageFix" result="effect1_dropShadow_379_46234" />
            <feBlend mode="normal" in="SourceGraphic" in2="effect1_dropShadow_379_46234" result="shape" />
        </filter>
        <linearGradient id="paint0_linear_379_46234" x1="1.88525" y1="35.0492" x2="12.0779" y2="35.0492"
            gradientUnits="userSpaceOnUse">
            <stop stop-color="#1A8A81" />
            <stop offset="0.19" stop-color="#18837B" />
            <stop offset="0.45" stop-color="#15726D" />
            <stop offset="0.74" stop-color="#0F5656" />
            <stop offset="1" stop-color="#0A383D" />
        </linearGradient>
        <radialGradient id="paint1_radial_379_46234" cx="0" cy="0" r="1" gradientUnits="userSpaceOnUse"
            gradientTransform="translate(16.0894 22.5037) scale(16.2129)">
            <stop offset="0.71" stop-color="#E3A539" />
            <stop offset="0.75" stop-color="#E3A63D" />
            <stop offset="0.79" stop-color="#E5AC49" />
            <stop offset="0.83" stop-color="#E8B55D" />
            <stop offset="0.88" stop-color="#ECC279" />
            <stop offset="0.92" stop-color="#F1D39E" />
            <stop offset="0.96" stop-color="#F7E7CA" />
            <stop offset="1" stop-color="white" />
        </radialGradient>
        <linearGradient id="paint2_linear_379_46234" x1="2.29834" y1="34.9571" x2="11.6473" y2="34.9571"
            gradientUnits="userSpaceOnUse">
            <stop stop-color="#AACCD6" />
            <stop offset="1" stop-color="#54737C" />
        </linearGradient>
        <linearGradient id="paint3_linear_379_46234" x1="4.73181" y1="33.1034" x2="12.0778" y2="33.1034"
            gradientUnits="userSpaceOnUse">
            <stop stop-color="#0A3D48" />
            <stop offset="1" stop-color="#006B6D" />
        </linearGradient>
        <linearGradient id="paint4_linear_379_46234" x1="38.9996" y1="3.74823" x2="28.807" y2="3.74823"
            gradientUnits="userSpaceOnUse">
            <stop stop-color="#1A8A81" />
            <stop offset="0.19" stop-color="#18837B" />
            <stop offset="0.45" stop-color="#15726D" />
            <stop offset="0.74" stop-color="#0F5656" />
            <stop offset="1" stop-color="#0A383D" />
        </linearGradient>
        <radialGradient id="paint5_radial_379_46234" cx="0" cy="0" r="1" gradientUnits="userSpaceOnUse"
            gradientTransform="translate(24.7956 4.03531) rotate(180) scale(16.2129 16.2129)">
            <stop offset="0.71" stop-color="#E3A539" />
            <stop offset="0.75" stop-color="#E3A63D" />
            <stop offset="0.79" stop-color="#E5AC49" />
            <stop offset="0.83" stop-color="#E8B55D" />
            <stop offset="0.88" stop-color="#ECC279" />
            <stop offset="0.92" stop-color="#F1D39E" />
            <stop offset="0.96" stop-color="#F7E7CA" />
            <stop offset="1" stop-color="white" />
        </radialGradient>
        <linearGradient id="paint6_linear_379_46234" x1="38.5868" y1="3.74798" x2="29.2378" y2="3.74798"
            gradientUnits="userSpaceOnUse">
            <stop stop-color="#AACCD6" />
            <stop offset="1" stop-color="#54737C" />
        </linearGradient>
        <linearGradient id="paint7_linear_379_46234" x1="28.8072" y1="3.74805" x2="36.1532" y2="3.74805"
            gradientUnits="userSpaceOnUse">
            <stop stop-color="#0A3D48" />
            <stop offset="1" stop-color="#006B6D" />
        </linearGradient>
        <linearGradient id="paint8_linear_379_46234" x1="20.4459" y1="34.9929" x2="20.4459" y2="4.10303"
            gradientUnits="userSpaceOnUse">
            <stop stop-color="#3F516E" />
            <stop offset="1" stop-color="#707E8C" />
        </linearGradient>
        <radialGradient id="paint9_radial_379_46234" cx="0" cy="0" r="1" gradientUnits="userSpaceOnUse"
            gradientTransform="translate(20.5532 16.3804) scale(29.1702 29.1702)">
            <stop stop-color="white" />
            <stop offset="1" stop-color="#9EA5B3" />
        </radialGradient>
        <linearGradient id="paint10_linear_379_46234" x1="20.4459" y1="36.4406" x2="20.4459" y2="2.64893"
            gradientUnits="userSpaceOnUse">
            <stop stop-color="#8D96A4" />
            <stop offset="1" stop-color="#596285" />
        </linearGradient>
        <linearGradient id="paint11_linear_379_46234" x1="20.4457" y1="36.4404" x2="20.4457" y2="2.64875"
            gradientUnits="userSpaceOnUse">
            <stop stop-color="#505878" />
            <stop offset="1" stop-color="#B4BFD1" />
        </linearGradient>
        <linearGradient id="paint12_linear_379_46234" x1="20.4459" y1="36.4405" x2="20.4459" y2="19.5478"
            gradientUnits="userSpaceOnUse">
            <stop stop-color="#869FD1" />
            <stop offset="1" />
        </linearGradient>
        <linearGradient id="paint13_linear_379_46234" x1="20.4457" y1="19.5477" x2="20.4457" y2="0.549805"
            gradientUnits="userSpaceOnUse">
            <stop />
            <stop offset="1" stop-color="#8F96C4" />
        </linearGradient>
        <radialGradient id="paint14_radial_379_46234" cx="0" cy="0" r="1" gradientUnits="userSpaceOnUse"
            gradientTransform="translate(20.4456 34.3542) scale(17.7272)">
            <stop stop-color="#BFC5FF" />
            <stop offset="1" stop-color="#7987AD" />
        </radialGradient>
        <radialGradient id="paint15_radial_379_46234" cx="0" cy="0" r="1" gradientUnits="userSpaceOnUse"
            gradientTransform="translate(20.4458 10.1719) scale(16.0329 16.0329)">
            <stop stop-color="white" />
            <stop offset="0.14" stop-color="#DFE2ED" />
            <stop offset="0.29" stop-color="#C3C9DD" />
            <stop offset="0.44" stop-color="#AFB6D2" />
            <stop offset="0.6" stop-color="#A3ABCB" />
            <stop offset="0.75" stop-color="#9FA8C9" />
        </radialGradient>
        <radialGradient id="paint16_radial_379_46234" cx="0" cy="0" r="1" gradientUnits="userSpaceOnUse"
            gradientTransform="translate(21.5584 -7.63096) scale(31.6232 31.6232)">
            <stop stop-color="#ABB8FF" />
            <stop offset="1" />
        </radialGradient>
        <radialGradient id="paint17_radial_379_46234" cx="0" cy="0" r="1" gradientUnits="userSpaceOnUse"
            gradientTransform="translate(20.2939 -6.40464) scale(21.0021 21.0021)">
            <stop stop-color="#ABB8FF" />
            <stop offset="1" />
        </radialGradient>
        <radialGradient id="paint18_radial_379_46234" cx="0" cy="0" r="1" gradientUnits="userSpaceOnUse"
            gradientTransform="translate(0.990397 1.18283) rotate(-180) scale(46.5324 46.5324)">
            <stop offset="0.33" stop-color="#00565F" />
            <stop offset="0.37" stop-color="#00B5C5" />
            <stop offset="0.39" stop-color="#009DA9" />
            <stop offset="0.4" stop-color="#008A93" />
            <stop offset="0.42" stop-color="#007D83" />
            <stop offset="0.43" stop-color="#007579" />
            <stop offset="0.46" stop-color="#007377" />
            <stop offset="0.64" stop-color="#008682" />
            <stop offset="0.84" stop-color="#00958B" />
            <stop offset="1" stop-color="#009B8F" />
        </radialGradient>
        <radialGradient id="paint19_radial_379_46234" cx="0" cy="0" r="1" gradientUnits="userSpaceOnUse"
            gradientTransform="translate(39.8953 4.03515) scale(46.5324 46.5324)">
            <stop offset="0.33" stop-color="#00565F" />
            <stop offset="0.37" stop-color="#00B5C5" />
            <stop offset="0.39" stop-color="#009DA9" />
            <stop offset="0.4" stop-color="#008A93" />
            <stop offset="0.42" stop-color="#007D83" />
            <stop offset="0.43" stop-color="#007579" />
            <stop offset="0.46" stop-color="#007377" />
            <stop offset="0.64" stop-color="#008682" />
            <stop offset="0.84" stop-color="#00958B" />
            <stop offset="1" stop-color="#009B8F" />
        </radialGradient>
        <radialGradient id="paint20_radial_379_46234" cx="0" cy="0" r="1" gradientUnits="userSpaceOnUse"
            gradientTransform="translate(37.4794 3.93166) scale(42.6872 42.6872)">
            <stop stop-color="#BAD5FF" />
            <stop offset="0.55" stop-color="#BBD6FF" />
            <stop offset="0.75" stop-color="#C2DAFF" />
            <stop offset="0.77" stop-color="#C4DBFF" />
            <stop offset="0.94" stop-color="white" />
            <stop offset="0.95" stop-color="#FAFBFB" />
            <stop offset="0.96" stop-color="#EEEFF0" />
            <stop offset="0.97" stop-color="#D8DBDE" />
            <stop offset="0.98" stop-color="#BBBFC4" />
            <stop offset="0.99" stop-color="#67717B" />
            <stop offset="1" stop-color="#485461" />
        </radialGradient>
        <radialGradient id="paint21_radial_379_46234" cx="0" cy="0" r="1" gradientUnits="userSpaceOnUse"
            gradientTransform="translate(3.5384 27.106) scale(12.8383)">
            <stop stop-color="#ABB8FF" />
            <stop offset="1" />
        </radialGradient>
        <radialGradient id="paint22_radial_379_46234" cx="0" cy="0" r="1" gradientUnits="userSpaceOnUse"
            gradientTransform="translate(3.406 4.03496) rotate(180) scale(42.6872 42.6872)">
            <stop stop-color="#BAD5FF" />
            <stop offset="0.55" stop-color="#BBD6FF" />
            <stop offset="0.75" stop-color="#C2DAFF" />
            <stop offset="0.77" stop-color="#C4DBFF" />
            <stop offset="0.94" stop-color="white" />
            <stop offset="0.95" stop-color="#FAFBFB" />
            <stop offset="0.96" stop-color="#EEEFF0" />
            <stop offset="0.97" stop-color="#D8DBDE" />
            <stop offset="0.98" stop-color="#BBBFC4" />
            <stop offset="0.99" stop-color="#67717B" />
            <stop offset="1" stop-color="#485461" />
        </radialGradient>
        <radialGradient id="paint23_radial_379_46234" cx="0" cy="0" r="1" gradientUnits="userSpaceOnUse"
            gradientTransform="translate(37.3415 27.106) rotate(180) scale(12.8383 12.8383)">
            <stop stop-color="#ABB8FF" />
            <stop offset="1" />
        </radialGradient>
        <radialGradient id="paint24_radial_379_46234" cx="0" cy="0" r="1" gradientUnits="userSpaceOnUse"
            gradientTransform="translate(11.6577 4.70997) scale(4.70997)">
            <stop stop-color="#9EC5FF" />
            <stop offset="0.06" stop-color="#8EB1E5" />
            <stop offset="0.21" stop-color="#6983A9" />
            <stop offset="0.35" stop-color="#495B75" />
            <stop offset="0.5" stop-color="#2E3A4B" />
            <stop offset="0.64" stop-color="#1A202A" />
            <stop offset="0.77" stop-color="#0B0E13" />
            <stop offset="0.89" stop-color="#030304" />
            <stop offset="1" />
        </radialGradient>
        <radialGradient id="paint25_radial_379_46234" cx="0" cy="0" r="1" gradientUnits="userSpaceOnUse"
            gradientTransform="translate(26.8941 35.2901) scale(4.70997)">
            <stop stop-color="#9EC5FF" />
            <stop offset="0.06" stop-color="#8EB1E5" />
            <stop offset="0.21" stop-color="#6983A9" />
            <stop offset="0.35" stop-color="#495B75" />
            <stop offset="0.5" stop-color="#2E3A4B" />
            <stop offset="0.64" stop-color="#1A202A" />
            <stop offset="0.77" stop-color="#0B0E13" />
            <stop offset="0.89" stop-color="#030304" />
            <stop offset="1" />
        </radialGradient>
    </defs>
</svg>