<svg width="70" height="58" viewBox="0 0 70 58" fill="none" xmlns="http://www.w3.org/2000/svg">
    <circle cx="49.5" cy="36.5" r="19.5" fill="#D9F1FF" />
    <mask id="mask0_726_11176" style="mask-type:alpha" maskUnits="userSpaceOnUse" x="5" y="2" width="54" height="54">
        <rect x="5" y="2" width="54" height="54" fill="#D9D9D9" />
    </mask>
    <g mask="url(#mask0_726_11176)">
        <circle cx="32" cy="29" r="22" fill="#FCFCFC" />
        <path
            d="M28.85 33.05L23.9563 28.1562C23.5438 27.7437 23.0285 27.5473 22.4105 27.5667C21.791 27.5847 21.275 27.8 20.8625 28.2125C20.45 28.625 20.2438 29.15 20.2438 29.7875C20.2438 30.425 20.45 30.95 20.8625 31.3625L27.275 37.775C27.6875 38.1875 28.2125 38.3937 28.85 38.3937C29.4875 38.3937 30.0125 38.1875 30.425 37.775L43.1938 25.0063C43.6063 24.5938 43.8035 24.0777 43.7855 23.4583C43.766 22.8403 43.55 22.325 43.1375 21.9125C42.725 21.5 42.2 21.2937 41.5625 21.2937C40.925 21.2937 40.4 21.5 39.9875 21.9125L28.85 33.05ZM32 51.5C28.8875 51.5 25.9625 50.909 23.225 49.727C20.4875 48.5465 18.1063 46.9438 16.0813 44.9188C14.0563 42.8938 12.4535 40.5125 11.273 37.775C10.091 35.0375 9.5 32.1125 9.5 29C9.5 25.8875 10.091 22.9625 11.273 20.225C12.4535 17.4875 14.0563 15.1063 16.0813 13.0813C18.1063 11.0563 20.4875 9.45275 23.225 8.27075C25.9625 7.09025 28.8875 6.5 32 6.5C35.1125 6.5 38.0375 7.09025 40.775 8.27075C43.5125 9.45275 45.8938 11.0563 47.9188 13.0813C49.9438 15.1063 51.5465 17.4875 52.727 20.225C53.909 22.9625 54.5 25.8875 54.5 29C54.5 32.1125 53.909 35.0375 52.727 37.775C51.5465 40.5125 49.9438 42.8938 47.9188 44.9188C45.8938 46.9438 43.5125 48.5465 40.775 49.727C38.0375 50.909 35.1125 51.5 32 51.5ZM32 47C36.9875 47 41.2348 45.2472 44.7417 41.7417C48.2472 38.2348 50 33.9875 50 29C50 24.0125 48.2472 19.7653 44.7417 16.2582C41.2348 12.7527 36.9875 11 32 11C27.0125 11 22.766 12.7527 19.2605 16.2582C15.7535 19.7653 14 24.0125 14 29C14 33.9875 15.7535 38.2348 19.2605 41.7417C22.766 45.2472 27.0125 47 32 47Z"
            fill="#42BBFF" />
    </g>
</svg>