<svg width="24" height="24" viewBox="0 0 24 24" fill="none" xmlns="http://www.w3.org/2000/svg">
    <mask id="mask0_374_18095" style="mask-type:alpha" maskUnits="userSpaceOnUse" x="0" y="0" width="24" height="24">
        <rect width="24" height="24" fill="#D9D9D9" />
    </mask>
    <g mask="url(#mask0_374_18095)">
        <path
            d="M11.9999 19.575C11.8666 19.575 11.7416 19.554 11.6249 19.512C11.5082 19.4707 11.3999 19.4 11.2999 19.3L4.6999 12.7C4.4999 12.5 4.3999 12.2623 4.3999 11.987C4.3999 11.7123 4.4999 11.475 4.6999 11.275C4.8999 11.075 5.13324 10.975 5.3999 10.975C5.66657 10.975 5.8999 11.075 6.0999 11.275L10.9999 16.175V4.975C10.9999 4.69167 11.0959 4.45833 11.2879 4.275C11.4792 4.09167 11.7166 4 11.9999 4C12.2832 4 12.5209 4.09567 12.7129 4.287C12.9042 4.479 12.9999 4.71667 12.9999 5V16.175L17.8999 11.275C18.0999 11.075 18.3332 10.975 18.5999 10.975C18.8666 10.975 19.0999 11.075 19.2999 11.275C19.4999 11.475 19.5999 11.7123 19.5999 11.987C19.5999 12.2623 19.4999 12.5 19.2999 12.7L12.6999 19.3C12.5999 19.4 12.4916 19.4707 12.3749 19.512C12.2582 19.554 12.1332 19.575 11.9999 19.575Z"
            fill="#68C9FF" />
    </g>
</svg>