<svg width="25" height="24" viewBox="0 0 25 24" fill="none" xmlns="http://www.w3.org/2000/svg">
    <mask id="mask0_230_7470" style="mask-type:alpha" maskUnits="userSpaceOnUse" x="0" y="0" width="25" height="24">
        <rect x="0.5" width="24" height="24" fill="#D9D9D9" />
    </mask>
    <g mask="url(#mask0_230_7470)">
        <path
            d="M11.8 19.3C11.6167 19.1167 11.5207 18.8834 11.512 18.6C11.504 18.3167 11.5917 18.0834 11.775 17.9L16.675 13H5.5C5.21667 13 4.979 12.904 4.787 12.712C4.59567 12.5207 4.5 12.2834 4.5 12C4.5 11.7167 4.59567 11.479 4.787 11.287C4.979 11.0957 5.21667 11 5.5 11H16.675L11.775 6.10005C11.5917 5.91672 11.504 5.68338 11.512 5.40005C11.5207 5.11672 11.6167 4.88338 11.8 4.70005C11.9833 4.51672 12.2167 4.42505 12.5 4.42505C12.7833 4.42505 13.0167 4.51672 13.2 4.70005L19.8 11.3C19.9 11.3834 19.971 11.4874 20.013 11.612C20.0543 11.7374 20.075 11.8667 20.075 12C20.075 12.1334 20.0543 12.2584 20.013 12.375C19.971 12.4917 19.9 12.6 19.8 12.7L13.2 19.3C13.0167 19.4834 12.7833 19.575 12.5 19.575C12.2167 19.575 11.9833 19.4834 11.8 19.3Z"
            fill="#154A89" />
    </g>
</svg>