<svg width="21" height="20" viewBox="0 0 21 20" fill="none" xmlns="http://www.w3.org/2000/svg">
<g clip-path="url(#clip0_411_14299)">
<mask id="mask0_411_14299" style="mask-type:alpha" maskUnits="userSpaceOnUse" x="0" y="0" width="25" height="24">
<rect x="0.5" width="24" height="24" fill="#D9D9D9"/>
</mask>
<g mask="url(#mask0_411_14299)">
<path d="M10.4998 16.6667C10.2637 16.6667 10.0659 16.5867 9.9065 16.4267C9.7465 16.2672 9.6665 16.0694 9.6665 15.8333V6.52083L5.604 10.5833C5.43734 10.75 5.23928 10.8333 5.00984 10.8333C4.78095 10.8333 4.58317 10.75 4.4165 10.5833C4.24984 10.4167 4.1665 10.2222 4.1665 10C4.1665 9.77778 4.24984 9.58333 4.4165 9.41667L9.9165 3.91667C9.99984 3.83333 10.0901 3.77417 10.1873 3.73917C10.2846 3.70472 10.3887 3.6875 10.4998 3.6875C10.6109 3.6875 10.7187 3.70472 10.8232 3.73917C10.9271 3.77417 11.0137 3.83333 11.0832 3.91667L16.5832 9.41667C16.7498 9.58333 16.8332 9.77778 16.8332 10C16.8332 10.2222 16.7498 10.4167 16.5832 10.5833C16.4165 10.75 16.2184 10.8333 15.989 10.8333C15.7601 10.8333 15.5623 10.75 15.3957 10.5833L11.3332 6.52083V15.8333C11.3332 16.0694 11.2534 16.2672 11.094 16.4267C10.934 16.5867 10.7359 16.6667 10.4998 16.6667Z" fill="#154A89"/>
</g>
</g>
<defs>
<clipPath id="clip0_411_14299">
<rect width="20" height="20" fill="white" transform="translate(0.5)"/>
</clipPath>
</defs>
</svg>
