<svg width="48" height="48" viewBox="0 0 48 48" fill="none" xmlns="http://www.w3.org/2000/svg">
    <mask id="mask0_891_17807" style="mask-type:alpha" maskUnits="userSpaceOnUse" x="0" y="0" width="48" height="48">
    <rect width="48" height="48" fill="#D9D9D9"/>
    </mask>
    <g mask="url(#mask0_891_17807)">
    <path d="M26.6001 34.5996L17.4001 25.3996C17.2001 25.1996 17.0588 24.9829 16.9761 24.7496C16.8921 24.5163 16.8501 24.2663 16.8501 23.9996C16.8501 23.7329 16.8921 23.4829 16.9761 23.2496C17.0588 23.0163 17.2001 22.7996 17.4001 22.5996L26.6001 13.3996C26.9668 13.0329 27.4334 12.8496 28.0001 12.8496C28.5668 12.8496 29.0334 13.0329 29.4001 13.3996C29.7668 13.7663 29.9501 14.2329 29.9501 14.7996C29.9501 15.3663 29.7668 15.8329 29.4001 16.1996L21.6001 23.9996L29.4001 31.7996C29.7668 32.1663 29.9501 32.6329 29.9501 33.1996C29.9501 33.7663 29.7668 34.2329 29.4001 34.5996C29.0334 34.9663 28.5668 35.1496 28.0001 35.1496C27.4334 35.1496 26.9668 34.9663 26.6001 34.5996Z" fill="#FCFCFC"/>
    </g>
    </svg>
    