<svg width="48" height="48" viewBox="0 0 48 48" fill="none" xmlns="http://www.w3.org/2000/svg">
    <mask id="mask0_891_17811" style="mask-type:alpha" maskUnits="userSpaceOnUse" x="0" y="0" width="48" height="48">
        <rect width="48" height="48" fill="#D9D9D9" />
    </mask>
    <g mask="url(#mask0_891_17811)">
        <path
            d="M17.4001 34.5996C17.0334 34.2329 16.8501 33.7663 16.8501 33.1996C16.8501 32.6329 17.0334 32.1663 17.4001 31.7996L25.2001 23.9996L17.4001 16.1996C17.0334 15.8329 16.8501 15.3663 16.8501 14.7996C16.8501 14.2329 17.0334 13.7663 17.4001 13.3996C17.7668 13.0329 18.2334 12.8496 18.8001 12.8496C19.3668 12.8496 19.8334 13.0329 20.2001 13.3996L29.4001 22.5996C29.6001 22.7996 29.7421 23.0163 29.8261 23.2496C29.9088 23.4829 29.9501 23.7329 29.9501 23.9996C29.9501 24.2663 29.9088 24.5163 29.8261 24.7496C29.7421 24.9829 29.6001 25.1996 29.4001 25.3996L20.2001 34.5996C19.8334 34.9663 19.3668 35.1496 18.8001 35.1496C18.2334 35.1496 17.7668 34.9663 17.4001 34.5996Z"
            fill="#FCFCFC" />
    </g>
</svg>