<svg width="40" height="40" viewBox="0 0 40 40" fill="none" xmlns="http://www.w3.org/2000/svg">
    <g opacity="0.4">
        <mask id="mask0_330_4201" style="mask-type:alpha" maskUnits="userSpaceOnUse" x="0" y="0" width="40" height="40">
            <rect width="40" height="40" fill="#D9D9D9" />
        </mask>
        <g mask="url(#mask0_330_4201)">
            <path
                d="M20.0004 24.9172C19.7782 24.9172 19.5698 24.8822 19.3754 24.8122C19.1809 24.7433 19.0004 24.6255 18.8337 24.4589L11.1254 16.7505C10.8198 16.445 10.6743 16.0628 10.6887 15.6039C10.7021 15.1461 10.8615 14.7644 11.1671 14.4589C11.4726 14.1533 11.8615 14.0005 12.3337 14.0005C12.8059 14.0005 13.1948 14.1533 13.5004 14.4589L20.0004 20.9589L26.5421 14.4172C26.8476 14.1116 27.2298 13.9655 27.6887 13.9789C28.1465 13.9933 28.5282 14.1533 28.8337 14.4589C29.1393 14.7644 29.2921 15.1533 29.2921 15.6255C29.2921 16.0978 29.1393 16.4866 28.8337 16.7922L21.1671 24.4589C21.0004 24.6255 20.8198 24.7433 20.6254 24.8122C20.4309 24.8822 20.2226 24.9172 20.0004 24.9172Z"
                fill="#D9F1FF" />
        </g>
    </g>
</svg>