<svg width="40" height="40" viewBox="0 0 40 40" fill="none" xmlns="http://www.w3.org/2000/svg">
    <mask id="mask0_330_14172" style="mask-type:alpha" maskUnits="userSpaceOnUse" x="0" y="0" width="40" height="40">
        <rect width="40" height="40" fill="#D9D9D9" />
    </mask>
    <g mask="url(#mask0_330_14172)">
        <path
            d="M11.1663 24.4583C10.8608 24.1528 10.708 23.7639 10.708 23.2917C10.708 22.8194 10.8608 22.4306 11.1663 22.125L18.833 14.4583C18.9997 14.2917 19.1802 14.1733 19.3747 14.1033C19.5691 14.0344 19.7775 14 19.9997 14C20.2219 14 20.4302 14.0344 20.6247 14.1033C20.8191 14.1733 20.9997 14.2917 21.1663 14.4583L28.8747 22.1667C29.1802 22.4722 29.333 22.8472 29.333 23.2917C29.333 23.7361 29.1663 24.125 28.833 24.4583C28.5275 24.7639 28.1386 24.9167 27.6663 24.9167C27.1941 24.9167 26.8052 24.7639 26.4997 24.4583L19.9997 17.9583L13.458 24.5C13.1525 24.8056 12.7775 24.9583 12.333 24.9583C11.8886 24.9583 11.4997 24.7917 11.1663 24.4583Z"
            fill="#D9F1FF" />
    </g>
</svg>