<svg width="20" height="20" viewBox="0 0 20 20" fill="none" xmlns="http://www.w3.org/2000/svg">
<mask id="mask0_690_6859" style="mask-type:alpha" maskUnits="userSpaceOnUse" x="0" y="0" width="24" height="24">
<rect width="24" height="24" fill="#D9D9D9"/>
</mask>
<g mask="url(#mask0_690_6859)">
<path d="M5.00016 18.3337C4.54183 18.3337 4.14961 18.1706 3.8235 17.8445C3.49683 17.5178 3.3335 17.1253 3.3335 16.667V3.33366C3.3335 2.87533 3.49683 2.48283 3.8235 2.15616C4.14961 1.83005 4.54183 1.66699 5.00016 1.66699H10.9793C11.2016 1.66699 11.4135 1.70866 11.6152 1.79199C11.8163 1.87533 11.9932 1.99338 12.146 2.14616L16.1877 6.18783C16.3404 6.3406 16.4585 6.51755 16.5418 6.71866C16.6252 6.92033 16.6668 7.13227 16.6668 7.35449V16.667C16.6668 17.1253 16.5038 17.5178 16.1777 17.8445C15.851 18.1706 15.4585 18.3337 15.0002 18.3337H5.00016ZM10.8335 6.66699V3.33366H5.00016V16.667H15.0002V7.50033H11.6668C11.4307 7.50033 11.2329 7.42033 11.0735 7.26033C10.9135 7.10088 10.8335 6.9031 10.8335 6.66699Z" fill="#0E0E0E"/>
</g>
</svg>
