<svg width="20" height="20" viewBox="0 0 20 20" fill="none" xmlns="http://www.w3.org/2000/svg">
    <g clip-path="url(#clip0_690_23033)">
        <mask id="mask0_690_23033" style="mask-type:alpha" maskUnits="userSpaceOnUse" x="0" y="0" width="24"
            height="24">
            <rect width="24" height="24" fill="#D9D9D9" />
        </mask>
        <g mask="url(#mask0_690_23033)">
            <path
                d="M1.66659 16.6663C1.43047 16.6663 1.2327 16.5863 1.07325 16.4263C0.913252 16.2669 0.833252 16.0691 0.833252 15.833V14.333C0.833252 13.8608 0.954919 13.4266 1.19825 13.0305C1.44103 12.635 1.76381 12.333 2.16659 12.1247C3.0277 11.6941 3.9027 11.3711 4.79158 11.1555C5.68047 10.9405 6.58325 10.833 7.49992 10.833C8.41658 10.833 9.31936 10.9405 10.2083 11.1555C11.0971 11.3711 11.9721 11.6941 12.8333 12.1247C13.236 12.333 13.5588 12.635 13.8016 13.0305C14.0449 13.4266 14.1666 13.8608 14.1666 14.333V15.833C14.1666 16.0691 14.0866 16.2669 13.9266 16.4263C13.7671 16.5863 13.5694 16.6663 13.3333 16.6663H1.66659ZM15.4374 16.6663C15.5624 16.5691 15.6596 16.4475 15.7291 16.3013C15.7985 16.1558 15.8333 15.9927 15.8333 15.8122V14.1663C15.8333 13.5552 15.6633 12.9683 15.3233 12.4055C14.9827 11.8433 14.4999 11.3608 13.8749 10.958C14.5833 11.0413 15.2499 11.1836 15.8749 11.3847C16.4999 11.5863 17.0833 11.833 17.6249 12.1247C18.1249 12.4025 18.5069 12.7113 18.7708 13.0513C19.0346 13.3919 19.1666 13.7636 19.1666 14.1663V15.833C19.1666 16.0691 19.0866 16.2669 18.9266 16.4263C18.7671 16.5863 18.5694 16.6663 18.3333 16.6663H15.4374ZM7.49992 9.99967C6.58325 9.99967 5.79853 9.67329 5.14575 9.02051C4.49297 8.36773 4.16658 7.58301 4.16658 6.66634C4.16658 5.74967 4.49297 4.96495 5.14575 4.31217C5.79853 3.6594 6.58325 3.33301 7.49992 3.33301C8.41658 3.33301 9.20131 3.6594 9.85408 4.31217C10.5069 4.96495 10.8333 5.74967 10.8333 6.66634C10.8333 7.58301 10.5069 8.36773 9.85408 9.02051C9.20131 9.67329 8.41658 9.99967 7.49992 9.99967ZM15.8333 6.66634C15.8333 7.58301 15.5069 8.36773 14.8541 9.02051C14.2013 9.67329 13.4166 9.99967 12.4999 9.99967C12.3471 9.99967 12.1527 9.98245 11.9166 9.94801C11.6805 9.91301 11.486 9.87467 11.3333 9.83301C11.7083 9.38856 11.9963 8.89551 12.1974 8.35384C12.3991 7.81217 12.4999 7.24967 12.4999 6.66634C12.4999 6.08301 12.3991 5.52051 12.1974 4.97884C11.9963 4.43717 11.7083 3.94412 11.3333 3.49967C11.5277 3.43023 11.7221 3.38495 11.9166 3.36384C12.111 3.34329 12.3055 3.33301 12.4999 3.33301C13.4166 3.33301 14.2013 3.6594 14.8541 4.31217C15.5069 4.96495 15.8333 5.74967 15.8333 6.66634ZM2.49992 14.9997H12.4999V14.333C12.4999 14.1802 12.4619 14.0413 12.3858 13.9163C12.3091 13.7913 12.2083 13.6941 12.0833 13.6247C11.3333 13.2497 10.5763 12.9683 9.81242 12.7805C9.04853 12.5933 8.2777 12.4997 7.49992 12.4997C6.72214 12.4997 5.95131 12.5933 5.18742 12.7805C4.42353 12.9683 3.66658 13.2497 2.91658 13.6247C2.79159 13.6941 2.69103 13.7913 2.61492 13.9163C2.53825 14.0413 2.49992 14.1802 2.49992 14.333V14.9997ZM7.49992 8.33301C7.95825 8.33301 8.35075 8.16967 8.67742 7.84301C9.00353 7.5169 9.16658 7.12467 9.16658 6.66634C9.16658 6.20801 9.00353 5.81579 8.67742 5.48967C8.35075 5.16301 7.95825 4.99967 7.49992 4.99967C7.04158 4.99967 6.64936 5.16301 6.32325 5.48967C5.99658 5.81579 5.83325 6.20801 5.83325 6.66634C5.83325 7.12467 5.99658 7.5169 6.32325 7.84301C6.64936 8.16967 7.04158 8.33301 7.49992 8.33301Z"
                fill="#0E0E0E" />
        </g>
    </g>
    <defs>
        <clipPath id="clip0_690_23033">
            <rect width="20" height="20" fill="white" />
        </clipPath>
    </defs>
</svg>