<svg width="20" height="20" viewBox="0 0 20 20" fill="none" xmlns="http://www.w3.org/2000/svg">
<mask id="mask0_690_7434" style="mask-type:alpha" maskUnits="userSpaceOnUse" x="0" y="0" width="20" height="20">
<rect width="20" height="20" fill="#D9D9D9"/>
</mask>
<g mask="url(#mask0_690_7434)">
<path d="M10.0001 14.167C10.2362 14.167 10.4342 14.087 10.5942 13.927C10.7537 13.7675 10.8334 13.5698 10.8334 13.3337V9.97949C10.8334 9.74338 10.7537 9.54894 10.5942 9.39616C10.4342 9.24338 10.2362 9.16699 10.0001 9.16699C9.76397 9.16699 9.56619 9.24671 9.40675 9.40616C9.24675 9.56616 9.16675 9.76421 9.16675 10.0003V13.3545C9.16675 13.5906 9.24675 13.785 9.40675 13.9378C9.56619 14.0906 9.76397 14.167 10.0001 14.167ZM10.0001 7.50033C10.2362 7.50033 10.4342 7.42033 10.5942 7.26033C10.7537 7.10088 10.8334 6.9031 10.8334 6.66699C10.8334 6.43088 10.7537 6.23283 10.5942 6.07283C10.4342 5.91338 10.2362 5.83366 10.0001 5.83366C9.76397 5.83366 9.56619 5.91338 9.40675 6.07283C9.24675 6.23283 9.16675 6.43088 9.16675 6.66699C9.16675 6.9031 9.24675 7.10088 9.40675 7.26033C9.56619 7.42033 9.76397 7.50033 10.0001 7.50033ZM10.0001 18.3337C8.8473 18.3337 7.76397 18.1148 6.75008 17.677C5.73619 17.2398 4.85425 16.6462 4.10425 15.8962C3.35425 15.1462 2.76064 14.2642 2.32341 13.2503C1.88564 12.2364 1.66675 11.1531 1.66675 10.0003C1.66675 8.84755 1.88564 7.76421 2.32341 6.75033C2.76064 5.73644 3.35425 4.85449 4.10425 4.10449C4.85425 3.35449 5.73619 2.7606 6.75008 2.32283C7.76397 1.8856 8.8473 1.66699 10.0001 1.66699C11.1529 1.66699 12.2362 1.8856 13.2501 2.32283C14.264 2.7606 15.1459 3.35449 15.8959 4.10449C16.6459 4.85449 17.2395 5.73644 17.6767 6.75033C18.1145 7.76421 18.3334 8.84755 18.3334 10.0003C18.3334 11.1531 18.1145 12.2364 17.6767 13.2503C17.2395 14.2642 16.6459 15.1462 15.8959 15.8962C15.1459 16.6462 14.264 17.2398 13.2501 17.677C12.2362 18.1148 11.1529 18.3337 10.0001 18.3337ZM10.0001 16.667C11.8473 16.667 13.4204 16.0178 14.7192 14.7195C16.0176 13.4206 16.6667 11.8475 16.6667 10.0003C16.6667 8.1531 16.0176 6.58005 14.7192 5.28116C13.4204 3.98283 11.8473 3.33366 10.0001 3.33366C8.15286 3.33366 6.58008 3.98283 5.28175 5.28116C3.98286 6.58005 3.33341 8.1531 3.33341 10.0003C3.33341 11.8475 3.98286 13.4206 5.28175 14.7195C6.58008 16.0178 8.15286 16.667 10.0001 16.667Z" fill="#154A89"/>
</g>
</svg>
