<svg width="20" height="21" viewBox="0 0 20 21" fill="none" xmlns="http://www.w3.org/2000/svg">
<path d="M1.1117 17.5947L1.1116 17.5946L1.08908 17.5766L1.08077 17.5699L1.08117 17.5695L1.06075 17.5493L1.06073 17.5493C0.760398 17.2515 0.658565 16.8546 0.789487 16.4656L0.790434 16.4628L0.790475 16.4628L0.801246 16.4337L0.802256 16.431L0.802296 16.431C0.960535 16.0388 1.34744 15.7749 1.76837 15.7723C2.43849 15.7607 3.03395 15.6908 3.57768 15.5581C2.68697 15.0756 2.05931 14.3016 1.6752 13.2288C1.52132 12.8284 1.6562 12.3862 2.00783 12.1248L1.1117 17.5947ZM1.1117 17.5947C1.70738 18.0701 2.61829 18.4377 3.75675 18.6871C4.8971 18.9369 6.27408 19.0697 7.80933 19.0697C13.2505 19.0697 17.6807 14.3707 17.8171 8.55362M1.1117 17.5947L1.15156 17.4985M18.9222 5.16088C19.0646 4.79518 18.9901 4.41273 18.7171 4.14226C18.4394 3.86698 18.0058 3.79183 17.6522 3.95541C16.9936 4.23512 16.3627 4.49807 15.8358 4.67184C15.5231 4.50708 15.1163 4.31194 14.684 4.15557C14.2354 3.9933 13.7527 3.8703 13.3162 3.8703L13.3087 3.87029L13.3073 3.87031C12.1298 3.88677 11.0262 4.36893 10.2004 5.22709L10.2004 5.22709C9.53245 5.92139 9.10889 6.79679 8.97508 7.74072C6.52388 7.19331 5.09427 6.3946 3.49555 4.73361L3.49557 4.73359L3.49394 4.73197L3.28679 4.52641L3.28674 4.52636C3.12027 4.36139 2.88256 4.28557 2.65068 4.32275L2.65061 4.32276C2.41866 4.36011 2.21723 4.50656 2.11161 4.71575L2.1116 4.71577L1.99827 4.94039C1.4974 5.89195 1.33838 6.87248 1.53025 7.85187C1.59071 8.16101 1.6874 8.46799 1.81758 8.76818C1.70637 8.7876 1.59746 8.82637 1.49499 8.88451C1.13565 9.07765 0.947524 9.51791 1.03255 9.93952L1.03257 9.93965L1.03747 9.96377L1.03704 9.96385L1.03976 9.97285L1.04683 9.99621C1.04684 9.99624 1.04685 9.99627 1.04686 9.9963C1.26631 10.7266 1.64819 11.418 2.16139 12.0318L18.8286 5.12565M18.9222 5.16088C18.922 5.16127 18.9219 5.16166 18.9217 5.16205L18.8286 5.12565M18.9222 5.16088C18.9223 5.1605 18.9225 5.16011 18.9226 5.15973L18.8286 5.12565M18.9222 5.16088C18.8831 5.26863 18.8399 5.37482 18.7928 5.47925M18.8286 5.12565C18.7909 5.22973 18.7492 5.33233 18.7039 5.43328C18.7343 5.44712 18.764 5.46245 18.7928 5.47925M18.7928 5.47925C18.7796 5.50866 18.766 5.53793 18.7521 5.56705L18.692 5.53841C18.6821 5.53344 18.672 5.52864 18.6619 5.52403L19.1398 6.54783L19.1315 6.5768C18.8728 7.40322 18.3757 8.07633 17.7183 8.49882M18.7928 5.47925C18.861 5.51896 18.9244 5.5669 18.9808 5.6228C19.223 5.86282 19.3219 6.23467 19.2368 6.57227L19.236 6.57524L19.236 6.57523L19.2277 6.6042L19.227 6.60669L19.227 6.60668C18.9678 7.43441 18.4739 8.11577 17.8171 8.55362M17.8171 8.55362C17.8176 8.536 17.8179 8.51836 17.8183 8.50072L17.7183 8.49882M17.8171 8.55362C17.8023 8.56352 17.7874 8.5733 17.7723 8.58295L17.7183 8.49882M17.7183 8.49882C17.6085 14.293 13.2056 18.9697 7.80933 18.9697C4.74949 18.9697 2.3311 18.4399 1.17408 17.5165L1.15156 17.4985M1.15156 17.4985L1.13114 17.4782L1.15156 17.4985ZM16.9367 7.60384L16.9368 7.60382C17.2944 7.4161 17.5942 7.10906 17.8072 6.71387C17.6042 6.69582 17.4132 6.59394 17.285 6.42326C17.0923 6.16668 17.0901 5.81931 17.2797 5.56045C17.3056 5.52496 17.3309 5.48905 17.3554 5.45272C16.875 5.64849 16.4179 5.82209 16.0111 5.94442L16.0111 5.94445C15.8107 6.00453 15.5882 5.98115 15.4049 5.87975C14.9809 5.64562 14.5726 5.45932 14.2124 5.33161C13.8509 5.20346 13.5441 5.13665 13.3203 5.13583C11.6045 5.16236 10.2043 6.62025 10.2043 8.39292C10.2043 8.61189 10.1061 8.81712 9.93606 8.95584L9.93598 8.95591C9.76581 9.09442 9.54429 9.14991 9.32828 9.10761M16.9367 7.60384L15.4533 5.79224C14.5975 5.31971 13.8003 5.03721 13.3197 5.03583C11.5463 5.06272 10.1043 6.56793 10.1043 8.39292C10.1043 8.58158 10.0199 8.75845 9.87286 8.87835C9.72571 8.99811 9.53437 9.04607 9.3475 9.00948C6.46684 8.44705 4.74316 7.60769 2.96973 5.86609C2.95596 5.89983 2.94277 5.93357 2.93017 5.96731M16.9367 7.60384C16.6959 7.7304 16.5453 7.977 16.5453 8.24779V8.27676C16.5453 10.8273 15.6263 13.2253 13.9593 15.0304C12.3061 16.8206 10.122 17.8042 7.80933 17.8042C5.60445 17.8042 3.70841 17.5 2.57831 16.9974M16.9367 7.60384L2.57831 16.9974M9.32828 9.10761L9.34748 9.00956L9.32834 9.10762C9.32832 9.10762 9.3283 9.10762 9.32828 9.10761ZM9.32828 9.10761C6.4485 8.54535 4.70936 7.70476 2.93017 5.96731M2.93017 5.96731C2.72483 6.51721 2.67556 7.06749 2.78185 7.61048C2.89888 8.20765 3.21124 8.81057 3.68954 9.35249C3.9043 9.59554 3.93295 9.94436 3.7605 10.2189M2.93017 5.96731C2.90423 5.94198 2.87828 5.91645 2.85231 5.89073C2.62776 6.47046 2.57093 7.05355 2.68372 7.62971L2.52794 10.284C2.55113 10.3304 2.57523 10.3767 2.60023 10.4226M2.57831 16.9974C3.69027 16.9005 4.63879 16.6335 5.51508 16.1731L5.51511 16.1731C5.79225 16.0274 5.94624 15.7228 5.89671 15.4148L2.57831 16.9974ZM4.21993 12.3257C3.4557 11.8067 2.83834 11.1141 2.45458 10.3606C2.50242 10.3825 2.55094 10.4032 2.60023 10.4226M4.21993 12.3257L3.81444 13.4704L3.80709 13.5701C4.13758 13.5944 4.44395 13.3953 4.5538 13.0848C4.66362 12.7744 4.54915 12.4284 4.27612 12.243L4.27611 12.243C3.56138 11.7576 2.97861 11.1185 2.60023 10.4226M4.21993 12.3257C4.45561 12.4858 4.55408 12.7842 4.45953 13.0515L4.21993 12.3257ZM2.60023 10.4226C2.71214 10.4668 2.82805 10.5046 2.94911 10.5368L2.94913 10.5368C3.26205 10.6199 3.58876 10.4923 3.7605 10.2189M3.7605 10.2189C3.76051 10.2189 3.76051 10.2188 3.76051 10.2188L3.67583 10.1657L3.7605 10.2189Z" fill="#154A89" stroke="#154A89" stroke-width="0.2"/>
</svg>
