<svg width="20" height="21" viewBox="0 0 20 21" fill="none" xmlns="http://www.w3.org/2000/svg">
    <path
        d="M12.9944 9.45894L12.9943 9.45893L8.72839 7.26188L8.72839 7.26188C8.43853 7.1126 8.09539 7.1181 7.811 7.27671L7.81098 7.27672C7.52565 7.43593 7.35 7.72163 7.35 8.04226V12.3986C7.35 12.7178 7.52452 13.003 7.80804 13.1624L7.88156 13.0317L7.80804 13.1624C7.95552 13.2453 8.11922 13.287 8.2833 13.287C8.43355 13.287 8.58407 13.2521 8.72244 13.182C8.72246 13.182 8.72248 13.182 8.7225 13.182L12.9885 11.0228L12.9886 11.0228C13.289 10.8706 13.4819 10.5732 13.4833 10.2427L13.4833 10.2427C13.4846 9.91207 13.2939 9.61323 12.9944 9.45894ZM8.78157 11.6066V8.84069L11.49 10.2357L8.78157 11.6066Z"
        fill="#154A89" stroke="#154A89" stroke-width="0.3" />
    <path
        d="M16.1675 16.0703L16.1525 15.921C16.1123 15.9251 16.0741 15.9291 16.039 15.9332C13.7069 16.0949 10.2065 16.1202 10.0251 16.1213C9.81939 16.1184 5.53216 16.055 4.18059 15.9353C4.10856 15.9241 4.03186 15.9157 3.95503 15.9073C3.54965 15.8627 3.05418 15.8042 2.6736 15.4022L2.67361 15.4022L2.67219 15.4008L2.66226 15.3906L2.66226 15.3906L2.66083 15.3891C2.54185 15.2701 2.43288 15.0441 2.34712 14.7801C2.26344 14.5225 2.20916 14.2522 2.18727 14.0649C2.17752 13.958 2.05784 12.613 2.05784 11.3056V9.98837C2.05784 8.70332 2.17372 7.37845 2.18672 7.23499C2.21294 7.04394 2.27154 6.77132 2.35754 6.51154C2.44583 6.24484 2.55559 6.01496 2.673 5.89239L2.673 5.89239L2.6736 5.89176C3.1054 5.43572 3.55455 5.38498 3.87599 5.34932L3.87607 5.34931L3.88407 5.34842C3.91071 5.34546 3.93683 5.34255 3.96137 5.33953C6.31099 5.17817 9.8036 5.15276 9.9964 5.15136L9.99911 5.15133C9.99943 5.15133 9.99977 5.15133 10.0001 5.15133C10.1447 5.15226 13.6707 5.17698 16.0166 5.33954C16.0447 5.3429 16.0749 5.34625 16.1065 5.34974L16.1088 5.35L16.109 5.35002C16.4419 5.38646 16.9048 5.43871 17.3337 5.87797L17.3338 5.87807L17.3381 5.88251L17.3393 5.88366C17.4579 6.00228 17.5669 6.23091 17.6528 6.49945C17.7366 6.76133 17.7909 7.03699 17.8128 7.22845C17.8221 7.32906 17.9423 8.67761 17.9423 9.98837V11.3056C17.9423 12.5922 17.8261 13.9185 17.8134 14.0595C17.7915 14.221 17.7359 14.4905 17.6501 14.7563C17.5619 15.0299 17.4499 15.2735 17.3271 15.4016L17.3265 15.4023C16.9092 15.8431 16.4879 15.8869 16.1524 15.921L16.1675 16.0703ZM16.1675 16.0703C16.1261 16.0744 16.0878 16.0785 16.0531 16.0826L17.4354 15.5054C16.9789 15.9877 16.5099 16.0355 16.1675 16.0703ZM19.1812 7.10285L19.181 7.10111L19.1801 7.09305L19.18 7.09225C19.1718 7.01677 19.128 6.65681 19.0043 6.23234C18.8818 5.81196 18.6751 5.3076 18.3296 4.96019C17.5543 4.1679 16.6732 4.07168 16.2647 4.02706L16.2632 4.02691L16.2632 4.0269C16.2297 4.02325 16.2006 4.02004 16.175 4.01676L16.175 4.0167L16.1709 4.0163L16.1389 4.01307L16.1389 4.013L16.1343 4.01269C13.7349 3.84516 10.1301 3.82058 10.0068 3.81988L10.0063 3.81986L10.0063 3.81933L9.9938 3.81986L9.99331 3.81988C9.87 3.82058 6.26495 3.84516 3.84407 4.01268L3.84406 4.01261L3.83953 4.01306L3.80722 4.01629L3.80721 4.01622L3.80291 4.01678C3.78298 4.01935 3.76144 4.02175 3.73664 4.02451C3.73111 4.02512 3.72541 4.02576 3.71954 4.02641L3.71863 4.02651C3.31349 4.07141 2.44068 4.16814 1.66327 4.98907C1.33473 5.33209 1.13061 5.82639 1.00641 6.23811C0.881021 6.65382 0.831272 7.00564 0.821684 7.07928L0.821671 7.07928L0.821438 7.08128L0.81934 7.09927L0.819298 7.09927L0.818969 7.10282C0.813425 7.16275 0.683496 8.57202 0.683496 9.98837V11.3056C0.683496 12.722 0.813426 14.1313 0.818966 14.1913L0.818942 14.1913L0.819238 14.194L0.820217 14.2028L0.820232 14.203C0.828522 14.2774 0.872267 14.6311 0.995618 15.0495C1.11777 15.4639 1.32357 15.9617 1.66679 16.3088C2.39797 17.0763 3.32066 17.1777 3.79437 17.2298L3.79999 17.2304L3.80064 17.2305C3.87707 17.2389 3.93565 17.2453 3.97395 17.2518L3.97394 17.2519L3.97912 17.2526L4.0215 17.2582L4.02148 17.2583L4.02764 17.2589C5.43444 17.3874 9.82988 17.4504 10.0123 17.4529L10.0163 17.453L10.0163 17.4532L10.0235 17.453L10.0277 17.4529C10.123 17.4524 13.7473 17.4283 16.1564 17.2601L16.1564 17.2602L16.161 17.2597L16.193 17.2565L16.193 17.2565L16.1969 17.256C16.2252 17.2524 16.2576 17.2491 16.2957 17.2454L16.296 17.2453L16.2977 17.2451C16.7006 17.2041 17.5694 17.1155 18.3369 16.3049C18.6654 15.9618 18.8695 15.4675 18.9937 15.0558C19.1192 14.6401 19.1689 14.2883 19.1785 14.2146L19.1787 14.2127L19.1808 14.1947L19.1808 14.1947L19.1811 14.1912C19.1867 14.1312 19.3168 12.722 19.3168 11.3056V9.98837C19.3166 8.57201 19.1867 7.16287 19.1812 7.10285Z"
        fill="#154A89" stroke="#154A89" stroke-width="0.3" />
</svg>