<svg width="24" height="24" viewBox="0 0 24 24" fill="none" xmlns="http://www.w3.org/2000/svg">
    <path
        d="M4.49548 11.4883C4.6977 11.1664 4.66411 10.7575 4.41221 10.4725C3.83634 9.82001 3.45963 9.09339 3.3184 8.37277C3.18824 7.70784 3.25142 7.03405 3.50811 6.3614C5.64751 8.45765 7.73317 9.46944 11.1976 10.1458C11.451 10.1954 11.7108 10.1304 11.9104 9.9679L11.9104 9.96784C12.1099 9.80514 12.225 9.56454 12.225 9.30783C12.225 7.17017 13.9136 5.41123 15.9841 5.37932C16.2559 5.38028 16.6266 5.46129 17.0614 5.61541C17.4949 5.7691 17.9858 5.99317 18.4955 6.27457C18.7107 6.39359 18.9721 6.42106 19.2073 6.35051L19.2074 6.35048C19.7116 6.19886 20.2805 5.98139 20.8787 5.73654C20.8381 5.79892 20.7957 5.86032 20.7515 5.92069C20.5293 6.2242 20.5318 6.63137 20.7578 6.93223C20.9146 7.14088 21.1513 7.26187 21.4006 7.27521C21.1425 7.76565 20.7746 8.14698 20.3332 8.37862L20.3332 8.37864C20.0507 8.5271 19.8742 8.81626 19.8742 9.13368V9.16844C19.8742 12.2339 18.7697 15.1164 16.7657 17.2864C14.7783 19.4384 12.1521 20.6214 9.371 20.6214C6.67863 20.6214 4.36682 20.2437 3.01554 19.6197C4.38073 19.5093 5.53969 19.1879 6.6086 18.6264L6.60863 18.6264C6.93371 18.4554 7.11419 18.0983 7.0561 17.7372C6.99819 17.3763 6.71513 17.0925 6.35285 17.03L6.35282 17.0299C5.12644 16.8185 4.3103 16.2938 3.77478 15.3608C3.72773 15.3469 3.68129 15.3319 3.6354 15.316C4.18607 16.3372 5.04336 16.9057 6.33583 17.1285L4.4108 11.4351M4.49548 11.4883L4.4108 11.4351M4.49548 11.4883C4.49548 11.4883 4.49548 11.4883 4.49548 11.4883L4.4108 11.4351M4.49548 11.4883C4.29408 11.809 3.911 11.9586 3.54389 11.8611L3.54387 11.8611C3.38079 11.8178 3.2256 11.7659 3.07631 11.7043M4.4108 11.4351C4.23288 11.7184 3.89467 11.8508 3.56955 11.7645C3.36995 11.7114 3.18299 11.6453 3.00459 11.5642C3.02773 11.6111 3.05164 11.6578 3.07631 11.7043M3.07631 11.7043C3.02718 11.684 2.97868 11.6627 2.93075 11.6403M3.07631 11.7043C3.53108 12.5612 4.24312 13.349 5.1199 13.9444L5.11991 13.9444C5.44008 14.1619 5.57424 14.5676 5.44552 14.9314C5.31672 15.2955 4.95745 15.529 4.56979 15.5005L4.57714 15.4008L2.93075 11.6403M2.93075 11.6403C3.39013 12.5557 4.13692 13.3978 5.06372 14.0271L2.93075 11.6403ZM1.34622 20.3342L1.34632 20.3343C2.0577 20.9021 3.14738 21.3424 4.51218 21.6413C5.87888 21.9406 7.52977 22.1 9.371 22.1C15.8914 22.1 21.2022 16.4657 21.3606 9.48979C22.1489 8.96738 22.7422 8.15136 23.0531 7.15837L23.0531 7.15838L23.0538 7.15588L23.0637 7.12112L23.0638 7.12113L23.0645 7.11816C23.165 6.71963 23.0481 6.28074 22.7627 5.99789C22.692 5.9278 22.6119 5.86829 22.5255 5.81976C22.5847 5.6895 22.6389 5.55694 22.6877 5.42234C22.856 4.9905 22.7679 4.53998 22.4463 4.22125C22.1188 3.89672 21.6073 3.80813 21.1906 4.00111C20.3969 4.33818 19.6359 4.65535 19.0009 4.86419C18.6252 4.66591 18.1349 4.4303 17.6138 4.24182C17.0764 4.04743 16.4997 3.90069 15.9793 3.90069L15.9702 3.90068L15.9688 3.9007C14.5612 3.92037 13.242 4.49671 12.2547 5.5227L12.2547 5.5227C11.451 6.35806 10.9433 7.41267 10.7867 8.54942C7.82878 7.89161 6.10604 6.93153 4.18005 4.93053L4.18007 4.93051L4.17844 4.92889L3.92986 4.68222L3.92981 4.68217C3.73461 4.48872 3.45579 4.39977 3.18379 4.44338L3.18372 4.44339C2.91165 4.4872 2.67543 4.65899 2.55159 4.90424L2.55158 4.90426L2.41551 5.17395C1.81634 6.3122 1.62643 7.48427 1.85573 8.65473C1.92957 9.03229 2.04865 9.40727 2.20952 9.77374C2.06954 9.79501 1.93222 9.84216 1.80346 9.91525C1.38071 10.1424 1.15797 10.6615 1.25847 11.1598L1.25849 11.1599L1.26437 11.1889L1.26394 11.189L1.26666 11.198L1.27516 11.226C1.27517 11.2261 1.27518 11.2261 1.27519 11.2261C1.54005 12.1076 2.00284 12.942 2.62548 13.6815C2.55361 13.7144 2.48499 13.7545 2.42124 13.802C2.00604 14.1107 1.84735 14.6321 2.0288 15.1039C2.49482 16.4056 3.25994 17.3384 4.34835 17.913C3.6805 18.0807 2.94826 18.1688 2.12208 18.183C1.62509 18.1862 1.16799 18.4978 0.981107 18.961L0.981067 18.961L0.980057 18.9638L0.967133 18.9987L0.967091 18.9987L0.966144 19.0015C0.811612 19.4605 0.93146 19.9289 1.28676 20.2812L1.28678 20.2812L1.31128 20.3055L1.31089 20.3059L1.3192 20.3126L1.34622 20.3342ZM3.47136 6.18453C3.45728 6.21797 3.44366 6.25143 3.4305 6.2849L3.54808 6.26048C3.52252 6.23532 3.49695 6.21 3.47136 6.18453Z"
        fill="#ffffff" stroke="#ffffff" stroke-width="0.2" />
</svg>