<svg width="20" height="21" viewBox="0 0 20 21" fill="none" xmlns="http://www.w3.org/2000/svg">
    <path
        d="M18.3331 10.637C18.3314 11.3802 18.323 12.1234 18.3128 12.8666C18.3005 13.7632 18.2867 14.6602 18.0618 15.5414C17.826 16.4656 17.361 17.2626 16.6374 17.8526C15.875 18.4744 14.9534 18.8012 13.9587 18.8617C12.6394 18.9419 11.3196 18.9736 9.99982 18.9705C8.67999 18.9736 7.36017 18.9419 6.04094 18.8617C5.04627 18.8012 4.12469 18.4744 3.36223 17.8526C2.63868 17.2626 2.17362 16.4656 1.93781 15.5414C1.71294 14.6602 1.6991 13.7632 1.68684 12.8666C1.67667 12.1234 1.66823 11.3802 1.6665 10.637C1.66823 9.89386 1.67667 9.15064 1.68684 8.4075C1.6991 7.51089 1.71294 6.61389 1.93781 5.73264C2.17362 4.80852 2.63868 4.01152 3.36223 3.42149C4.12469 2.79971 5.04627 2.4729 6.04094 2.41241C7.36017 2.33218 8.67999 2.30047 9.99982 2.30358C11.3196 2.30047 12.6394 2.33218 13.9587 2.41241C14.9534 2.4729 15.875 2.79971 16.6374 3.42149C17.361 4.01152 17.826 4.80852 18.0618 5.73264C18.2867 6.61389 18.3005 7.51089 18.3128 8.4075C18.323 9.15064 18.3314 9.89386 18.3331 10.637Z"
        stroke="#154A89" stroke-width="2" stroke-miterlimit="10" />
    <path
        d="M13.6724 10.6369C13.6724 12.6847 12.0124 14.3447 9.96461 14.3447C7.91686 14.3447 6.25684 12.6847 6.25684 10.6369C6.25684 8.5892 7.91686 6.92917 9.96461 6.92917C12.0124 6.92917 13.6724 8.5892 13.6724 10.6369Z"
        stroke="#154A89" stroke-width="2" stroke-miterlimit="10" />
    <path
        d="M15.9322 5.87032C15.9322 6.45537 15.4579 6.92969 14.8728 6.92969C14.2878 6.92969 13.8135 6.45537 13.8135 5.87032C13.8135 5.28527 14.2878 4.81096 14.8728 4.81096C15.4579 4.81096 15.9322 5.28527 15.9322 5.87032Z"
        fill="#154A89" />
</svg>