<svg width="20" height="20" viewBox="0 0 20 20" fill="none" xmlns="http://www.w3.org/2000/svg">
    <mask id="mask0_690_23028" style="mask-type:alpha" maskUnits="userSpaceOnUse" x="0" y="0" width="20" height="20">
        <rect width="20" height="20" fill="#D9D9D9" />
    </mask>
    <g mask="url(#mask0_690_23028)">
        <path
            d="M9.99992 9.99967C9.08325 9.99967 8.29853 9.67329 7.64575 9.02051C6.99297 8.36773 6.66659 7.58301 6.66659 6.66634C6.66659 5.74967 6.99297 4.96495 7.64575 4.31217C8.29853 3.6594 9.08325 3.33301 9.99992 3.33301C10.9166 3.33301 11.7013 3.6594 12.3541 4.31217C13.0069 4.96495 13.3333 5.74967 13.3333 6.66634C13.3333 7.58301 13.0069 8.36773 12.3541 9.02051C11.7013 9.67329 10.9166 9.99967 9.99992 9.99967ZM14.9999 16.6663H4.99992C4.54159 16.6663 4.14936 16.5033 3.82325 16.1772C3.49659 15.8505 3.33325 15.458 3.33325 14.9997V14.333C3.33325 13.8608 3.45492 13.4266 3.69825 13.0305C3.94103 12.635 4.26381 12.333 4.66659 12.1247C5.5277 11.6941 6.4027 11.3711 7.29159 11.1555C8.18047 10.9405 9.08325 10.833 9.99992 10.833C10.9166 10.833 11.8194 10.9405 12.7083 11.1555C13.5971 11.3711 14.4721 11.6941 15.3333 12.1247C15.736 12.333 16.0588 12.635 16.3016 13.0305C16.5449 13.4266 16.6666 13.8608 16.6666 14.333V14.9997C16.6666 15.458 16.5035 15.8505 16.1774 16.1772C15.8508 16.5033 15.4583 16.6663 14.9999 16.6663ZM4.99992 14.9997H14.9999V14.333C14.9999 14.1802 14.9619 14.0413 14.8858 13.9163C14.8091 13.7913 14.7083 13.6941 14.5833 13.6247C13.8333 13.2497 13.0763 12.9683 12.3124 12.7805C11.5485 12.5933 10.7777 12.4997 9.99992 12.4997C9.22214 12.4997 8.45131 12.5933 7.68742 12.7805C6.92353 12.9683 6.16659 13.2497 5.41659 13.6247C5.29159 13.6941 5.19103 13.7913 5.11492 13.9163C5.03825 14.0413 4.99992 14.1802 4.99992 14.333V14.9997ZM9.99992 8.33301C10.4583 8.33301 10.8508 8.16967 11.1774 7.84301C11.5035 7.5169 11.6666 7.12467 11.6666 6.66634C11.6666 6.20801 11.5035 5.81579 11.1774 5.48967C10.8508 5.16301 10.4583 4.99967 9.99992 4.99967C9.54158 4.99967 9.14936 5.16301 8.82325 5.48967C8.49659 5.81579 8.33325 6.20801 8.33325 6.66634C8.33325 7.12467 8.49659 7.5169 8.82325 7.84301C9.14936 8.16967 9.54158 8.33301 9.99992 8.33301Z"
            fill="#154A89" />
    </g>
</svg>