<svg width="21" height="20" viewBox="0 0 21 20" fill="none" xmlns="http://www.w3.org/2000/svg">
<mask id="mask0_411_14307" style="mask-type:alpha" maskUnits="userSpaceOnUse" x="0" y="0" width="21" height="20">
<rect x="0.5" width="20" height="20" fill="#D9D9D9"/>
</mask>
<g mask="url(#mask0_411_14307)">
<path d="M10.4998 15.8332C10.2637 15.8332 10.0659 15.7532 9.9065 15.5932C9.7465 15.4337 9.6665 15.2359 9.6665 14.9998V10.8332H5.49984C5.26373 10.8332 5.06567 10.7532 4.90567 10.5932C4.74623 10.4337 4.6665 10.2359 4.6665 9.99984C4.6665 9.76373 4.74623 9.56567 4.90567 9.40567C5.06567 9.24623 5.26373 9.1665 5.49984 9.1665H9.6665V4.99984C9.6665 4.76373 9.7465 4.56567 9.9065 4.40567C10.0659 4.24623 10.2637 4.1665 10.4998 4.1665C10.7359 4.1665 10.934 4.24623 11.094 4.40567C11.2534 4.56567 11.3332 4.76373 11.3332 4.99984V9.1665H15.4998C15.7359 9.1665 15.9337 9.24623 16.0932 9.40567C16.2532 9.56567 16.3332 9.76373 16.3332 9.99984C16.3332 10.2359 16.2532 10.4337 16.0932 10.5932C15.9337 10.7532 15.7359 10.8332 15.4998 10.8332H11.3332V14.9998C11.3332 15.2359 11.2534 15.4337 11.094 15.5932C10.934 15.7532 10.7359 15.8332 10.4998 15.8332Z" fill="#154A89"/>
</g>
</svg>
