<svg width="24" height="24" viewBox="0 0 24 24" fill="none" xmlns="http://www.w3.org/2000/svg">
    <mask id="mask0_604_881" style="mask-type:alpha" maskUnits="userSpaceOnUse" x="0" y="0" width="24" height="24">
        <rect width="24" height="24" fill="#D9D9D9" />
    </mask>
    <g mask="url(#mask0_604_881)">
        <path
            d="M12.0498 20C9.81647 20 7.91647 19.225 6.3498 17.675C4.78314 16.125 3.9998 14.2333 3.9998 12V11.825L3.0998 12.725C2.91647 12.9083 2.68314 13 2.3998 13C2.11647 13 1.88314 12.9083 1.6998 12.725C1.51647 12.5417 1.4248 12.3083 1.4248 12.025C1.4248 11.7417 1.51647 11.5083 1.6998 11.325L4.2998 8.725C4.3998 8.625 4.50814 8.554 4.6248 8.512C4.74147 8.47067 4.86647 8.45 4.9998 8.45C5.13314 8.45 5.25814 8.47067 5.3748 8.512C5.49147 8.554 5.5998 8.625 5.6998 8.725L8.2998 11.325C8.48314 11.5083 8.5748 11.7417 8.5748 12.025C8.5748 12.3083 8.48314 12.5417 8.2998 12.725C8.11647 12.9083 7.88314 13 7.5998 13C7.31647 13 7.08314 12.9083 6.89981 12.725L5.9998 11.825V12C5.9998 13.6667 6.58747 15.0833 7.7628 16.25C8.93747 17.4167 10.3665 18 12.0498 18C12.3831 18 12.7081 17.971 13.0248 17.913C13.3415 17.8543 13.6581 17.7667 13.9748 17.65C14.1415 17.5833 14.3208 17.5667 14.5128 17.6C14.7041 17.6333 14.8665 17.7167 14.9998 17.85C15.2998 18.15 15.4208 18.4707 15.3628 18.812C15.3041 19.154 15.0831 19.3917 14.6998 19.525C14.2665 19.675 13.8291 19.7917 13.3878 19.875C12.9458 19.9583 12.4998 20 12.0498 20ZM18.9998 15.55C18.8665 15.55 18.7415 15.529 18.6248 15.487C18.5081 15.4457 18.3998 15.375 18.2998 15.275L15.6998 12.675C15.5165 12.4917 15.4248 12.2583 15.4248 11.975C15.4248 11.6917 15.5165 11.4583 15.6998 11.275C15.8831 11.0917 16.1165 11 16.3998 11C16.6831 11 16.9165 11.0917 17.0998 11.275L17.9998 12.175V12C17.9998 10.3333 17.4125 8.91667 16.2378 7.75C15.0625 6.58333 13.6331 6 11.9498 6C11.6165 6 11.2915 6.02933 10.9748 6.088C10.6581 6.146 10.3415 6.23333 10.0248 6.35C9.85814 6.41667 9.67914 6.43333 9.4878 6.4C9.2958 6.36667 9.13314 6.28333 8.9998 6.15C8.6998 5.85 8.5788 5.529 8.6368 5.187C8.69547 4.84567 8.91647 4.60833 9.2998 4.475C9.73314 4.325 10.1708 4.20833 10.6128 4.125C11.0541 4.04167 11.4998 4 11.9498 4C14.1831 4 16.0831 4.775 17.6498 6.325C19.2165 7.875 19.9998 9.76667 19.9998 12V12.175L20.8998 11.275C21.0831 11.0917 21.3165 11 21.5998 11C21.8831 11 22.1165 11.0917 22.2998 11.275C22.4831 11.4583 22.5748 11.6917 22.5748 11.975C22.5748 12.2583 22.4831 12.4917 22.2998 12.675L19.6998 15.275C19.5998 15.375 19.4915 15.4457 19.3748 15.487C19.2581 15.529 19.1331 15.55 18.9998 15.55Z"
            fill="#0E0E0E" />
    </g>
</svg>