
<svg width="20" height="20" viewBox="0 0 20 20" fill="none" xmlns="http://www.w3.org/2000/svg">
<mask id="mask0_690_6898" style="mask-type:alpha" maskUnits="userSpaceOnUse" x="0" y="0" width="20" height="20">
<rect width="20" height="20" fill="#D9D9D9"/>
</mask>
<g mask="url(#mask0_690_6898)">
<path d="M5.41683 16.6663C4.15294 16.6663 3.07322 16.2288 2.17766 15.3538C1.28155 14.4788 0.833496 13.4094 0.833496 12.1455C0.833496 11.0622 1.15988 10.0969 1.81266 9.24967C2.46544 8.40245 3.31961 7.86079 4.37516 7.62467C4.72238 6.3469 5.41683 5.31217 6.4585 4.52051C7.50016 3.72884 8.68072 3.33301 10.0002 3.33301C11.6252 3.33301 13.0035 3.89884 14.1352 5.03051C15.2674 6.16273 15.8335 7.54134 15.8335 9.16634C16.7918 9.27745 17.5871 9.69051 18.2193 10.4055C18.851 11.1211 19.1668 11.958 19.1668 12.9163C19.1668 13.958 18.8024 14.8436 18.0735 15.573C17.344 16.3019 16.4585 16.6663 15.4168 16.6663H10.8335C10.3752 16.6663 9.98294 16.5033 9.65683 16.1772C9.33016 15.8505 9.16683 15.458 9.16683 14.9997V10.6663L8.41683 11.4163C8.26405 11.5691 8.06961 11.6455 7.8335 11.6455C7.59738 11.6455 7.40294 11.5691 7.25016 11.4163C7.09738 11.2636 7.021 11.0691 7.021 10.833C7.021 10.5969 7.09738 10.4025 7.25016 10.2497L9.41683 8.08301C9.50016 7.99967 9.59044 7.94051 9.68766 7.90551C9.78488 7.87106 9.88905 7.85384 10.0002 7.85384C10.1113 7.85384 10.2154 7.87106 10.3127 7.90551C10.4099 7.94051 10.5002 7.99967 10.5835 8.08301L12.7502 10.2497C12.9029 10.4025 12.9793 10.5969 12.9793 10.833C12.9793 11.0691 12.9029 11.2636 12.7502 11.4163C12.5974 11.5691 12.4029 11.6455 12.1668 11.6455C11.9307 11.6455 11.7363 11.5691 11.5835 11.4163L10.8335 10.6663V14.9997H15.4168C16.0002 14.9997 16.4932 14.7983 16.896 14.3955C17.2988 13.9927 17.5002 13.4997 17.5002 12.9163C17.5002 12.333 17.2988 11.84 16.896 11.4372C16.4932 11.0344 16.0002 10.833 15.4168 10.833H14.1668V9.16634C14.1668 8.01356 13.7607 7.03079 12.9485 6.21801C12.1357 5.40579 11.1529 4.99967 10.0002 4.99967C8.84738 4.99967 7.86488 5.40579 7.05266 6.21801C6.23988 7.03079 5.8335 8.01356 5.8335 9.16634H5.41683C4.61127 9.16634 3.92377 9.45106 3.35433 10.0205C2.78488 10.59 2.50016 11.2775 2.50016 12.083C2.50016 12.8886 2.78488 13.5761 3.35433 14.1455C3.92377 14.715 4.61127 14.9997 5.41683 14.9997H6.66683C6.90294 14.9997 7.101 15.0797 7.261 15.2397C7.42044 15.3991 7.50016 15.5969 7.50016 15.833C7.50016 16.0691 7.42044 16.2669 7.261 16.4263C7.101 16.5863 6.90294 16.6663 6.66683 16.6663H5.41683Z" fill="#42BBFF"/>
</g>
</svg>
