<svg width="21" height="20" viewBox="0 0 21 20" fill="none" xmlns="http://www.w3.org/2000/svg">
    <mask id="mask0_690_7885" style="mask-type:alpha" maskUnits="userSpaceOnUse" x="0" y="0" width="21" height="20">
        <rect x="0.5" width="20" height="20" fill="#D9D9D9" />
    </mask>
    <g mask="url(#mask0_690_7885)">
        <path
            d="M16.3333 11.6663C16.0971 11.6663 15.8994 11.5863 15.7399 11.4263C15.5799 11.2669 15.4999 11.0691 15.4999 10.833V9.16634H13.8333C13.5971 9.16634 13.3994 9.08634 13.2399 8.92634C13.0799 8.7669 12.9999 8.56912 12.9999 8.33301C12.9999 8.0969 13.0799 7.89884 13.2399 7.73884C13.3994 7.5794 13.5971 7.49967 13.8333 7.49967H15.4999V5.83301C15.4999 5.5969 15.5799 5.39884 15.7399 5.23884C15.8994 5.0794 16.0971 4.99967 16.3333 4.99967C16.5694 4.99967 16.7671 5.0794 16.9266 5.23884C17.0866 5.39884 17.1666 5.5969 17.1666 5.83301V7.49967H18.8333C19.0694 7.49967 19.2671 7.5794 19.4266 7.73884C19.5866 7.89884 19.6666 8.0969 19.6666 8.33301C19.6666 8.56912 19.5866 8.7669 19.4266 8.92634C19.2671 9.08634 19.0694 9.16634 18.8333 9.16634H17.1666V10.833C17.1666 11.0691 17.0866 11.2669 16.9266 11.4263C16.7671 11.5863 16.5694 11.6663 16.3333 11.6663ZM7.99992 9.99967C7.08325 9.99967 6.29853 9.67329 5.64575 9.02051C4.99297 8.36773 4.66658 7.58301 4.66658 6.66634C4.66658 5.74967 4.99297 4.96495 5.64575 4.31217C6.29853 3.6594 7.08325 3.33301 7.99992 3.33301C8.91658 3.33301 9.70131 3.6594 10.3541 4.31217C11.0069 4.96495 11.3333 5.74967 11.3333 6.66634C11.3333 7.58301 11.0069 8.36773 10.3541 9.02051C9.70131 9.67329 8.91658 9.99967 7.99992 9.99967ZM2.16659 16.6663C1.93047 16.6663 1.7327 16.5863 1.57325 16.4263C1.41325 16.2669 1.33325 16.0691 1.33325 15.833V14.333C1.33325 13.8608 1.45492 13.4266 1.69825 13.0305C1.94103 12.635 2.26381 12.333 2.66659 12.1247C3.5277 11.6941 4.4027 11.3711 5.29158 11.1555C6.18047 10.9405 7.08325 10.833 7.99992 10.833C8.91658 10.833 9.81936 10.9405 10.7083 11.1555C11.5971 11.3711 12.4721 11.6941 13.3333 12.1247C13.736 12.333 14.0588 12.635 14.3016 13.0305C14.5449 13.4266 14.6666 13.8608 14.6666 14.333V15.833C14.6666 16.0691 14.5866 16.2669 14.4266 16.4263C14.2671 16.5863 14.0694 16.6663 13.8333 16.6663H2.16659ZM2.99992 14.9997H12.9999V14.333C12.9999 14.1802 12.9619 14.0413 12.8858 13.9163C12.8091 13.7913 12.7083 13.6941 12.5833 13.6247C11.8333 13.2497 11.0763 12.9683 10.3124 12.7805C9.54853 12.5933 8.7777 12.4997 7.99992 12.4997C7.22214 12.4997 6.45131 12.5933 5.68742 12.7805C4.92353 12.9683 4.16658 13.2497 3.41658 13.6247C3.29159 13.6941 3.19103 13.7913 3.11492 13.9163C3.03825 14.0413 2.99992 14.1802 2.99992 14.333V14.9997ZM7.99992 8.33301C8.45825 8.33301 8.85075 8.16967 9.17742 7.84301C9.50353 7.5169 9.66658 7.12467 9.66658 6.66634C9.66658 6.20801 9.50353 5.81579 9.17742 5.48967C8.85075 5.16301 8.45825 4.99967 7.99992 4.99967C7.54158 4.99967 7.14936 5.16301 6.82325 5.48967C6.49658 5.81579 6.33325 6.20801 6.33325 6.66634C6.33325 7.12467 6.49658 7.5169 6.82325 7.84301C7.14936 8.16967 7.54158 8.33301 7.99992 8.33301Z"
            fill="#154A89" />
    </g>
</svg>