<svg width="91" height="92" viewBox="0 0 91 92" fill="none" xmlns="http://www.w3.org/2000/svg">
    <g clip-path="url(#clip0_367_27344)">
    <path d="M7.87978 31.5367C8.29285 30.689 8.98992 30.504 9.96667 30.9816L10.1947 31.0935C10.8488 31.4119 11.1844 31.8078 11.2059 32.2768C11.6104 31.9455 12.1654 31.9541 12.8797 32.3026L13.4004 32.5565C14.4029 33.047 14.6955 33.7269 14.2696 34.5961L13.6112 35.9429L7.25586 32.8319L7.88838 31.5367H7.87978ZM8.57254 32.4188L10.2507 33.2407L10.4142 32.905C10.582 32.5608 10.4443 32.2768 9.99679 32.0617L9.64396 31.8896C9.20507 31.6744 8.91677 31.7131 8.77478 32.0057L8.57254 32.4188ZM11.1629 33.6839L13.1121 34.6391L13.353 34.1486C13.4993 33.8517 13.3616 33.6021 12.9443 33.3956L12.3892 33.1245C11.8772 32.8749 11.5286 32.9308 11.3479 33.3009L11.1586 33.6839H11.1629Z" fill="white"/>
    <path d="M9.235 28.2411L8.64551 26.9373L9.12313 26.1542L10.5517 26.0853L10.1042 26.8211L9.38991 26.8598L9.6825 27.5053L9.235 28.2411ZM10.8787 29.4588C9.86753 28.8392 9.61796 28.1206 10.1214 27.2944C10.6248 26.4683 11.3821 26.365 12.3933 26.9846L15.5344 28.908C16.5456 29.5276 16.7952 30.2462 16.2917 31.0724C15.7883 31.8985 15.031 32.0018 14.0198 31.3822L10.8787 29.4588ZM14.5749 30.6034C14.975 30.8486 15.259 30.8271 15.4311 30.5474C15.6033 30.2634 15.4914 30.0009 15.0912 29.76L11.8339 27.7678C11.4381 27.5268 11.1541 27.544 10.982 27.828C10.8099 28.112 10.9217 28.3702 11.3176 28.6154L14.5749 30.6077V30.6034ZM16.9027 30.9304L17.7805 31.4682L17.3201 32.2212L16.4423 31.6834L16.9027 30.9304Z" fill="white"/>
    <path d="M17.5485 24.2693L17.811 24.8674L19.5536 26.3304L18.9383 27.0619L13.521 22.5094L14.1363 21.7779L16.5976 23.8476L14.9926 20.7581L15.5563 20.0912L17.1139 23.1247L20.9736 24.6436L20.3454 25.3923L17.5528 24.2693H17.5485Z" fill="white"/>
    <path d="M22.4104 23.1985L21.722 23.8569L16.8296 18.7451L17.518 18.0867L19.6179 20.2812L20.401 19.5325L18.3012 17.338L19.0068 16.6625L23.8992 21.7743L23.1935 22.4498L21.098 20.2597L20.3149 21.0084L22.4104 23.1985Z" fill="white"/>
    <path d="M21.5974 16.6797C20.8788 15.7373 20.9046 14.9757 21.6748 14.3862C22.4451 13.801 23.1895 13.9775 23.9037 14.9198L26.1326 17.8501C26.8512 18.7924 26.8254 19.5583 26.0552 20.1435C25.285 20.7287 24.5449 20.5523 23.8263 19.6099L21.5931 16.6797H21.5974ZM24.6309 19.085C24.9149 19.455 25.186 19.5411 25.4485 19.3432C25.7109 19.1409 25.7023 18.8569 25.4183 18.4869L23.1034 15.4491C22.8237 15.079 22.5483 14.9972 22.2859 15.1952C22.0234 15.3931 22.032 15.6814 22.3117 16.0515L24.6266 19.0893L24.6309 19.085Z" fill="white"/>
    <path d="M30.8573 16.9246L30.0311 17.4152L29.2351 16.3954L28.2282 16.9935L28.7403 18.1811L27.9873 18.6286L25.2119 12.0495L26.4167 11.3352L30.8616 16.9246H30.8573ZM27.8367 16.1071L28.6327 15.6338L26.4081 12.7939L27.8367 16.1071Z" fill="white"/>
    <path d="M34.5877 15.268L33.6927 15.595L31.2788 8.94276L32.1738 8.61574L33.2108 11.4685L34.2306 11.0985L33.1936 8.24569L34.1101 7.91437L36.524 14.5666L35.6075 14.8979L34.5748 12.0494L33.555 12.4195L34.5877 15.268Z" fill="white"/>
    <path d="M36.5415 8.97264C36.2833 7.81516 36.6275 7.13531 37.5742 6.92446C38.5165 6.71362 39.1189 7.18694 39.3728 8.34442L40.1688 11.9373C40.427 13.0948 40.0828 13.7747 39.1361 13.9855C38.1938 14.1963 37.5914 13.723 37.3375 12.5655L36.5415 8.97264ZM38.2841 12.4278C38.3831 12.884 38.5983 13.0776 38.921 13.0044C39.2437 12.9313 39.3556 12.6688 39.2523 12.2127L38.4261 8.48211C38.3272 8.03031 38.112 7.83668 37.7893 7.90982C37.4666 7.98297 37.3547 8.24545 37.4537 8.69725L38.2798 12.4278H38.2841ZM39.6654 14.3297L39.8891 15.3366L39.0285 15.5259L38.8048 14.519L39.6654 14.3297Z" fill="white"/>
    <path d="M44.2735 10.5307L44.3595 11.4688C44.4671 12.6478 44.0497 13.2803 43.1031 13.3663C42.1565 13.4524 41.6315 12.9059 41.5196 11.7269L41.184 8.06089C41.0764 6.8819 41.4938 6.24938 42.4404 6.16332C43.3871 6.07726 43.912 6.62373 44.0196 7.80272L44.0842 8.49118L43.1849 8.57293L43.116 7.81563C43.073 7.35522 42.8879 7.13577 42.5566 7.1702C42.2253 7.20032 42.0833 7.44558 42.1263 7.91029L42.4749 11.714C42.5179 12.1744 42.7029 12.3853 43.0342 12.3552C43.3656 12.325 43.5076 12.0798 43.4645 11.6237L43.3699 10.6168L44.2692 10.535L44.2735 10.5307Z" fill="white"/>
    <path d="M49.3382 12.0275L50.6376 6.35626L51.5111 6.44231L49.8717 13.3915L48.4561 13.2495L48.228 6.1153L49.1876 6.20996L49.3382 12.0275Z" fill="white"/>
    <path d="M54.8501 14.3734L53.912 14.1539L54.0411 12.8674L52.9008 12.6006L52.449 13.814L51.5928 13.6161L54.1487 6.94659L55.5127 7.265L54.8457 14.3777L54.8501 14.3734ZM53.2365 11.6927L54.1358 11.9035L54.5015 8.31491L53.2365 11.6927ZM55.0394 5.58688L55.3793 6.88205L54.6779 6.71854L54.0368 5.35022L55.0394 5.58688Z" fill="white"/>
    <path d="M61.4164 14.119L61.0334 14.9796C60.5515 16.0639 59.876 16.4081 59.0111 16.0252C58.1419 15.6379 57.9483 14.9064 58.4302 13.8221L59.9276 10.4572C60.4095 9.37292 61.0851 9.02869 61.95 9.41164C62.8191 9.7989 63.0128 10.5304 62.5308 11.6147L62.2512 12.2472L61.425 11.8815L61.7348 11.1887C61.9241 10.767 61.8682 10.4874 61.5627 10.3497C61.2615 10.2163 61.0162 10.3583 60.8269 10.7843L59.2736 14.2739C59.0885 14.6956 59.1445 14.971 59.4457 15.1087C59.7469 15.242 59.9922 15.1 60.1815 14.6784L60.5946 13.7532L61.4207 14.119H61.4164Z" fill="white"/>
    <path d="M64.097 12.4281C64.7037 11.4083 65.4223 11.1501 66.2528 11.6407C67.0832 12.1355 67.1951 12.8928 66.5927 13.9083L64.7123 17.0709C64.1056 18.0907 63.387 18.3488 62.5566 17.8583C61.7261 17.3635 61.6143 16.6062 62.2167 15.5907L64.097 12.4281ZM62.9998 16.1372C62.7588 16.5373 62.7846 16.8256 63.0686 16.9934C63.3526 17.1612 63.6151 17.0451 63.8518 16.6449L65.8053 13.3618C66.0419 12.9616 66.0204 12.6776 65.7364 12.5098C65.4524 12.342 65.1899 12.4539 64.9533 12.8541L62.9998 16.1372ZM65.2975 10.7672L66.597 10.1605L67.3844 10.6295L67.4705 12.058L66.7304 11.6191L66.6787 10.9049L66.0376 11.2061L65.2975 10.7672Z" fill="white"/>
    <path d="M68.6665 15.6854L65.547 19.7516L64.8628 19.2266L69.17 13.6114L70.1209 14.3429L68.318 18.3015L70.8997 14.9367L71.5753 15.4573L67.2681 21.0726L66.4893 20.4745L68.6665 15.6897V15.6854Z" fill="white"/>
    <path d="M72.0358 20.0916L73.004 21.021L71.4463 22.6389C70.6245 23.4909 69.8715 23.5898 69.1873 22.9315C68.5032 22.2731 68.572 21.5158 69.3895 20.6639L71.9412 18.009C72.763 17.157 73.516 17.058 74.2002 17.7164C74.8843 18.3747 74.8155 19.132 73.9979 19.984L73.5203 20.4831L72.8706 19.8592L73.3955 19.3128C73.7182 18.9771 73.757 18.6974 73.5203 18.4651C73.2837 18.237 73.004 18.2887 72.6812 18.6243L70.035 21.3781C69.7166 21.7095 69.6735 21.9891 69.9145 22.2215C70.1512 22.4496 70.4308 22.3979 70.7493 22.0666L71.6529 21.1286L71.3388 20.8274L72.0401 20.1002L72.0358 20.0916Z" fill="white"/>
    <path d="M77.0958 23.9553L73.0123 27.0491L72.4917 26.3606L78.1328 22.0879L78.8557 23.0431L76.0674 26.3822L79.4451 23.822L79.9615 24.5018L74.3204 28.7746L73.7266 27.9914L77.0915 23.951L77.0958 23.9553Z" fill="white"/>
    <path d="M79.1827 29.0632L79.8797 30.2078L77.965 31.3781C76.9538 31.9978 76.2008 31.8988 75.7059 31.0898C75.2111 30.2809 75.4693 29.5666 76.4762 28.947L79.6173 27.0279C80.6284 26.4083 81.3815 26.5073 81.8763 27.3162C82.3711 28.1252 82.1129 28.8394 81.1061 29.4591L80.5166 29.8205L80.0433 29.0503L80.693 28.6544C81.0889 28.4135 81.2007 28.151 81.0286 27.867C80.8565 27.583 80.5725 27.5658 80.1766 27.8067L76.9194 29.799C76.5278 30.0399 76.4159 30.3024 76.588 30.5821C76.7602 30.8661 77.0441 30.8833 77.4357 30.6467L78.5459 29.9668L78.3178 29.5924L79.1827 29.0632Z" fill="white"/>
    <path d="M77.5565 34.2439L77.1392 33.3876L83.5031 30.2896L83.9205 31.1458L81.1925 32.4754L81.6658 33.4522L84.3938 32.1226L84.8198 33.0004L78.4558 36.0984L78.0299 35.2207L80.7536 33.8954L80.2803 32.9186L77.5565 34.2439Z" fill="white"/>
    <path d="M79.1139 39.1793L78.15 39.545L77.8359 38.7145L78.7998 38.3488L79.1139 39.1793ZM83.15 36.7998L83.6147 38.0304L82.6724 38.3875L82.2077 37.1569L80.2714 37.8927L80.8566 39.4331L79.9099 39.7903L78.9891 37.3548L85.6069 34.8463L86.5321 37.2817L85.5854 37.6388L85.0002 36.0984L83.1543 36.7998H83.15ZM85.9297 34.7516L87.3238 35.0872L87.6465 35.9392L86.8247 37.1139L86.5191 36.3092L86.9236 35.7197L86.2352 35.5562L85.9297 34.7516Z" fill="white"/>
    <path d="M82.7715 42.0232L83.4169 43.8347L85.3403 43.8906L83.8343 44.9836L84.3592 46.9113L82.7413 45.8657L81.1837 46.9113L81.6355 44.9491L80.2026 43.8906L82.0916 43.8433L82.7715 42.0232Z" fill="white"/>
    <path d="M7.23874 42.0232L7.88417 43.8347L9.80756 43.8906L8.30586 44.9836L8.8265 46.9113L7.20862 45.8657L5.65098 46.9113L6.10708 44.9491L4.66992 43.8906L6.55889 43.8433L7.23874 42.0232Z" fill="white"/>
    <path d="M63.0859 46.0677C64.1186 47.6684 64.7339 49.1959 64.8544 50.547C64.9448 51.498 64.7856 52.3629 64.3553 53.1029C64.3165 53.1718 64.2735 53.2406 64.2262 53.3052C64.1918 53.374 64.1616 53.4386 64.1229 53.5031C63.6754 54.2776 62.9353 54.8413 61.9543 55.2071C61.7305 54.794 61.3949 54.4368 60.9603 54.183C59.7039 53.4558 58.0946 53.8861 57.3674 55.1468C57.277 55.306 57.2039 55.4695 57.148 55.633C55.9905 55.5255 54.7383 55.3017 53.413 54.9661C53.7788 53.3052 54.0585 51.5238 54.2435 49.6563C56.6273 47.9653 58.7185 46.1839 60.431 44.4197C64.5747 40.1513 66.5282 35.9517 65.1814 33.2409C65.1814 33.2322 65.1728 33.2236 65.1685 33.2193C63.4043 30.5472 58.654 30.0352 52.7719 31.4638C52.29 29.8158 51.7134 28.3227 51.068 27.0275C51.3864 26.5929 51.5714 26.0593 51.5714 25.4785C51.5714 24.0241 50.3967 22.8451 48.9424 22.8451C48.6541 22.8451 48.3787 22.8924 48.1205 22.9785C47.161 22.1523 46.1326 21.6747 45.0569 21.6102C45.0483 21.6102 45.0396 21.6102 45.031 21.6102C44.9579 21.6059 44.8804 21.6016 44.8073 21.6016C42.2643 21.6016 39.9536 23.9165 38.2239 27.6987C39.0931 26.0034 40.1085 24.7082 41.2187 23.9251C41.9975 23.3743 42.8237 23.0775 43.6842 23.0775C43.766 23.0775 43.8434 23.0775 43.9209 23.0861C43.994 23.0818 44.0715 23.0775 44.1446 23.0775C45.0396 23.0775 45.8959 23.4389 46.7006 24.1015C46.4553 24.5017 46.3133 24.9707 46.3133 25.4742C46.3133 26.9242 47.488 28.1032 48.9424 28.1032C49.1231 28.1032 49.2995 28.086 49.4716 28.0516C50.0009 29.2047 50.4699 30.5214 50.8614 31.9758C49.2608 32.4577 47.5956 33.0687 45.9002 33.8131C42.9441 32.3889 40.0612 31.3347 37.4192 30.672C31.6491 29.2177 27.0364 29.6264 25.3626 32.1479C25.354 32.1522 25.3497 32.1608 25.3497 32.1694C23.8652 35.1341 25.9865 39.7038 30.4701 44.2347C29.1878 45.5557 28.1078 46.8724 27.2644 48.1546C26.7309 48.0944 26.1758 48.202 25.6724 48.4903C24.4159 49.2174 23.9814 50.8267 24.7085 52.0832C24.8505 52.3327 25.027 52.5479 25.2292 52.7243C24.9968 53.9721 25.0958 55.1038 25.5777 56.0633C25.5777 56.0719 25.582 56.0762 25.5906 56.0848C25.6251 56.1537 25.6595 56.2182 25.6982 56.2828C26.9676 58.4858 30.1302 59.3292 34.2695 58.9376C32.3677 59.0323 30.7369 58.8043 29.5062 58.232C28.6371 57.8318 27.9701 57.2638 27.5398 56.5194C27.5011 56.4506 27.4624 56.3817 27.428 56.3086C27.3849 56.2484 27.3462 56.1838 27.3075 56.1193C26.86 55.3447 26.7395 54.4196 26.9159 53.3912C27.3849 53.4041 27.8625 53.2923 28.2971 53.0427C29.5579 52.3155 29.9882 50.7062 29.261 49.4498C29.1706 49.2906 29.0631 49.1486 28.9469 49.0152C29.7343 47.9008 30.7283 46.7519 31.8943 45.6073C33.1938 46.7906 34.6439 47.9567 36.2273 49.0798C36.4855 52.2036 36.9976 55.0952 37.7161 57.6081C39.3426 63.3309 42.0018 67.1217 45.0224 67.3111C45.031 67.3111 45.0396 67.3111 45.0482 67.3111C48.3529 67.1131 51.2487 63.0039 52.9311 56.868C54.4587 57.2208 55.9001 57.4359 57.234 57.5177C57.4492 58.0082 57.8192 58.4385 58.3226 58.7268C59.5791 59.454 61.1884 59.0237 61.9155 57.763C62.0575 57.5134 62.1565 57.2552 62.2124 56.9884C63.4086 56.5711 64.3381 55.917 64.9276 55.0177C64.9319 55.0134 64.9362 55.0048 64.9405 54.9962C64.9835 54.9317 65.0222 54.8671 65.0609 54.8026C66.3303 52.5995 65.4869 49.4412 63.073 46.0548L63.0859 46.0677ZM62.135 36.0334C62.1737 36.098 62.2081 36.1625 62.2383 36.2314C63.7572 39.3251 60.3923 44.6263 54.2693 49.4025C54.3167 48.8861 54.3597 48.3612 54.3941 47.8319C54.407 47.6598 54.4156 47.4877 54.4242 47.3156C54.4242 47.3156 54.4242 47.3113 54.4242 47.307C54.4328 47.1305 54.4414 46.9541 54.45 46.7777C54.4673 46.4034 54.4759 46.029 54.4845 45.6504C54.4931 45.2588 54.4974 44.8672 54.4974 44.4757C54.4974 44.0841 54.4974 43.6882 54.4845 43.301C54.4759 42.9223 54.4673 42.548 54.45 42.1736C54.4371 41.8208 54.4156 41.468 54.3941 41.1151C54.2392 38.6367 53.9165 36.2873 53.4518 34.1359C57.6901 33.4001 60.9517 33.9809 62.135 36.0334ZM29.3126 33.4044C29.347 33.3398 29.3901 33.2753 29.4331 33.215C31.4339 30.2331 38.155 30.6462 45.7238 33.9078C45.031 34.2133 44.3297 34.5403 43.6283 34.8889C43.4734 34.962 43.3185 35.0438 43.1636 35.1212C43.1636 35.1212 43.1636 35.1212 43.155 35.1255C42.9958 35.203 42.8409 35.289 42.686 35.3665C42.3547 35.5386 42.0233 35.7193 41.692 35.9C41.3521 36.0894 41.0078 36.2787 40.6679 36.4766C40.328 36.6745 39.9881 36.8725 39.6567 37.0747C39.334 37.2726 39.0156 37.4663 38.6972 37.6685C38.396 37.8578 38.0991 38.0515 37.8108 38.2451C35.8272 39.5618 34.0243 40.9516 32.4365 42.3716C29.3729 38.8862 28.0648 35.5601 29.3126 33.4044ZM44.1489 63.2879C44.0758 63.2879 43.9984 63.2879 43.9252 63.2793C40.4011 63.0426 37.4365 57.2036 36.4253 49.2174C36.7996 49.4842 37.1826 49.7424 37.5741 50.0006C37.7161 50.0995 37.8624 50.1942 38.0087 50.2846C38.0087 50.2846 38.0173 50.2846 38.0173 50.2889C38.1636 50.3878 38.3142 50.4782 38.4648 50.5729C38.779 50.7751 39.1017 50.9687 39.4244 51.1667C39.76 51.3689 40.0956 51.5668 40.4356 51.7691C40.7755 51.967 41.1197 52.1563 41.4596 52.3456C41.791 52.5264 42.118 52.7071 42.4536 52.8792C42.7677 53.047 43.0818 53.2062 43.3959 53.3611C45.7668 54.5401 48.1076 55.4781 50.3322 56.1666C48.8477 60.5211 46.6274 63.2836 44.1533 63.2836L44.1489 63.2879ZM52.2384 43.7098C52.2384 44.054 52.2255 44.3982 52.2168 44.7381C52.148 47.0875 51.9113 49.3207 51.5413 51.3775C51.537 51.4119 51.5284 51.442 51.5241 51.4765C51.3477 52.4403 51.1454 53.3611 50.9131 54.2389C48.71 53.4988 46.3778 52.4876 44.0242 51.2226C43.723 51.0634 43.4218 50.8956 43.1249 50.7278C42.9743 50.6417 42.8237 50.5556 42.6731 50.4696C42.5225 50.3835 42.3719 50.2975 42.2213 50.2071C41.9244 50.0307 41.6318 49.8543 41.3435 49.6736C39.4287 48.486 37.6731 47.2252 36.1284 45.9343C36.1112 45.9171 36.094 45.9042 36.0724 45.887C35.2721 45.2158 34.5234 44.5402 33.8349 43.8604C35.4528 42.4877 37.3074 41.1323 39.3512 39.8716C39.6395 39.6952 39.9321 39.5145 40.229 39.338L40.6765 39.0756C40.8271 38.9895 40.9777 38.9034 41.1283 38.8174C41.4295 38.6496 41.7307 38.4861 42.0276 38.3226C44.3297 37.0876 46.6102 36.0894 48.7745 35.3579C48.7961 35.3493 48.8133 35.345 48.8305 35.3364C49.7298 35.0308 50.6076 34.7727 51.4552 34.5618C51.8726 36.7348 52.1351 39.1229 52.2125 41.6444C52.2212 41.9843 52.2298 42.3285 52.2341 42.6728C52.2341 42.8449 52.2341 43.017 52.2341 43.1934C52.2341 43.3698 52.2341 43.5376 52.2341 43.7141L52.2384 43.7098Z" fill="white"/>
    <path d="M48.2859 46.7723C49.8251 45.233 49.8251 42.7374 48.2859 41.1982C46.7466 39.659 44.251 39.659 42.7118 41.1982C41.1726 42.7374 41.1726 45.233 42.7118 46.7722C44.2511 48.3115 46.7466 48.3115 48.2859 46.7723Z" fill="white"/>
    <path d="M45.4999 91.5059C33.3443 91.5059 21.9158 86.7727 13.323 78.1799C4.73014 69.587 -0.00732422 58.1586 -0.00732422 46.0029C-0.00732422 33.8473 4.72584 22.4189 13.323 13.826C21.9158 5.23317 33.3443 0.5 45.4999 0.5C57.6556 0.5 69.084 5.23317 77.6769 13.826C86.2697 22.4189 91.0072 33.8473 91.0072 46.0029C91.0072 58.1586 86.274 69.587 77.6769 78.1799C69.084 86.7727 57.6556 91.5059 45.4999 91.5059ZM45.4999 1.30464C20.853 1.30464 0.801616 21.3561 0.801616 46.0029C0.801616 70.6498 20.853 90.7013 45.4999 90.7013C70.1468 90.7013 90.1982 70.6498 90.1982 46.0029C90.1982 21.3561 70.1468 1.30464 45.4999 1.30464Z" fill="white"/>
    <path d="M14.6482 55.2976C15.328 57.5824 16.2531 59.764 17.3977 61.8078C22.9054 71.6442 33.4259 78.2922 45.4998 78.2922C57.5737 78.2922 68.0942 71.6442 73.6019 61.8078C74.7422 59.7683 75.6716 57.5867 76.3515 55.2976C76.4848 54.8587 76.6053 54.4155 76.7172 53.968C77.0227 52.7546 77.2594 51.5153 77.4186 50.2503L75.2327 49.9663C75.0563 51.3303 74.7895 52.6685 74.4367 53.968C74.4109 54.0713 74.3807 54.1745 74.3506 54.2778C73.6579 56.7218 72.6682 59.0411 71.4118 61.1882C66.2182 70.0995 56.5582 76.0848 45.4998 76.0848C34.4414 76.0848 24.7814 70.0995 19.5879 61.1882C18.3357 59.0411 17.3418 56.7261 16.649 54.2778C16.6189 54.1745 16.5888 54.0713 16.563 53.968C16.2101 52.6642 15.9433 51.3303 15.7669 49.9663L13.5811 50.2503C13.7446 51.5153 13.9812 52.7546 14.2824 53.968C14.3943 54.4155 14.5148 54.8587 14.6482 55.2976Z" fill="white"/>
    <path d="M17.9831 53.9723C18.6759 56.3991 19.6785 58.6926 20.9521 60.8096C25.9521 69.1443 35.0785 74.7251 45.5044 74.7251C55.9302 74.7251 65.0566 69.1443 70.0566 60.8096C71.3259 58.6926 72.3285 56.3991 73.0256 53.9723C73.0557 53.8647 73.0858 53.7572 73.1159 53.6496C73.4559 52.3975 73.7183 51.1109 73.8861 49.7942L72.3242 49.592C72.1306 51.0937 71.8165 52.5567 71.3862 53.9723C70.6977 56.2442 69.7166 58.3871 68.486 60.3621C63.7141 68.0384 55.2073 73.1459 45.5044 73.1459C35.8014 73.1459 27.2946 68.0341 22.5227 60.3621C21.292 58.3871 20.3153 56.2442 19.6225 53.9723C19.1922 52.5567 18.8781 51.0937 18.6845 49.592L17.1226 49.7942C17.2904 51.1109 17.5485 52.3975 17.8885 53.6496C17.9186 53.7572 17.9487 53.8647 17.9788 53.9723H17.9831Z" fill="white"/>
    <path d="M86.6741 53.9721C86.8291 53.1589 86.9624 52.3371 87.0657 51.5066L83.873 51.0935L79.0839 50.4696C78.9333 51.6572 78.7181 52.8276 78.447 53.9721C78.2792 54.6821 78.0856 55.3835 77.8748 56.0763C77.2078 58.2449 76.33 60.3189 75.2629 62.2767C69.5272 72.8188 58.3526 79.9745 45.4999 79.9745C32.6472 79.9745 21.4769 72.8231 15.7369 62.2767C14.6698 60.3189 13.792 58.2406 13.125 56.0763C12.9142 55.3835 12.7206 54.6821 12.5528 53.9721C12.2817 52.8276 12.0665 51.6572 11.9159 50.4696L7.12682 51.0935L3.93408 51.5066C4.03735 52.3371 4.17074 53.1589 4.32564 53.9721H7.60874C7.90994 55.4437 8.3015 56.8852 8.76622 58.2922L5.86177 59.7681C6.42115 61.3946 7.07949 62.9738 7.82819 64.5056L10.9822 63.6149C11.619 64.867 12.3204 66.0805 13.0863 67.2465L10.6595 69.4152C11.675 70.9341 12.7937 72.3842 13.9942 73.7525L16.6405 71.885C17.5957 72.9522 18.6112 73.9676 19.6783 74.9229L18.0174 77.7542C19.3255 78.8944 20.7067 79.9529 22.1525 80.9211L24.3297 78.5029C25.5087 79.2731 26.735 79.9831 27.9958 80.6285L27.0104 83.7352C28.5724 84.5054 30.1903 85.1809 31.8555 85.7532L33.5293 82.9176C34.8029 83.3307 36.1067 83.6835 37.4363 83.9632V87.2506C39.1316 87.5819 40.8657 87.81 42.6299 87.9262L43.3614 84.7463C44.067 84.7851 44.7813 84.8066 45.4956 84.8066C46.2099 84.8066 46.9241 84.7851 47.6298 84.7463L48.3613 87.9262C50.1255 87.8057 51.8596 87.5819 53.5549 87.2506V83.9632C54.8845 83.6835 56.1882 83.3307 57.4619 82.9176L59.1357 85.7532C60.8009 85.1809 62.4188 84.5054 63.9808 83.7352L62.9954 80.6285C64.2605 79.9874 65.4825 79.2774 66.6615 78.5029L68.8387 80.9211C70.2845 79.9529 71.6657 78.8944 72.9738 77.7542L71.3129 74.9229C72.38 73.9676 73.3912 72.9522 74.3507 71.885L76.997 73.7525C78.2018 72.3842 79.3162 70.9341 80.3317 69.4152L77.9049 67.2465C78.6708 66.0762 79.3722 64.867 80.009 63.6149L83.163 64.5056C83.9117 62.9781 84.57 61.3946 85.1294 59.7681L82.225 58.2922C82.694 56.8852 83.0812 55.4437 83.3825 53.9721H86.6655H86.6741Z" fill="white"/>
    </g>
    <defs>
    <clipPath id="clip0_367_27344">
    <rect width="91" height="91" fill="white" transform="translate(0 0.5)"/>
    </clipPath>
    </defs>
    </svg>
    