<svg width="169" height="204" viewBox="0 0 169 204" fill="none" xmlns="http://www.w3.org/2000/svg">
    <g clip-path="url(#clip0_415_6288)">
        <path d="M121.598 149.574L93.5386 133.268L93.3799 87.1499L121.439 103.456L121.598 149.574Z" fill="#FBFCFF" />
        <path d="M121.439 103.456L93.3799 87.1497L139.259 60.6606L167.319 76.9668L121.439 103.456Z" fill="#D9F1FF" />
        <path d="M167.421 107.317L167.477 123.085L121.598 149.574L121.439 103.456L167.319 76.9673L167.364 90.2628"
            fill="#FBFCFF" />
        <path d="M75.6898 176.08L47.6302 159.774L47.3184 58.3647L75.3779 74.6709L75.6898 176.08Z" fill="#D9F1FF" />
        <path d="M75.3779 74.6707L47.3184 58.3645L93.2206 31.8584L121.28 48.1646L75.3779 74.6707Z" fill="#FBFCFF" />
        <path d="M121.281 48.1646L121.598 149.574L75.6903 176.08L75.3784 74.6706L121.281 48.1646Z" fill="#FBFCFF" />
        <path d="M1.60398 140.508L1.53027 118.379L29.5898 134.685L29.811 202.569L1.75139 186.263L1.6947 168.494"
            fill="#D9F1FF" />
        <path d="M29.5898 134.685L1.53027 118.379L47.4155 91.8896L75.4694 108.196L29.5898 134.685Z" fill="#FBFCFF" />
        <path d="M75.4689 108.196L75.6901 176.08L29.8105 202.569L29.5894 134.685L75.4689 108.196Z" fill="#FBFCFF" />
        <path
            d="M71.9251 60.9559C71.5339 62.5207 71.9251 63.5696 72.6225 64.0062L65.439 59.8276C64.7416 59.391 64.3504 58.3478 64.7416 56.7773L68.1831 42.6256C68.529 41.2308 68.2285 40.0572 67.4404 39.6206L74.6239 43.7992C75.4064 44.2358 75.7125 45.4094 75.3667 46.8042L71.9251 60.9559Z"
            fill="#D9F1FF" />
        <path
            d="M168.482 107.3C168.482 106.711 167.937 106.206 167.433 106.251C166.843 106.251 166.384 106.756 166.384 107.3L166.423 122.495L122.636 147.765C122.466 87.8756 122.523 108.531 122.511 104.063L166.253 78.7927L166.293 90.2512C166.293 90.8409 166.798 91.3001 167.342 91.3001C168.011 91.3001 168.391 90.8409 168.391 90.2512L168.351 76.9444C168.351 76.5645 168.181 76.23 167.847 76.0655C167.761 76.0259 167.676 75.9805 167.597 75.9408L139.764 59.7367C139.469 59.5666 139.05 59.5666 138.715 59.7367L122.386 69.1825L122.347 48.1477C122.347 47.7678 122.137 47.4333 121.802 47.2689C121.717 47.2292 121.632 47.1839 121.553 47.1442L99.8039 34.4609V36.8989L119.2 48.1477L75.4126 73.4631H75.3729C74.9534 73.2193 47.6932 57.3384 49.4282 58.3476L67.441 47.9493V45.5396L47.0355 57.3384L46.7861 57.4631C46.4912 57.6332 46.2815 57.9677 46.2815 58.3419L46.3665 91.2548L1.02555 117.449C0.685367 117.67 0.475586 118.005 0.475586 118.385L0.560632 140.508C0.560632 141.098 1.01988 141.557 1.60954 141.557C2.19919 141.557 2.65844 141.098 2.65844 140.508L2.57339 120.188L28.5578 135.303L28.7676 200.749L2.78317 185.679L2.74348 168.505C2.74348 167.915 2.28424 167.456 1.69458 167.456C1.10493 167.456 0.645678 167.915 0.645678 168.505L0.685367 186.263C0.685367 186.643 0.895147 186.977 1.22966 187.187L29.2722 203.476C29.4423 203.561 29.6067 203.601 29.8165 203.601C29.9866 203.601 30.151 203.561 30.3211 203.476C46.9108 193.889 161.666 127.672 168.017 124.009C168.311 123.799 168.521 123.465 168.521 123.085L168.482 107.3ZM139.265 61.8742L165.21 76.9444L122.517 101.63L122.432 71.6148L139.265 61.8742ZM48.3736 60.1959C48.7988 60.4397 76.0533 76.2753 74.3184 75.2661L74.4034 106.376L48.4586 91.2605L48.3736 60.1959ZM3.6223 118.385C5.78247 117.137 -7.72854 124.933 47.4097 93.1145C49.3998 94.2654 75.0328 109.137 73.3942 108.185C72.9633 108.434 29.1645 133.71 29.6067 133.455C29.1872 133.211 1.89302 117.375 3.6223 118.385ZM30.8711 200.749L30.6613 135.303C98.0009 96.3972 64.8726 115.538 74.4034 110.033H74.4431L74.6529 175.479C19.5203 207.297 33.0313 199.502 30.8711 200.749ZM76.7563 174.26C76.7223 164.134 76.8811 210.932 76.4218 75.2718L120.249 50.0017C120.249 50.4326 120.34 74.2966 120.334 72.8395C120.345 77.2052 120.277 51.7253 120.544 148.99C65.4055 180.808 78.9165 173.013 76.7563 174.26Z"
            fill="#154A89" />
        <path
            d="M103.795 120.301L100.461 122.229L100.399 100.446C100.399 99.9353 100.257 99.5667 99.9228 99.408C99.6167 99.2322 99.2255 99.2662 98.7832 99.5214L98.0859 99.9239C97.7797 100.1 97.4735 100.372 97.139 100.757L92.5862 106.104C92.0022 106.79 91.7244 107.465 91.7301 108.196C91.7301 108.678 91.8435 109.024 92.1213 109.154C92.3991 109.313 92.7336 109.279 93.1815 109.024C93.3743 108.91 93.6238 108.672 93.9299 108.366L97.3715 104.426L97.4282 123.975L93.4253 126.288C93.0058 126.526 92.6769 126.884 92.4274 127.343C92.1496 127.853 92.0136 128.318 92.0136 128.766C92.0136 129.248 92.1553 129.548 92.4331 129.707C92.6826 129.849 93.0171 129.815 93.4367 129.577L103.807 123.589C104.198 123.363 104.555 122.994 104.833 122.546C105.111 122.064 105.247 121.605 105.247 121.123C105.247 120.675 105.105 120.375 104.827 120.182C104.544 120.029 104.181 120.074 103.795 120.301Z"
            fill="#154A89" />
        <path
            d="M52.716 161.769C54.4339 159.467 55.823 157.545 56.9059 155.929C57.9605 154.359 58.9017 152.664 59.6501 150.923C60.4268 149.194 60.8124 147.567 60.8067 146.03C60.801 144.499 60.4665 143.314 59.7691 142.537C59.1001 141.738 58.1533 141.358 56.9796 141.398C55.8117 141.404 54.5019 141.834 53.0562 142.668C50.3857 144.21 47.8854 146.325 45.6118 148.95C45.1412 149.511 44.8917 150.135 44.8917 150.77C44.8917 151.218 45.0051 151.507 45.2546 151.649C45.5041 151.79 45.8102 151.745 46.1731 151.535L46.8138 150.974C48.6168 149.007 50.5331 147.447 52.5345 146.296C54.3942 145.219 55.7323 144.868 56.5941 145.231C57.4275 145.61 57.8528 146.552 57.8528 148.02C57.8528 148.944 57.5806 149.97 57.0533 151.104C56.5261 152.238 55.8343 153.378 55.0292 154.546C54.2241 155.714 53.1412 157.171 51.7861 158.98C50.2043 161.078 48.9286 162.835 47.9591 164.258C46.9895 165.681 46.1561 167.155 45.4927 168.658C44.801 170.211 44.4722 171.618 44.4722 172.956C44.4722 173.562 44.6423 173.948 44.9768 174.135C45.3113 174.294 45.7309 174.243 46.2581 173.942L59.2135 166.464C59.6047 166.237 59.9619 165.868 60.2397 165.421C60.5176 164.939 60.6536 164.479 60.6536 163.997C60.6536 163.55 60.5119 163.249 60.2341 163.056C59.9562 162.898 59.5934 162.949 59.2022 163.17L47.5338 169.911C47.84 168.97 48.39 167.915 49.1667 166.73C49.9718 165.528 51.1625 163.844 52.716 161.769Z"
            fill="#154A89" />
        <path
            d="M143.665 123.039C142.066 123.963 140.609 124.491 139.282 124.649L138.755 124.819C138.437 125.001 138.182 125.279 137.978 125.659C137.751 126.05 137.661 126.418 137.661 126.787C137.661 127.076 137.729 127.297 137.848 127.416L138.375 127.586C140.178 127.382 142.094 126.696 144.147 125.511C146.222 124.315 147.929 122.801 149.272 120.953C150.593 119.116 151.251 117.239 151.245 115.3C151.24 113.571 150.826 112.499 150.026 112.091C149.204 111.7 148.269 111.666 147.214 111.983C148.172 111.036 148.966 109.948 149.601 108.74C150.213 107.572 150.531 106.234 150.525 104.766C150.52 102.957 149.947 101.897 148.779 101.574C147.611 101.25 145.995 101.687 143.875 102.912C142.004 103.989 140.184 105.593 138.432 107.686C138.069 108.105 137.887 108.576 137.887 109.075C137.887 109.415 137.978 109.625 138.188 109.744C138.392 109.834 138.647 109.795 138.919 109.636L139.396 109.256C140.717 107.788 142.128 106.625 143.682 105.735C145.094 104.919 146.194 104.573 146.925 104.754C147.656 104.907 148.025 105.508 148.025 106.506C148.031 107.788 147.554 109.012 146.573 110.231C145.615 111.411 144.204 112.544 142.378 113.599L142.196 113.707C141.902 113.877 141.629 114.166 141.397 114.586C141.17 114.977 141.057 115.334 141.057 115.703C141.057 116.071 141.17 116.321 141.403 116.451C141.629 116.581 141.907 116.553 142.202 116.383L142.656 116.122C146.715 113.78 148.722 113.956 148.734 116.604C148.739 117.863 148.263 119.053 147.282 120.148C146.307 121.248 145.099 122.206 143.665 123.039Z"
            fill="#154A89" />
        <path
            d="M109.459 10.5858C108.938 10.2796 108.24 10.3249 107.367 10.8012L96.2204 17.242C95.3926 17.7183 94.6555 17.7637 94.1282 17.4575L87.2905 13.4546C87.7668 13.5397 88.3791 13.4546 89.0311 13.1088L100.178 6.66796C101.051 6.14634 101.743 6.14634 102.27 6.40715L109.459 10.5858Z"
            fill="#D9F1FF" />
        <path
            d="M89.2125 5.40337C88.6455 5.09721 87.8631 5.18792 87.0807 5.66418C85.907 6.3162 84.7277 7.79601 84.2968 9.62733L80.9006 23.779C80.5094 25.3892 79.3358 26.9994 78.0714 27.7422L66.9247 34.1433C64.2713 35.7082 63.0523 40.1079 64.8326 41.1511L57.649 36.9725C55.863 35.9293 57.082 31.5296 59.7411 30.0044L70.8879 23.5636C72.1522 22.8208 73.3258 21.2106 73.7171 19.6004L77.1132 5.44873C77.5498 3.62307 78.7234 2.1376 79.8971 1.48558C80.6795 1.04901 81.4619 0.918603 82.0289 1.22477L89.2125 5.40337Z"
            fill="#D9F1FF" />
        <path
            d="M87.0984 5.6472C88.2834 4.96683 89.4627 5.06322 89.9106 6.37293L93.4089 16.5501C93.8058 17.7124 94.9284 18.0016 96.2041 17.2645L107.362 10.8237C110.22 9.17378 111.416 12.706 109.125 15.9605L100.105 28.7401C99.0843 30.1859 98.6477 31.9888 99.0446 33.1511L102.52 43.317C103.201 45.3071 101.562 48.3404 99.725 49.4006C99.1467 49.7351 98.5513 49.8712 98.0014 49.7238L88.9638 47.4276C88.4422 47.2915 87.8298 47.4219 87.2232 47.7734C86.6165 48.1249 86.0099 48.6919 85.4996 49.429L76.5017 62.1406C75.9461 62.9286 75.3507 63.4786 74.7667 63.8131C72.9184 64.879 71.2685 63.7451 71.9319 60.9783L75.3621 46.8266C75.7533 45.2107 75.3054 43.918 74.2848 43.6515L65.2246 41.3156C62.8943 40.7373 64.0906 35.8159 66.9482 34.166L78.0836 27.7365C79.3592 26.9995 80.4989 25.4063 80.8901 23.7904L84.2976 9.62736C84.7342 7.79603 85.9135 6.32757 87.0984 5.6472Z"
            fill="#FBFCFF" />
        <path
            d="M109.965 16.5786C111.603 14.271 111.853 11.5836 110.554 10.1548C110.157 9.6275 107.923 8.51623 102.747 5.46591C102.101 5.14273 101.035 4.93295 99.6627 5.75506L92.2863 10.0187L90.9029 6.03855C90.6081 5.23911 90.1885 4.77987 89.7689 4.52473C89.7293 4.52473 89.7293 4.48504 89.7293 4.48504L82.506 0.289427C81.6669 -0.169823 80.5329 -0.0904465 79.399 0.584253C77.8455 1.42338 76.5471 3.22636 76.0822 5.2051L72.6803 19.3511C72.3855 20.6552 71.3763 22.0386 70.3727 22.6679L59.2033 29.0917C56.0736 30.9231 54.4237 36.332 57.1055 37.8628L64.1984 42.0188C64.2381 42.0188 64.2834 42.0584 64.3231 42.0584C64.5329 42.1832 64.7427 42.2682 64.9525 42.3079L67.0503 42.8522L63.7335 56.539C63.2289 58.3873 63.6938 59.9805 64.9071 60.7346L72.085 64.8905C72.703 65.3044 73.9447 65.4291 75.2771 64.7204C76.0311 64.2612 76.7058 63.5865 77.3352 62.7473L86.3614 50.0301C86.8093 49.3327 87.8809 48.2782 88.669 48.4369L97.6952 50.7445C100.91 51.5893 104.624 46.2257 103.49 42.9769L100.048 32.8168C99.7987 32.1024 100.048 30.6339 100.927 29.3299L109.965 16.5786ZM100.723 7.56938C101.04 7.38228 101.494 7.18384 101.743 7.31991L106.5 10.0867C106.075 10.3305 94.9908 16.7487 95.6938 16.3461C95.2743 16.5899 94.6789 16.8054 94.3841 16.2101L92.961 12.0655L100.723 7.56938ZM62.9851 38.6169C62.9454 38.702 62.9454 38.7416 62.9454 38.8267L58.1601 36.0542C57.4401 35.5099 58.0354 32.2214 60.2579 30.889L71.4273 24.4652C72.9411 23.5411 74.2792 21.6927 74.7441 19.8501L78.146 5.70403C78.5258 4.06548 79.5747 2.89184 80.4139 2.38723C80.7937 2.17745 81.1282 2.09241 81.338 2.09241C81.4231 2.09241 81.4628 2.09241 81.5081 2.13209L86.2934 4.9046C84.6548 6.07257 83.6966 7.7905 83.2714 9.35535L79.8696 23.5467C79.5351 24.8905 78.6109 26.2342 77.562 26.8238L66.4379 33.2477C64.7427 34.2172 63.3423 36.2243 62.9851 38.6169ZM70.7526 61.7098L66.007 58.9373C65.6725 58.7275 65.5024 58.0982 65.7576 57.0039L69.0744 43.3625L74.0297 44.6665C74.1034 44.6665 74.3246 44.8706 74.3246 45.0464C74.5287 45.2505 74.4039 46.2484 74.3246 46.5602C74.2225 46.9911 70.7016 61.6758 70.9227 60.7516C70.883 60.9614 70.7526 61.4546 70.7526 61.7098ZM98.0411 33.4971L101.522 43.6573C102.163 45.517 99.7137 49.0606 98.2452 48.6977L89.219 46.4298C87.416 45.9536 85.7151 47.2973 84.6435 48.8225L75.6173 61.5397C74.1771 63.6999 72.2948 63.7452 72.9298 61.2052L76.377 47.0592C76.8306 45.2392 76.4224 43.1244 74.5287 42.6538C74.1034 42.5404 64.8731 40.1477 65.4627 40.3008C65.4231 40.3008 65.4231 40.3008 65.3777 40.2611C64.5669 40.2611 65.1452 36.349 67.4755 35.0563L78.5995 28.6325C80.1134 27.748 81.4514 25.9053 81.9163 24.057L85.3182 9.86563C85.9702 7.25187 88.2381 5.90248 88.6747 6.33905C88.7597 6.37873 88.8448 6.54883 88.9242 6.71892L92.411 16.8791C93.0857 18.8125 94.9908 19.1697 96.7371 18.1831C98.2509 17.31 108.507 11.3851 107.861 11.7593C109.176 10.4439 110.078 12.8026 108.281 15.371L99.2544 28.1222C98.0411 29.8458 97.5365 32.0287 98.0411 33.4971Z"
            fill="#42BBFF" />
    </g>
    <defs>
        <clipPath id="clip0_415_6288">
            <rect width="168.051" height="203.601" fill="white" transform="translate(0.474609)" />
        </clipPath>
    </defs>
</svg>