<svg width="153" height="204" viewBox="0 0 153 204" fill="none" xmlns="http://www.w3.org/2000/svg">
    <g clip-path="url(#clip0_415_6415)">
        <path
            d="M93.7265 24.3309L132.766 1.82024C134.28 0.930014 135.658 0.844961 136.684 1.42332L149.232 8.72654C148.211 8.14818 146.828 8.23324 145.314 9.12346L20.0138 81.3789C16.9406 83.1593 14.491 87.3836 14.491 90.8991L14.7178 183.635C14.7178 185.37 15.3416 186.618 16.3168 187.196L3.76868 179.893C2.78773 179.315 2.16968 178.113 2.16968 176.377L1.94287 83.5959C1.94287 80.0804 4.3924 75.8561 7.46565 74.0756L61.3212 43.0199"
            fill="#D9F1FF" />
        <path
            d="M150.956 69.9423L151.041 105.024C151.047 108.517 148.586 112.781 145.541 114.538L20.2408 186.805C17.2016 188.557 14.718 187.145 14.7124 183.653L14.4912 90.9051C14.4856 87.3782 16.9464 83.1482 19.9913 81.3904L145.291 9.11803C148.331 7.36594 150.809 8.7438 150.82 12.2707L150.905 47.1991"
            fill="#FBFCFF" />
        <path
            d="M15.7608 183.63L15.5794 107.74L15.5397 90.9107C15.5397 87.8601 17.7 83.942 20.5125 82.2976L55.9286 61.8736L145.841 10.0252C148.177 8.66438 149.759 9.63398 149.759 12.2536L149.867 47.1821C149.867 47.7718 150.326 48.2311 150.916 48.2311C151.46 48.2311 151.965 47.7718 151.965 47.1821L151.857 12.2536C151.857 10.2407 151.126 8.67572 149.793 7.86488C149.776 7.85354 149.776 7.82519 149.753 7.81385L137.2 0.504956C135.793 -0.288873 134.036 -0.147118 132.244 0.90754L93.2045 23.4239C92.6998 23.7131 92.5297 24.3538 92.8189 24.8585C93.1024 25.3575 93.7431 25.5332 94.2535 25.2441L133.298 2.72201C134.427 2.06426 135.442 1.92818 136.156 2.32509L145.574 7.80818C145.314 7.92158 145.053 8.05767 144.792 8.21076C144.786 8.21643 144.781 8.21643 144.775 8.2221L19.4635 80.4605C16.101 82.4337 13.4531 87.0436 13.4531 90.8993L13.4927 107.774L13.6629 183.658C13.6629 183.84 13.6855 184.169 13.7196 184.463L4.31269 178.986C3.60958 178.572 3.22401 177.642 3.22401 176.372L2.99153 83.5961C2.99153 80.4435 5.23693 76.5764 7.98698 74.9831L61.8426 43.9274C62.3472 43.6382 62.5173 42.9975 62.2281 42.4928C61.939 41.9882 61.2982 41.8124 60.7936 42.1072L6.93799 73.1629C3.55288 75.1305 0.893555 79.7064 0.893555 83.5961L1.12036 176.378C1.12036 178.419 1.86883 179.99 3.24669 180.8L15.7835 188.098C15.7892 188.098 15.7892 188.104 15.7949 188.109C17.4222 188.977 19.1686 188.642 20.7903 187.735L66.9458 161.096C66.9458 160.257 67.0308 159.418 67.1159 158.579L19.747 185.887C17.2578 187.35 15.7608 185.983 15.7608 183.63Z"
            fill="#154A89" />
        <path
            d="M141.378 22.2671L141.418 38.3308C140.057 39.771 138.606 40.9334 137.075 41.818C130.65 45.5206 125.383 42.5778 125.36 35.2348C125.354 33.9591 125.524 32.5925 125.836 31.2317L141.378 22.2671Z"
            fill="#D9F1FF" />
        <path
            d="M28.5185 154.054C34.9145 150.369 40.1538 153.294 40.1765 160.705C40.1821 161.981 40.012 163.348 39.7002 164.675L24.1808 173.622L24.1128 157.575C25.4963 156.147 26.9649 154.944 28.5185 154.054Z"
            fill="#D9F1FF" />
        <path
            d="M125.836 31.2319C125.524 32.5871 125.36 33.9593 125.36 35.2351C125.377 42.578 130.65 45.5208 137.074 41.8182C138.611 40.9337 140.057 39.7713 141.418 38.331L141.543 89.8505C140.176 89.9866 138.725 90.4912 137.194 91.3815C130.769 95.0841 125.53 104.06 125.547 111.471C125.553 112.747 125.723 113.921 126.04 114.879L141.588 105.914L24.1807 173.65L39.7001 164.669C40.0119 163.348 40.1764 161.976 40.1764 160.7C40.1594 153.289 34.9144 150.363 28.5184 154.049C26.9648 154.944 25.4962 156.147 24.1467 157.541L24.022 106.05C25.3772 105.88 26.8457 105.387 28.3994 104.491C34.7954 100.805 40.0063 91.8124 39.9893 84.4695C39.9836 83.1937 39.8135 82.0199 39.496 81.0277L125.836 31.2319Z"
            fill="#FBFCFF" />
        <path
            d="M39.4966 81.0273C39.8142 82.0196 39.9843 83.199 39.9899 84.4692C40.0069 91.8121 34.7903 100.805 28.4 104.491C26.8464 105.387 25.3778 105.88 24.0226 106.05L23.9546 89.9919L39.4966 81.0273Z"
            fill="#D9F1FF" />
        <path
            d="M137.189 91.3757C138.726 90.4911 140.171 89.9808 141.538 89.8447L141.578 105.908L126.03 114.873C125.712 113.909 125.542 112.735 125.537 111.465C125.525 104.054 130.77 95.0783 137.189 91.3757Z"
            fill="#D9F1FF" />
        <path
            d="M101.398 56.6568C102.305 56.1294 103.048 56.5547 103.048 57.598L103.07 67.7817C103.07 68.825 102.333 70.1008 101.426 70.6282L64.2293 92.0842C63.3221 92.6059 62.5793 92.1863 62.5793 91.143L62.5566 80.9593C62.5566 79.916 63.2938 78.6402 64.201 78.1128L101.398 56.6568Z"
            fill="#FBFCFF" />
        <path
            d="M142.58 106.09C142.592 106.028 142.631 105.971 142.626 105.908C142.257 -47.6576 142.643 112.9 142.427 22.2673C142.427 21.8931 142.229 21.5472 141.9 21.3601C141.577 21.1729 141.174 21.1729 140.851 21.3601C111.196 38.4614 52.8891 72.0914 23.4267 89.085C23.1035 89.2721 22.8994 89.6236 22.8994 89.9979C22.9901 118.372 22.8711 65.6103 23.1262 173.622C23.1319 174.495 24.0221 174.955 24.7025 174.558L142.098 106.816C142.32 106.691 142.45 106.481 142.529 106.254C142.558 106.198 142.569 106.147 142.58 106.09ZM137.715 92.283C139.076 91.5005 140.012 91.285 140.494 91.1603L140.528 105.307L126.727 113.263C126.641 112.701 126.59 112.095 126.59 111.465C126.573 104.434 131.563 95.8325 137.715 92.283ZM140.363 37.8774C137.568 40.7238 132.794 43.7404 129.284 41.7274C126.176 39.9413 126.086 35.4052 126.806 31.884L140.329 24.0818L140.363 37.8774ZM38.7873 82.6493C39.9157 91.6819 32.4197 102.773 25.0654 104.723L25.0087 90.5989L38.7873 82.6493ZM36.2471 154.145C39.292 155.903 39.4848 160.547 38.7703 163.994L25.2242 171.808L25.1675 158.029C28.0139 155.183 32.7315 152.126 36.2471 154.145ZM41.1064 162.673C41.5544 158.721 40.7379 154.309 37.2961 152.325C33.497 150.136 28.5129 152.33 25.1902 155.132L25.0768 106.935C34.3872 104.928 42.8245 90.6783 40.7265 81.5323L124.43 33.2562C123.988 37.1969 124.793 41.5573 128.24 43.5419C132.005 45.7136 137.069 43.5703 140.38 40.7578L140.499 88.9432C139.575 89.136 137.959 89.72 136.678 90.4628C129.947 94.3469 124.487 103.765 124.504 111.465C124.504 112.458 124.725 113.949 124.821 114.368L41.1064 162.673Z"
            fill="#42BBFF" />
        <path
            d="M64.7569 92.9915L101.953 71.5411C103.19 70.8267 104.125 69.2107 104.125 67.7818L104.102 57.5924C104.097 55.7439 102.498 54.814 100.876 55.7439L63.6739 77.2C62.4378 77.9144 61.5022 79.5304 61.5078 80.9537L61.5305 91.143C61.5362 92.9858 63.1352 93.9271 64.7569 92.9915ZM64.7228 79.0201L101.925 57.5641C102.345 57.7569 102.424 57.7965 102.004 57.6038L102.027 67.7874C102.027 68.4622 101.494 69.3808 100.904 69.721L63.6228 91.143L63.6001 80.9593C63.6001 80.2789 64.1331 79.3603 64.7228 79.0201Z"
            fill="#42BBFF" />
        <path
            d="M36.5426 121.297L63.0678 105.999C63.5724 105.71 63.7425 105.069 63.4534 104.564C63.1642 104.06 62.5178 103.89 62.0188 104.179L35.4936 119.477C34.9889 119.766 34.8188 120.407 35.108 120.912C35.3972 121.416 36.0379 121.586 36.5426 121.297Z"
            fill="#42BBFF" />
        <path
            d="M77.5886 96.4167C77.8777 96.9157 78.5185 97.0914 79.0231 96.8023L130.163 67.3115C130.667 67.0223 130.837 66.3816 130.548 65.877C130.259 65.3723 129.613 65.1965 129.114 65.4914L77.9741 94.9821C77.4695 95.2713 77.2937 95.912 77.5886 96.4167Z"
            fill="#42BBFF" />
        <path
            d="M36.5357 133.817L109.834 91.54C110.339 91.2508 110.509 90.61 110.22 90.1054C109.931 89.6008 109.29 89.4306 108.785 89.7198L35.4867 131.997C34.9821 132.286 34.812 132.927 35.1012 133.431C35.3904 133.93 36.0311 134.106 36.5357 133.817Z"
            fill="#42BBFF" />
        <path
            d="M130.536 78.391C130.247 77.8864 129.6 77.7163 129.101 78.0055L121.668 82.2918C121.164 82.5809 120.994 83.2216 121.283 83.7262C121.572 84.2252 122.213 84.4009 122.717 84.1118L130.156 79.8254C130.655 79.5306 130.825 78.8899 130.536 78.391Z"
            fill="#42BBFF" />
        <path
            d="M56.1436 132.592L35.4814 144.511C34.9767 144.8 34.8066 145.441 35.0958 145.946C35.385 146.445 36.0257 146.62 36.5304 146.331L57.1983 134.413C57.7029 134.123 57.873 133.483 57.5838 132.978C57.289 132.473 56.6426 132.303 56.1436 132.592Z"
            fill="#42BBFF" />
        <path
            d="M101.136 106.646L71.7704 123.583C71.2658 123.872 71.0957 124.512 71.3849 125.017C71.674 125.516 72.3148 125.692 72.8194 125.403L102.185 108.466C102.69 108.177 102.86 107.536 102.571 107.031C102.276 106.527 101.63 106.351 101.136 106.646Z"
            fill="#42BBFF" />
        <path
            d="M121.578 97.6869C120.421 97.5905 118.839 97.4658 117.461 98.1519C115.704 99.0308 115.023 100.794 113.379 101.463C114.672 92.1982 103.207 96.7627 106.943 101.838C107.76 102.949 108.99 103.454 109.875 103.675C110.039 103.72 110.209 103.754 110.379 103.782C109.926 104.463 109.336 104.979 108.678 105.251C108.145 105.472 107.89 106.09 108.111 106.623C108.321 107.133 108.911 107.417 109.483 107.19C110.878 106.612 112.063 105.376 112.738 103.805C116.135 103.255 116.804 100.817 118.391 100.023C119.185 99.6261 120.177 99.6715 121.397 99.7679C121.952 99.8189 122.48 99.388 122.525 98.8096C122.587 98.2426 122.156 97.7323 121.578 97.6869ZM111.19 101.781C107.045 101.429 107.89 97.5962 110.912 98.3957C111.74 98.6225 111.298 101.293 111.19 101.781Z"
            fill="#42BBFF" />
        <path
            d="M76.5668 184.882L76.5498 178.316L84.9134 183.181L84.9701 202.551L76.6065 197.686L76.5895 192.849L76.5668 184.882Z"
            fill="#D9F1FF" />
        <path
            d="M84.9692 203.6C84.7878 203.6 84.6063 203.555 84.4419 203.458L76.0784 198.593C75.7552 198.406 75.5567 198.06 75.5567 197.692L75.5 178.317C75.5 177.937 75.6985 177.591 76.0273 177.404C76.3562 177.217 76.7588 177.222 77.0763 177.404L85.4399 182.269C85.7631 182.456 85.9615 182.802 85.9615 183.17L86.0182 202.54C86.0182 202.92 85.8198 203.266 85.4909 203.453C85.3321 203.555 85.1507 203.6 84.9692 203.6ZM77.6547 197.085L83.9146 200.725L83.8635 183.788L77.6036 180.148L77.6207 184.889L77.6547 197.085Z"
            fill="#42BBFF" />
        <path
            d="M111.858 167.634L111.915 187.015L98.4138 185.847L84.9698 202.551L84.9131 183.182C88.7121 184.129 93.3674 183.295 98.3912 180.392C103.421 177.495 108.076 172.959 111.858 167.634Z"
            fill="#FBFCFF" />
        <path
            d="M84.9695 203.6C84.8504 203.6 84.737 203.583 84.6236 203.538C84.204 203.391 83.9205 202.994 83.9205 202.551L83.8638 183.182C83.8638 182.859 84.0112 182.553 84.2663 182.354C84.5215 182.156 84.8561 182.088 85.1679 182.161C88.8479 183.086 93.2423 182.15 97.8692 179.485C102.609 176.746 107.157 172.437 111.007 167.028C111.274 166.653 111.75 166.495 112.181 166.636C112.617 166.772 112.912 167.181 112.912 167.634L112.969 187.015C112.969 187.31 112.85 187.593 112.629 187.792C112.413 187.99 112.124 188.092 111.829 188.064L98.8841 186.947L85.7916 203.22C85.5818 203.464 85.2813 203.6 84.9695 203.6ZM85.9674 184.458L86.0128 199.586L97.597 185.189C97.8181 184.917 98.1697 184.781 98.5042 184.804L110.86 185.87L110.814 170.759C107.225 175.249 103.148 178.861 98.9125 181.305C94.3253 183.953 89.8855 185.03 85.9674 184.458Z"
            fill="#42BBFF" />
        <path
            d="M90.0269 175.527C95.0563 172.624 99.7059 168.093 103.494 162.769L111.857 167.634C108.069 172.958 103.42 177.495 98.3904 180.392C95.6007 178.77 92.8166 177.149 90.0269 175.527Z"
            fill="#FBFCFF" />
        <path
            d="M98.3906 181.441C98.2091 181.441 98.0277 181.396 97.8632 181.299L89.4997 176.434C89.1765 176.247 88.978 175.901 88.978 175.521C88.978 175.147 89.1765 174.801 89.5054 174.614C94.2513 171.875 98.7931 167.566 102.643 162.157C102.955 161.714 103.562 161.584 104.027 161.856L112.39 166.721C112.645 166.869 112.827 167.118 112.889 167.407C112.952 167.696 112.889 167.997 112.719 168.235C108.699 173.9 103.925 178.413 98.9236 181.299C98.7535 181.396 98.572 181.441 98.3906 181.441ZM92.074 175.504L98.3849 179.179C102.666 176.599 106.765 172.743 110.326 167.957L103.789 164.153C100.307 168.881 96.2926 172.766 92.074 175.504Z"
            fill="#154A89" />
        <path
            d="M76.5483 178.317C80.3474 179.264 85.0026 178.43 90.0264 175.527C92.8162 177.149 95.6002 178.77 98.39 180.392C93.3662 183.289 88.7109 184.129 84.9119 183.182C82.4 181.724 79.0546 179.774 76.5483 178.317Z"
            fill="#FBFCFF" />
        <path
            d="M88.0476 184.605C86.8795 184.605 85.7454 184.469 84.6568 184.202C84.5604 184.18 84.4697 184.14 84.3846 184.089L76.021 179.224C75.5674 178.958 75.3803 178.408 75.5788 177.92C75.7716 177.438 76.2932 177.177 76.8035 177.296C80.4835 178.215 84.8722 177.29 89.5048 174.62C89.8337 174.433 90.2362 174.433 90.5538 174.62L98.9173 179.485C99.2405 179.672 99.439 180.018 99.439 180.398C99.439 180.772 99.2405 181.118 98.9117 181.305C95.1183 183.494 91.4213 184.605 88.0476 184.605ZM85.3088 182.201C88.5238 182.955 92.2719 182.32 96.241 180.358L90.0208 176.74C86.8965 178.464 83.8459 179.457 80.9938 179.689L85.3088 182.201Z"
            fill="#154A89" />
        <path
            d="M98.2657 127.364C111.012 120.01 121.389 125.901 121.423 140.559C121.446 149.427 117.669 159.463 111.857 167.634C108.07 172.958 103.42 177.494 98.3905 180.392C93.3667 183.289 88.7114 184.128 84.9124 183.181C79.0778 181.724 75.2674 176.06 75.2447 167.191C75.2107 152.534 85.5191 134.713 98.2657 127.364Z"
            fill="#FBFCFF" />
        <path
            d="M114.704 125.765C110.514 123.31 104.697 123.662 98.2666 127.359C85.5256 134.713 75.2115 152.529 75.2626 167.192C75.2796 174.472 77.8312 179.598 81.9817 181.991L73.6182 177.12C69.4676 174.728 66.916 169.602 66.899 162.321C66.865 147.664 77.1621 129.842 89.903 122.488C96.333 118.791 102.151 118.456 106.341 120.895L114.704 125.765Z"
            fill="#D9F1FF" />
        <path
            d="M151.997 69.9421C151.997 69.3524 151.538 68.8931 150.948 68.8931C150.358 68.8931 149.899 69.3524 149.899 69.9421L150.007 105.041C150.007 108.148 147.739 112.049 145.006 113.648L119.172 128.538C118.089 127.007 116.768 125.737 115.186 124.83C115.169 124.818 115.152 124.818 115.135 124.807L106.862 119.987C102.139 117.243 95.93 117.81 89.3696 121.581C85.6839 123.707 82.1571 126.684 78.8854 130.437C78.5055 130.874 78.5508 131.537 78.9874 131.917C79.424 132.297 80.0818 132.252 80.4674 131.815C83.586 128.237 86.9314 125.408 90.4186 123.401C96.2986 120.016 101.759 119.454 105.808 121.802L108.115 123.146C105.303 123.242 101.595 124.229 97.7388 126.451C87.2659 132.49 78.4091 145.486 75.3528 158.108C73.9069 164.062 73.51 170.832 75.9709 176.462C76.1297 176.825 76.2657 177.217 76.4472 177.557L74.1337 176.207C70.1533 173.911 67.9532 168.978 67.9362 162.315C67.9249 155.987 69.9265 148.724 73.5781 141.863C73.8502 141.353 73.6574 140.718 73.1415 140.445C72.6425 140.179 71.9961 140.366 71.7239 140.882C67.9135 148.038 65.8212 155.653 65.8326 162.321C65.8496 169.766 68.4239 175.345 73.0734 178.027C78.9988 181.362 81.8339 183.499 84.6463 184.202C85.735 184.474 86.8634 184.605 88.0371 184.605C91.4165 184.605 95.1078 183.494 98.9069 181.299C103.908 178.413 108.682 173.9 112.702 168.241C118.832 159.622 122.484 149.274 122.461 140.553C122.45 136.533 121.667 133.08 120.238 130.307L146.043 115.445C149.445 113.472 152.093 108.896 152.093 105.035L151.997 69.9421ZM111.007 167.027C107.157 172.442 102.61 176.752 97.8692 179.485C93.2423 182.15 88.8536 183.085 85.168 182.161C75.8178 179.825 75.024 167.419 77.672 157.496C80.8132 145.753 89.0747 133.874 98.7935 128.266C111.03 121.206 120.346 126.922 120.374 140.553C120.391 148.854 116.887 158.749 111.007 167.027Z"
            fill="#154A89" />
        <path
            d="M98.3021 140.321C104.817 136.562 110.124 139.572 110.141 147.068C110.153 151.599 108.225 156.731 105.254 160.909C103.32 163.631 100.939 165.95 98.3701 167.43C95.8015 168.91 93.42 169.341 91.4808 168.853C88.4983 168.111 86.5534 165.213 86.5421 160.677C86.5194 153.192 91.787 144.08 98.3021 140.321Z"
            fill="#D9F1FF" />
        <path
            d="M93.0736 170.101C92.4385 170.101 91.8148 170.027 91.2251 169.88C87.6415 168.984 85.4982 165.548 85.4869 160.688C85.4698 152.88 90.9813 143.337 97.7799 139.419C101.278 137.395 104.629 137.1 107.209 138.586C109.767 140.06 111.184 143.071 111.19 147.068C111.201 151.622 109.302 157.025 106.109 161.516C104.011 164.47 101.517 166.829 98.8969 168.337C96.8726 169.505 94.8937 170.101 93.0736 170.101ZM98.8232 141.234C92.6086 144.823 87.5678 153.544 87.5848 160.683C87.5962 164.578 89.1044 167.186 91.7297 167.838C93.4705 168.275 95.5855 167.821 97.8422 166.523C100.201 165.162 102.469 163.007 104.397 160.303C107.345 156.152 109.098 151.208 109.092 147.074C109.086 143.853 108.043 141.489 106.16 140.406C104.261 139.306 101.653 139.601 98.8232 141.234Z"
            fill="#42BBFF" />
    </g>
    <defs>
        <clipPath id="clip0_415_6415">
            <rect width="151.213" height="203.6" fill="white" transform="translate(0.893555)" />
        </clipPath>
    </defs>
</svg>